<svg width="21" height="20" viewBox="0 0 21 20" fill="none" xmlns="http://www.w3.org/2000/svg">
<path fill-rule="evenodd" clip-rule="evenodd" d="M3.33398 9.99989C3.33398 9.80097 3.413 9.61021 3.55365 9.46956C3.69431 9.3289 3.88507 9.24989 4.08398 9.24989H14.722L10.564 5.28989C10.4896 5.22245 10.4296 5.14077 10.3874 5.0497C10.3452 4.95863 10.3217 4.86002 10.3183 4.7597C10.3149 4.65939 10.3317 4.55941 10.3677 4.4657C10.4036 4.37199 10.458 4.28644 10.5276 4.21414C10.5973 4.14184 10.6807 4.08425 10.773 4.04479C10.8653 4.00532 10.9645 3.98478 11.0649 3.98438C11.1653 3.98398 11.2647 4.00374 11.3573 4.04247C11.4499 4.08121 11.5338 4.13814 11.604 4.20989L17.104 9.45989C17.1766 9.52985 17.2343 9.61373 17.2737 9.70651C17.3132 9.79929 17.3335 9.89907 17.3335 9.99989C17.3335 10.1007 17.3132 10.2005 17.2737 10.2933C17.2343 10.386 17.1766 10.4699 17.104 10.5399L11.604 15.7899C11.5338 15.8616 11.4499 15.9186 11.3573 15.9573C11.2647 15.996 11.1653 16.0158 11.0649 16.0154C10.9645 16.015 10.8653 15.9945 10.773 15.955C10.6807 15.9155 10.5973 15.8579 10.5276 15.7856C10.458 15.7133 10.4036 15.6278 10.3677 15.5341C10.3317 15.4404 10.3149 15.3404 10.3183 15.2401C10.3217 15.1398 10.3452 15.0411 10.3874 14.9501C10.4296 14.859 10.4896 14.7773 10.564 14.7099L14.722 10.7499H4.08398C3.88507 10.7499 3.69431 10.6709 3.55365 10.5302C3.413 10.3896 3.33398 10.1988 3.33398 9.99989Z" fill="currentColor"/>
</svg>
