<?xml version="1.0" encoding="UTF-8"?>
<svg width="30" height="29" viewBox="0 0 30 29" xmlns="http://www.w3.org/2000/svg">
 <path d="M23.8 11.2h.1l.1-.4v-.3h.1v-.4l.2-.5V8.2l-.1-.3v-.4c-.1-.1 0 .1-.1 0l-.1-.2c0-.1 0 0 0 0v-.4l-.2-.4-.2-.5-.2-.2-.5-1.4-.7-1-.5-.6-.4-.3.2.1-.2-.2-.2-.1-.1-.1-.2-.2-.3-.1a.5.5 0 0 0-.5-.3l-.1-.2h-.2l.2.1-.7-.4L19 1l-.2-.1-.7-.3-.2-.1-.3-.1-.1-.1-.3-.1H17c-.1-.1-.2-.1-.2 0h.3-.8V0h-2.6c0 .2-.1 0-.1.1l-.4.1-.3.2a8 8 0 0 0-1 .2l-.3.1c-.3.2-.5 0-.5 0L11 1h-.2s.1 0 0 0l-.2.2c-.1 0 .1 0 0 0l-.4.3a2 2 0 0 0-.3.2l-.3.2-.2.2-.2.2c-.2 0-.4.2-.5.3l-.3.3-.3.3-.4.3-.2.3-.3.2v.1l-.3.3h-.1l-.3 1-.2.5v.2l-.1.3v.2l-.1.2-.1.1v.2c0 .1 0-.1 0 0v.8l-.1.4v.5l-.1.5v.8l.1.6.2.5v.4s0-.1 0 0l.1.2c.1.2 0 0 0 0h.1l.1.5.2.3.1.4.2.2v.1l.2.4.2.2v.2s0-.1 0 0l.2.2s0-.1 0 0l.3.3c0 .1 0 .2.2.3l.2.4.2.2v.1l.3.5.3.4s0 .2.2.3l.2.3.1.3.1.3h.1l.1.4h.2c.1.2.2.2.3.2l.2.4.3.3.3.5.1.4.1.2-.1.1H11v.6h.1v.1c0 .1 0 0 0 0v.7l-.1.1a2.4 2.4 0 0 1 .1.3v.3h.1v.2l.1.1v.1h.1v.3h.1v.5l.1.2v.3h.3v.1l-.2.2v.2c0 .1 0 0 0 0v.7l.1.2v.4l.1.2v.3l.1.2.1.1v.3l.1.3.5.3.4.2.2.1h.2v.1h.1c.1 0 0 0 0 0h.3l.2.1.2.1h.2l.3.1h.9l.1-.1h.3V28h.2l.2-.2h.2l.2-.2.2-.2v-.1l.2-.1h.1V27l.1-.2.1-.2.1-.2v-.1l.1-.1.2-.3v-.2l.2-.2v-.3h.1l.1-.2.1-.2v-.2l-.2-.1V24c0-.1 0 0 0 0v-.2h.1v-.3l.3-.3.1-.1v-.7h.1v-.1h.1v-.1h.1v-.4c0-.1 0 0 0 0v-.1c0-.1 0 0 0 0v-.3H19V21l-.2-.2h.1-.1v-.2h-.1v-.4c.2 0 0-.2.2-.1l.3-.9.1-.2.3-.5v-.1l.6-.7s-.2.4.3-.2l.7-1 1-1.4.7-1.2a11.5 11.5 0 0 0 1-2.7zm-7.6 13.5s-.1-.2-.1 0v.4l-.1.3c-.2.1-.1.2-.1.2l-.2.2h-.2l-.2-.1H15c-.1 0 0 0 0 0h-.4c-.1 0-.2 0-.2-.2v.1l-.1-.1-.2-.1v-.1H14v-.1l-.1-.1-.1-.2v-.2h.2l.1.1v.1l.2-.2h.4v-.1h.8l.1-.1h.2c.1 0 0 0 0 0h.3l.2-.1-.1.3zm.7-2.4h-1.3l-.1-.1h-.7v.1h-1l-.1.1h-.2v.1h-.2l.1-.1h-.1v-.2l-.1-.2v-.1l.1-.1v-.4h-.1l.1-.2h.2l.1.1.2.1.2-.1h.2l.1-.1h1l.2-.1h.2c.1 0 0-.1 0-.1h.7c.1 0 0 0 0 0h.4v.4h-.1l-.1.1h-.1l.2.1v.1h.1v.3h.1v.2l.1.1zm5-11.8c0 .1 0-.1 0 0l-.1.4v.3l-.2.3v.3l-.2.4v.2l-.2.2v.2c-.1.1 0 0 0 0l-.2.4-.2.3-.2.3-.1.3-.1.1-.4.4-.3.4s-.2.1-.2.3h-.1l-.2.2-.3.3-.3.2v.1l-.4.3v.6l-.4.5-.2.5-.2.8-.3.1a1 1 0 0 1-.4 0H16l-.2.1h-.1v-.1h-.1l-.1-.1h-.7l-.2.1v.1a3 3 0 0 0-.3 0h-1v.1h-.4l-.1-.4-.1-.4-.3-.7v-.1a2 2 0 0 1-.6-1l-.1-.2-.8-.9-.8-1.1-.7-1-.8-1.5-.1-.4v-.2l-.1-.3V9s0 .1-.1 0V7.6l.4-.9L9 6l.1-.1a2.4 2.4 0 0 1 .3-.7v.1l.1-.2h.1v-.2l.1-.1.2-.2.2-.3.1-.1c.1 0 0-.1 0-.1v.1l.4-.4h.1l.2-.2.3-.3h.2l.1-.2h.3L12 3h.1l.1-.1H12l.4-.3h.4l.4-.2.2-.2h.1l.2-.1h.5V2l.4-.1 1.1.1h.3c.3 0 .3.3.3.3h.4s.1.1.2 0c.2 0 0 0 0 0l.4.1.3.1.4.2h.2l.1.1.4.3.4.3.2.2.3.3.2.2v.2l.2.1.1.3v.1a2.8 2.8 0 0 1 .8.9l.2.3.1.2.1.1v.2c.1.1 0 0 .1 0l.1.4.1.3.1.3.1.3v1l.1.2v.5a3 3 0 0 0 .1.6v.4z" fill="currentColor"/>
 <path d="M20.1 8.8v-.4l-.2-.4v-.4l.1-.2v-.2h-.1V7l-.1-.2h-.2v-.7l-.3-.3h.1v-.1l-.2-.1-.2-.2v-.1l-.2-.2V5l-.2-.1v-.2c-.1 0-.1 0 0 0l-.2-.1v-.1H18v-.1h-.7l-.2.2V5c-.1 0 0 0 0 .1l-.2.1-.1.2s-.2.2-.1.3V6l.3.2v.2h.1l.1.1v.4h-.1V7H17l.2.1v.1h.1v.2h.1v.5l.1.1.2.1v.4l.1.1.1.2v.1l.1.1v.3h-.2l.2.1v.2l-.1.2v.2l.1.2c.1 0 0 0 0 0l.5.2.3.1.2.1.2.1c.1 0 .1.1.2 0h.1l.3-.2.2-.4s0 .2.2 0V8.8zm-.8 4.6v-.2l-.1-.1V13l-.2-.2-.2-.1h-.1s0-.1 0 0l-.2-.2-.2-.1-.3-.2h-.4v.1h-.2v.1s-.1.1-.1 0c0 0-.1 0 0 .1h-.4v.4h-.1v.2c-.1 0 0 0 0 0v.2h-.1v.4h-.2s-.1 0 0 0H16l.2.2c-.1 0 0 0 0 0v.2s-.1 0 0 0v.2h.1a3.6 3.6 0 0 0 .6.6l.2.2.2.1h.5c.1 0 0-.2 0-.2h.2l.1-.2.1-.2h.4v-.4h.2v-.4h.1v-.3h.1v-.1h.2v-.2zm4.4-10.8v.2l.2.2h.1s0 .1 0 0l.1.2.2.2.2.3h.4l.2.2v-.1l.1-.1h.7v.1l.1-.2v-.1h.1v-.1h.1v-.1h.1v-.1h.4V3h.1v-.1h.1v-.1l.1-.1.1-.1v-.1h.1v-.1h.3s0-.1 0 0l.1-.1h.4l-.1-.2.1-.1v-.2h.1v-.3c-.1-.1 0 0 0 0a2 2 0 0 0-.4-.5l-.1-.2-.1-.2-.1-.2h-.8l-.1.2H26l-.1.2-.3.2h-.5v.2l-.1.1h-.2v.1h-.1l-.1.2-.1.1c-.1 0 0 .1 0 .1h-.2V2H24l-.1.2h-.1v.3h-.1c0 .2-.1 0-.1.1v.1zM28 16.5l-.2-.3c-.1 0 0-.2 0-.2h-.1c-.1 0 0 0 0 0h-.4l-.1-.2s0-.1 0 0v-.2h-.1v-.4h-.7v-.1h-.3V15H26c-.1 0 0 0 0 0h-.6v-.2h-.1v-.2h-.1v-.4l-.2.2v-.1h-.5l-.1.2c-.1 0 0 0 0 0l-.4.4-.1.3-.2.1v.5l.1.2.1.1s-.1 0 0 .1c0 0 .1.1.2 0l.2.3h.2l.2.2h.1v.2s.1 0 0 0l.1.1v.1h.2v.1h.4l.1.2h.4v.1h.4c0 .1 0 0 0 0h.1v.1h.1v.2h.4l.1-.1h.2l.1-.2h.1s.1-.1 0-.1l.2-.2.1-.1.2-.2.2-.2H28v-.3zm2-7.9v-.3h-.1l-.1-.1-.1-.1h-.1l-.2-.1s.1-.1 0-.1h-.9V8h-.1v-.2H28c-.1 0 0 0 0 0h-.1l-.1.1h-.6V8h-.4v-.1h-.1V8h-.2v.1l-.1.1c-.1.1-.1 0-.1 0v.1l-.1.2v1.1l.1.2.3.2v.1h.5v.1h.1v.1h.1l.1.1h.1l.1-.1v-.1h.6l.1-.1c.1 0 0 0 0 0h.4V10h.1c.1 0 0 0 0 0h.2v-.1h.1l.2.1.1.1v.1l.1.1.1-.3h.1c.1 0 0-.1.1 0h.1v-.2l.1-.2c0-.1 0 0 0 0v-1zM2 2v.2l.1.1v.1h.2l.2.2.2.2.3.1V3h.1v.2l.1.1h.1l.1.1h.4l.2.2h.2v.1h.4v.1h.2V4H5l.2-.1h.1l.1-.2h.1s.1-.1 0-.2h.2v-.2L6 3l.2-.2-.1-.1s.1-.1 0-.2c0-.2 0-.2-.2-.3-.1 0 0-.2 0-.2h-.1c0-.1 0-.1 0 0h-.4v-.1h-.1v-.2h-.1v-.4h-.6l-.1-.1v-.1H4V1h-.5V.9s-.1 0 0-.1h-.1V.3h-.2l-.1.1h-.5l-.1.1c-.1.1 0 0 0 0l-.4.5-.1.2-.2.2V2zm4.1 13.5v-.1c0-.2-.2-.4-.3-.5l-.2-.2v-.2l-.2-.1-.1-.1h-.6c-.2 0-.2 0-.2.2h-.2l-.2.2-.2.2h-.5v.1h-.1v.2H3v.1h-.1v.2h-.1v.1l-.1.1-.1.1h-.4v.2H2l-.1.1v.2h-.1v.1s-.1 0 0 0c0 0-.1 0 0 .2v.2l.1.1.1.1h.1v.1l.2.2.2.3.2.1h.5v-.1H4v.1-.2l.1-.1v-.1h.1l.1-.1.1-.1h.2V17l.1-.1v-.1H5v-.1l.1-.1v-.1h.1v-.1l.1-.1h.2s0-.1 0 0H6v-.5h.2v-.2zm-4.2-5H2v-.1h.1l.1-.1h.6v-.1h.4v.1h.1v-.1h.1v.1l.1-.1V10h.1s0-.1 0 0l.1-.1v-.1l.1-.2v-1l-.1-.2-.3-.1V8h-.1c0 .1-.1 0-.1 0v.1h-.4V8h-.2v-.1l-.1-.1-.2.1-.1.1h-.5l-.1.1h-.1c0 .1 0 0-.1 0v.1h-.2v.1H.7s0-.1 0 0v-.1H.6V8H.4v.2H.2s0 .2-.1.1l-.1.1v.2c0 .2-.1 0 0 0v1.2c-.1 0-.1.1 0 .2v.1l.2.1.1.1h.2s-.1.2 0 .2l.2-.1h.9v.1h.1l.1.1z" fill="currentColor"/>
</svg>
