<?xml version="1.0" encoding="UTF-8"?>
<svg width="24" height="21" fill="none" viewBox="0 0 24 21" xmlns="http://www.w3.org/2000/svg">
 <path d="M24 5.2v-.4l-.1-.1v-.8l-.1-.2h-.2c0 .1-.1 0-.2 0l-.2-.1-.5-.2h-.2l-.2-.1v-.5h.1v-.1h.1v-.1h.1V1h.1l.1-.1s-.1-.1 0-.2V.6h-.1V.5c-.1-.1 0-.1 0-.1h-.1l-.1-.1h-.1L22 .1s-.1 0 0 0H20.2s.2-.1-.2 0l-.7.1-.8.2-.7.3-1 .4-.2.2h-.4l-.1.1h-.3l-.2.2-.2.1-.1.1-.2.1-.1.1v.1H15l-.1.1-.2.2-.2.2-.6.5-.4.4-.3.5V4L13 4l-.1.1v.1l-.1.2-.2.2v.1l-.2.3h-.1v.2l-.1.1-.3-.6-.4-.7a8.3 8.3 0 0 0-1.1-1.4l-.3-.2v-.2l-.2-.1V2l-.2-.2-.2-.1v-.1h-.1l-.2-.2h-.1L9 1.1H8.7L8.6 1A3 3 0 0 0 8 1L7.5.6 7 .4h-.6V.2h-.8V.1h-.1.1H4.7L4.4 0h-.4V0H4l-.3.1h-.5l-.1.1h-.6v.1c0 .1-.1 0-.2 0H2l-.1.1-.1.3-.1.1v.6h-.1v.1h-.1l.1.2h.1V2h.1v.4h.1v.2H2v.2l.1.1V3h.1v.2H2l-.2.1h-.2l-.3.1h-.1l-.2.2H.6c0 .1 0 0 0 0l-.3.2-.2.1v.3l-.2.1v1l.1.1-.1.2V6l.1.2v.4l.1.1V8.3H0a2.5 2.5 0 0 1 .2.8l.1.2V9.7h.1V10.2l.1.2v.7a5.5 5.5 0 0 1 .2.4v.4H1v.4l.1.2v.1l.1.3V13.3h.1V13.8l.1.1v1.7l.2.2v.5l.2.4v.3l.2.2c.2 0 0 .2.1.1h.1v.2h1.1v.1h.5s-.2 0 0 .1h1.1c.2.1.4.2.5.1l.8.2h.2l.1.1h.1l.1.1.2.1.1.1h.2v.1h.4v.1H8l.5.4.3.1.5.2h-.1H9.6v.1l.2.1h.1l.2.2h.1l.3.2v.2l.2.1v.1h.3v.1h.1l.2.2h.2v.1h.2v.1h.2c.2.1.2 0 .2 0l.1.2.2-.2.1.1h.2l.4-.4c.2-.2.3-.1.3-.1l.1-.1c0-.1 0 0 0 0l.2-.2.2-.2h.1l.2-.2h.2l.1-.1h.1l.2-.1H15l.2-.3h.2V19h.1V19h.2v-.1l.2-.1.2-.1h.1v-.1h.3l.1-.1h.1l.2-.2h.1v-.1h.2c.1 0 0 0 0 0l.2-.1h.1l.2-.1h.1l.2-.1.1-.1h.1l.2-.1h.2l.1-.1H20l.1-.1h.2l.2-.1h.3l.2-.1.1-.1c.1 0 0 0 0 0 .2.1.3.2.5.1.1 0 0-.1.2 0l.2.1.2-.2s0-.1 0 0l.2-.6v-.2l.1-.3V16l.1-.5s0 .3.1-.1v-.7l.2-.8v-.7l.2-1V11.6h.1v-.1l.1-.2V11h.1v-.7s0 .1 0 0V9.4l.2-.6V7c.1 0 0 0 0 0v-.4h.1V6h.1v-.2l.1-.1V5.2zm-8-1.5h.1v-.1l.3-.1.2-.1.3-.3h.1l.1-.1h.1l.1-.1.2-.2h.1l.2-.1h.1v-.1l.2-.1h.1l.1-.1h.1l.2-.2H19l.2-.1h.3l.3-.1H20.6l.2-.1V2h-.1v.4c0 .1 0 0 0 0V3.2h-1.2l-1 .2-.2.1H17l-.2.1v.1h-.1l-.2.1h-.2l-.1.1-.4.1.2-.2zM3.6 1.6h.2l.2.1h1.3l.2.1h.2V2H6V2h.1l.2.2H6.9v.1h.4v.1c.1 0 0 0 0 0h.2l.1.1.2.1h.1v.1l.2.2.2.1h.1a2.6 2.6 0 0 1 .4.3H9v.1H9l.2.2h.1l.1.2h.1V4l.2.1v.1h.1v.1l.2.2.1.1a18.8 18.8 0 0 0-1.5-.7h-.4l-.1-.1-.2-.2h-.1l-.2-.2H7l-.2-.1s.1 0 0 0H6l-.7-.1H3.8L3.7 3v-.4l-.2-.2v-.2h.1v-.4l-.1-.1v-.1h.1zm7.4 17v-.1l-.2-.2-.2-.1-.2-.1v-.2h-.2v-.1l-.1-.1-.2-.2h-.4l-.2-.2h-.4v-.1c-.1 0 0 0 0 0h-.3l-.1-.1h-.2V17H8l-.2-.2h-.2l-.3-.1H7l-.1-.1h-.5l-.1-.1H6l-.2-.1c-.1 0 0 0 0 0H5l-.3-.2h-.4l-.1-.1H4l-.1-.1H3.6l-.2.1H3v-.8s0 .3 0 0 0-.5-.2-.7v-.8l-.1-.7-.2-1V10.2s0 .1-.1 0V10l-.1-.2v-.2l-.1-.1v-.7h-.1v-.5L2 7.7v-.5l-.2-.2v-.6l-.1-.3v-.7.1l-.1-.3v-.4H3l.2-.1h.5s.1.1.2 0V5H4.2l.2.1h.2v.1L5 5h.7c.1 0 0 0 0 0h.7l.2.1.2.1H7.4l.2.1c.1 0 0 0 0 0H8l.1.1.2.1h.1l.2.1h.2v.1H9l.1.1.2.1h.1l.1.1.2.2.2.1.1.1.1.1.1.1v.2h.1l.1.2h.5l.1.2h.2v.2h.1v.2h.2V8c0 .1 0 .2-.2.3V8.7c0 .1 0 0 0 0v.7l.1.1v.7l-.1.2v.4h-.1v.2l-.1.2v.5l.1.3v.5c0 .2 0 0 0 0V14l.1.3v1.4l.1.3V16.3c0 .1 0 0 0 0v2.1h-.1v.2H11zM22.4 5V5l-.1.2v.2c-.1 0-.1 0 0 .2 0 0 0-.1 0 0V6l-.1.2v.5L22 7v.4l-.1.2-.1.2-.1.2V9.3c0 .1 0 0 0 0v.8l-.1.3-.1.3v.9c0 .1 0 0 0 0V13h-.1V13.8l-.1.3v.3c-.1 0-.2.1-.1.2l-.1.2v.2H21v.1l-.1.3.1.3V16a8 8 0 0 0-.4 0H20a1 1 0 0 1-.4 0s.2-.1-.1 0H19l-.6.2h-.6l-.8.4H16.3l-.2.1h-.2l-.1.1h-.1l-.2.2-.1.1h-.2l-.1.2H15l-.5.3-.4.2-.3.3V18l-.1.1h-.1v.1h-.1l-.2.2h-.1v.1l-.1.1-.1-.7v-3.2l.1-.2V10.7s0 .1 0 0v-.2l-.1-.1V8.3v.1-1l.5-.4v-.1h.3v-.1h.1l.1-.1c.1-.1 0 0 0 0l.1-.2h.1l.1-.1.1-.1.3-.1.2-.1H15.2V6h.5l.3-.2.2-.1h.1l.1-.1h.2l.2-.1h.1l.2-.1h.4l.2-.1h.1l.2-.1.2-.1H18.5c.1 0 0 0 0 0V5h.5l.1-.1h.3v-.1h.2c.1 0 0 0 0 0h.4l.1-.1H21v.1h.4l.2.2h.1l.1-.2h.7V5zm1-1v-.1z" fill="currentColor"/>
</svg>
