<svg width="48" height="52" viewBox="0 0 48 52" fill="none" xmlns="http://www.w3.org/2000/svg">
<path d="M47.225 43.631H0V6.53525C0 2.915 2.68373 0 6.01675 0H14.6307C16.0158 0 17.3144 0.517178 18.3533 1.50452L21.34 4.23146H41.2083C44.5413 4.23146 47.225 7.14646 47.225 10.7667V43.631Z" fill="#FF5C21"/>
<path d="M41.1255 50.4847H6.14724C2.72733 50.4847 6.10352e-05 47.5227 6.10352e-05 43.8554V13.4829C6.10352e-05 9.81568 2.72733 6.80664 6.14724 6.80664H41.1255C44.5022 6.80664 47.2727 9.76866 47.2727 13.4829V43.8084C47.2294 47.5227 44.5022 50.4847 41.1255 50.4847Z" fill="#4A72FF"/>
<path d="M41.1255 52.0003H6.14718C2.72727 52.0003 0 48.9913 0 45.324V14.9986C0 11.3313 2.72727 8.32227 6.14718 8.32227H41.1255C44.5021 8.32227 47.2727 11.2843 47.2727 14.9986V45.324C47.2294 48.9913 44.5021 52.0003 41.1255 52.0003Z" fill="#47BDFF"/>
<path d="M31.6525 22.867C29.3965 22.867 27.5583 21.0534 27.5583 18.8276V13.9639H16.6961C13.4375 13.9639 10.8473 16.6018 10.8473 19.7344V38.6124C10.8473 41.8275 13.521 44.383 16.6961 44.383H30.984C34.2427 44.383 36.8329 41.745 36.8329 38.6124V22.867H31.6525Z" fill="#F8F9EE"/>
<path d="M29.313 14.0459V18.9097C29.313 20.2287 30.3992 21.3003 31.7361 21.3003H37L29.313 14.0459Z" fill="#F8F9EE"/>
<path d="M14.9311 33.848C14.7871 33.704 14.7151 33.5307 14.7151 33.328C14.7151 33.1253 14.7871 32.9547 14.9311 32.816C15.0751 32.672 15.2458 32.6 15.4431 32.6C15.6458 32.6 15.8191 32.672 15.9631 32.816C16.1071 32.9547 16.1791 33.1253 16.1791 33.328C16.1791 33.5307 16.1071 33.704 15.9631 33.848C15.8191 33.9867 15.6458 34.056 15.4431 34.056C15.2458 34.056 15.0751 33.9867 14.9311 33.848ZM18.4475 30.912H19.3195C19.5915 30.912 19.8075 30.84 19.9675 30.696C20.1275 30.5467 20.2075 30.3493 20.2075 30.104C20.2075 29.8533 20.1275 29.656 19.9675 29.512C19.8128 29.3627 19.5968 29.288 19.3195 29.288H18.4475V30.912ZM19.4555 31.864H18.4395V34H17.3355V28.328H19.4555C20.0102 28.328 20.4582 28.4933 20.7995 28.824C21.1462 29.1547 21.3195 29.5787 21.3195 30.096C21.3195 30.6133 21.1462 31.0373 20.7995 31.368C20.4582 31.6987 20.0102 31.864 19.4555 31.864ZM23.2676 32.976H24.1476C24.6436 32.976 25.0516 32.8213 25.3716 32.512C25.6916 32.2027 25.8516 31.7547 25.8516 31.168C25.8516 30.5813 25.6916 30.1333 25.3716 29.824C25.0516 29.5093 24.6463 29.352 24.1556 29.352H23.2676V32.976ZM24.1876 34H22.1636V28.328H24.1956C25.0223 28.328 25.6943 28.5813 26.2116 29.088C26.7343 29.5947 26.9956 30.288 26.9956 31.168C26.9956 32.0427 26.7343 32.7333 26.2116 33.24C25.689 33.7467 25.0143 34 24.1876 34ZM29.0647 34H27.9527V28.328H31.5367V29.376H29.0567V30.776H31.2647V31.792H29.0647V34Z" fill="#47BDFF"/>
</svg>
