<svg width="350" height="158" viewBox="0 0 350 158" fill="none" xmlns="http://www.w3.org/2000/svg">
<g clip-path="url(#clip0_4238_9713)">
<path d="M340.4 0H115.311V147.524H340.4V0Z" fill="#D9E1FF"/>
<path d="M340.398 147.524H350.012V0.000274658H340.398V147.524Z" fill="#B2C3FF"/>
<path d="M329.589 11.3252H126.105V136.727H329.589V11.3252Z" fill="url(#paint0_linear_4238_9713)"/>
<path d="M168.184 21.2344H136.232V31.7102H168.184V21.2344Z" fill="#37A24C"/>
<path d="M217.23 40.4873H136.232V50.9632H217.23V40.4873Z" fill="#FF5C21"/>
<path d="M250.469 40.4873H224.738V50.9632H250.469V40.4873Z" fill="#37A24C"/>
<path d="M162.338 59.7402H80.8008V70.2161H162.338V59.7402Z" fill="#FF5C21"/>
<path d="M157.182 99.9453H136.232V110.421H157.182V99.9453Z" fill="#2DAEF6"/>
<path d="M205.084 99.9453H163.66V110.421H205.084V99.9453Z" fill="#2DAEF6"/>
<path d="M83.3849 91.4648H106.584V80.989H83.3849V91.4648Z" fill="#3F6AFF"/>
<path d="M23.9781 91.4648H75.6074V80.989H23.9781V91.4648Z" fill="#3F6AFF"/>
<path opacity="0.3" d="M23.9779 70.2158H80.8125V59.74L23.9779 59.74V70.2158Z" fill="url(#paint1_linear_4238_9713)"/>
<path opacity="0.2" d="M-32.8893 91.4648H23.9453V80.989H-32.8893V91.4648Z" fill="url(#paint2_linear_4238_9713)"/>
<path d="M226.024 147.519H0.447266V158H226.024V147.519Z" fill="url(#paint3_linear_4238_9713)"/>
<path d="M226.025 158H340.48V147.519H226.025V158Z" fill="url(#paint4_linear_4238_9713)"/>
<path d="M340.385 147.524H349.999V150.626C349.999 154.693 346.695 158 342.634 158H340.385V147.524Z" fill="url(#paint5_linear_4238_9713)"/>
</g>
<defs>
<linearGradient id="paint0_linear_4238_9713" x1="126.105" y1="71.2303" x2="329.589" y2="71.2303" gradientUnits="userSpaceOnUse">
<stop stop-color="#192D73"/>
<stop offset="1" stop-color="#3256D0"/>
</linearGradient>
<linearGradient id="paint1_linear_4238_9713" x1="23.965" y1="64.9779" x2="80.7996" y2="64.9779" gradientUnits="userSpaceOnUse">
<stop stop-color="white" stop-opacity="0"/>
<stop offset="1" stop-color="#FF5C21"/>
</linearGradient>
<linearGradient id="paint2_linear_4238_9713" x1="-32.8893" y1="86.214" x2="23.9453" y2="86.214" gradientUnits="userSpaceOnUse">
<stop stop-color="white" stop-opacity="0"/>
<stop offset="1" stop-color="#3F6AFF"/>
</linearGradient>
<linearGradient id="paint3_linear_4238_9713" x1="0.447266" y1="152.993" x2="226.024" y2="152.993" gradientUnits="userSpaceOnUse">
<stop stop-color="#192D73"/>
<stop offset="1" stop-color="#3256D0"/>
</linearGradient>
<linearGradient id="paint4_linear_4238_9713" x1="340.48" y1="152.993" x2="226.025" y2="152.993" gradientUnits="userSpaceOnUse">
<stop offset="0.515" stop-color="#3256D0"/>
<stop offset="1" stop-color="#192D73"/>
</linearGradient>
<linearGradient id="paint5_linear_4238_9713" x1="340.385" y1="152.529" x2="349.999" y2="152.529" gradientUnits="userSpaceOnUse">
<stop stop-color="#192D73"/>
<stop offset="1" stop-color="#3256D0"/>
</linearGradient>
<clipPath id="clip0_4238_9713">
<rect width="350" height="158" fill="white"/>
</clipPath>
</defs>
</svg>
