<svg width="75" height="20" viewBox="0 0 75 20" fill="none" xmlns="http://www.w3.org/2000/svg">
<path fill-rule="evenodd" clip-rule="evenodd" d="M10.9808 5.27793C10.2686 5.27793 9.69147 4.74009 9.69147 4.08001C9.69147 3.41382 10.2686 2.87598 10.9808 2.87598C11.6868 2.87598 12.264 3.41382 12.264 4.08001C12.264 4.74009 11.6868 5.27793 10.9808 5.27793ZM5.81418 15.9976L9.17252 6.60982H6.80879L4.63538 13.5834H4.53714L2.36987 6.60982H0L3.35835 15.9976H5.81418ZM9.86285 6.60982V15.9976H12.0854V6.60982H9.86285ZM13.4029 14.5919V15.9976H21.1449V14.1641H16.3561V14.0846L20.9853 8.11944V6.60982H13.5626V8.44337H18.2655V8.52282L13.4029 14.5919ZM22.2708 15.9976V14.5919L27.1333 8.52282V8.44337H22.4304V6.60982H29.8532V8.11944L25.2239 14.0846V14.1641H30.0128V15.9976H22.2708ZM37.2735 6.60982V12.0494C37.2735 13.4795 36.2482 14.1885 35.2658 14.1885C34.1976 14.1885 33.4854 13.4367 33.4854 12.2449V6.60982H31.2628V12.5872C31.2628 14.8425 32.5522 16.1198 34.4063 16.1198C35.8184 16.1198 36.813 15.3803 37.2428 14.3291H37.341V15.9976H39.496V6.60982H37.2735ZM43.6501 16.1871C41.8512 16.1871 40.4943 15.2092 40.4943 13.3634C40.4943 11.2487 42.2441 10.7048 44.0737 10.5092L44.3571 10.4793C45.8139 10.3263 46.4067 10.264 46.4067 9.66576V9.62909C46.4067 8.7062 45.8419 8.18058 44.8104 8.18058C43.7237 8.18058 43.0975 8.73065 42.8765 9.37239L40.8013 9.07902C41.2925 7.36771 42.8151 6.4876 44.7982 6.4876C46.597 6.4876 48.6292 7.23325 48.6292 9.71465V15.9976H46.4927V14.708H46.419C46.0138 15.4965 45.1297 16.1871 43.6501 16.1871ZM46.4117 12.6309C46.4117 13.6761 45.5644 14.5623 44.226 14.5623C43.2989 14.5623 42.6358 14.1406 42.6358 13.3277C42.6358 12.4781 43.3787 12.1236 44.3733 11.9831L44.4722 11.9697C45.0795 11.8876 46.1386 11.7444 46.4117 11.5247V12.6309ZM52.2483 3.48107V15.9981H50.0258V3.48107H52.2483ZM53.6872 6.60982V15.9976H55.9097V6.60982H53.6872ZM54.8044 5.27793C54.0922 5.27793 53.5151 4.74009 53.5151 4.08001C53.5151 3.41382 54.0922 2.87598 54.8044 2.87598C55.5104 2.87598 56.0875 3.41382 56.0875 4.08001C56.0875 4.74009 55.5104 5.27793 54.8044 5.27793ZM62.0581 8.32134V6.61003H60.1978V4.36087H57.9753V6.61003H56.6369V8.32134H57.9753V13.5409C57.963 15.3072 59.2523 16.1751 60.9223 16.1262C61.5547 16.1078 61.9906 15.9856 62.23 15.9061L61.8555 14.1765C61.7327 14.207 61.481 14.2621 61.2047 14.2621C60.646 14.2621 60.1978 14.0665 60.1978 13.1741V8.32134H62.0581ZM64.4561 19.4997C63.8483 19.4997 63.308 19.3897 63.0072 19.2613L63.5229 17.5439C64.493 17.8189 65.1315 17.7395 65.5551 16.7005L65.7455 16.1932L62.3257 6.60982H64.6833L66.8567 13.6996H66.9549L69.1345 6.60982L71.5105 6.62204L67.7224 17.1344C67.1883 18.6074 66.1875 19.4997 64.4561 19.4997ZM71.6304 14.7878C71.6243 15.5335 72.2321 16.1325 72.9811 16.1325C73.7056 16.1325 74.3257 15.5335 74.3318 14.7878C74.3257 14.0544 73.7056 13.4555 72.9811 13.4555C72.2321 13.4555 71.6243 14.0544 71.6304 14.7878Z" fill="#F8F9EE"/>
</svg>
