<svg width="90" height="90" viewBox="0 0 90 90" fill="none" xmlns="http://www.w3.org/2000/svg">
<g clip-path="url(#clip0_2775_1851)">
<path d="M32.7556 27.9913C34.396 23.7343 37.6603 20.3032 41.8304 18.4529C46.0005 16.6026 50.7349 16.4847 54.9919 18.1251C59.249 19.7655 62.6801 23.0298 64.5304 27.1999C66.3806 31.37 66.4985 36.1043 64.8582 40.3614C57.6423 59.0879 63.6062 67.5308 63.6062 67.5308L15.4524 48.9757C15.4524 48.9757 25.5398 46.7178 32.7556 27.9913Z" fill="#F8F9EE" stroke="#F8F9EE" stroke-width="6.43245" stroke-linecap="round" stroke-linejoin="round"/>
<path d="M30.8564 67.2015C30.9904 68.1885 31.3869 69.1214 32.0046 69.9028C32.6223 70.6842 33.4385 71.2853 34.368 71.6434C35.2974 72.0016 36.3059 72.1036 37.2882 71.9387C38.2705 71.7739 39.1906 71.3483 39.9522 70.7064" stroke="#F8F9EE" stroke-width="6.43245" stroke-linecap="round" stroke-linejoin="round"/>
<path d="M33.5887 9.87821C28.626 13.1891 24.4242 17.7148 22.0532 23.8678" stroke="#F8F9EE" stroke-width="6.43245" stroke-linecap="round" stroke-linejoin="round"/>
<path d="M75.558 44.4847C77.9289 38.3317 77.8504 32.1566 76.3926 26.3717" stroke="#F8F9EE" stroke-width="6.43245" stroke-linecap="round" stroke-linejoin="round"/>
</g>
<defs>
<clipPath id="clip0_2775_1851">
<rect width="68.8067" height="68.8067" fill="white" transform="translate(24.9502 0.404663) rotate(21.0732)"/>
</clipPath>
</defs>
</svg>
