<svg width="29" height="34" viewBox="0 0 29 34" fill="none" xmlns="http://www.w3.org/2000/svg">
<g clip-path="url(#clip0_2012_3506)">
<path d="M21.5078 8.50358C21.5078 8.98235 21.9056 9.37092 22.3957 9.37092H24.3846C24.8747 9.37092 25.2724 8.98235 25.2724 8.50358C25.2724 8.0248 24.8747 7.63623 24.3846 7.63623H22.3957C21.9056 7.63623 21.5078 8.0248 21.5078 8.50358Z" fill="currentColor"/>
<path d="M7.86328 8.50346C7.86328 8.98223 8.26105 9.3708 8.75116 9.3708H10.74C11.2301 9.3708 11.6279 8.98223 11.6279 8.50346C11.6279 8.02468 11.2301 7.63611 10.74 7.63611H8.75116C8.26105 7.63611 7.86328 8.02468 7.86328 8.50346Z" fill="currentColor"/>
<path d="M17.4555 2.8102V0.867347C17.4555 0.388571 17.0577 0 16.5676 0C16.0775 0 15.6797 0.388571 15.6797 0.867347V2.8102C15.6797 3.28898 16.0775 3.67755 16.5676 3.67755C17.0577 3.67755 17.4555 3.28898 17.4555 2.8102Z" fill="currentColor"/>
<path d="M21.4805 2.49084L20.0599 3.8786C19.7118 4.2186 19.7118 4.76676 20.0599 5.10676C20.4079 5.44676 20.9691 5.44676 21.3171 5.10676L22.7377 3.719C23.0858 3.379 23.0858 2.83084 22.7377 2.49084C22.3897 2.15084 21.8285 2.15084 21.4805 2.49084Z" fill="currentColor"/>
<path d="M12.4489 5.34635C12.9391 5.34635 13.3368 4.96125 13.3368 4.479C13.3368 4.24656 13.2445 4.02798 13.0776 3.86492L11.657 2.47717C11.3089 2.13717 10.7478 2.13717 10.3997 2.47717C10.0517 2.81717 10.0517 3.36533 10.3997 3.70533L11.8203 5.09309C11.9872 5.25615 12.2145 5.34635 12.4489 5.34635Z" fill="currentColor"/>
<path d="M1.77577 15.3485C0.795543 15.3485 0 16.1257 0 17.0832V32.2653C0 33.2228 0.795543 34 1.77577 34H6.91838C7.85244 34 8.63022 33.2957 8.69415 32.3867L9.79512 33.032C10.8428 33.6461 12.0432 33.9722 13.265 33.9722H20.7694C21.6785 33.9826 22.5771 33.8057 23.4117 33.4587C25.809 32.4179 26.1854 30.5896 26.0079 29.3753C27.2687 28.3414 27.7304 26.6449 27.1621 25.1357C27.7552 24.4349 28.0713 23.5467 28.05 22.6343C28.0109 21.9196 27.7588 21.2326 27.3219 20.6602C27.8795 19.4043 27.5528 17.9402 26.5086 17.0243C26.434 16.9583 26.3595 16.8924 26.2778 16.8334C25.8729 16.5385 25.4077 16.3373 24.914 16.2436H24.8749C22.5203 15.7545 20.9363 15.7232 18.6065 15.7232C18.5177 15.1994 18.5212 14.0996 19.2244 12.0283C19.8744 10.1098 19.8175 8.52426 19.054 7.31344C18.4147 6.33507 17.367 5.67936 16.1879 5.53017H16.0778C15.2396 5.5163 14.4938 6.04364 14.2487 6.82773C14.2345 6.86936 14.2274 6.91099 14.2203 6.95262L13.954 8.82609C13.8723 9.38813 13.7054 9.9363 13.4568 10.4498L10.8677 15.7614C10.4735 16.6496 9.66372 17.2983 8.69415 17.4961V17.0832C8.69415 16.1257 7.89861 15.3485 6.91838 15.3485H1.77577ZM1.77577 32.2653V17.0832H6.91838V32.2653H1.77577ZM8.87883 19.2412C10.477 18.9671 11.8266 17.9228 12.4659 16.4657L15.0336 11.1679C15.3604 10.4949 15.5806 9.7767 15.6836 9.03773L15.957 7.28568C15.957 7.28568 15.9854 7.26487 16.0032 7.2614C16.6283 7.35854 17.1859 7.70895 17.5339 8.22589C18.0027 8.96834 18.0027 10.0959 17.5339 11.4836C16.8449 13.5098 16.6318 15.1092 16.8946 16.2402C17.0616 16.9583 17.7186 17.4683 18.4715 17.4614C20.8191 17.4614 22.2681 17.4822 24.5091 17.9436H24.5446C24.7826 17.9853 25.0063 18.0789 25.2017 18.2143L25.3153 18.3079C26.2245 19.1094 25.6492 20.1363 25.5284 20.3271C25.294 20.6845 25.3615 21.1563 25.6847 21.4408C26.0292 21.7843 26.2423 22.2318 26.2849 22.7106C26.2636 23.3559 25.9759 23.9665 25.4858 24.4002C25.2123 24.6812 25.1662 25.1079 25.3686 25.441C25.4077 25.5069 26.3204 27.0577 24.5127 28.3553C24.2037 28.5843 24.0758 28.9798 24.2001 29.3406C24.296 29.6181 24.6725 31.0406 22.7227 31.8767C22.1047 32.13 21.4406 32.2514 20.7694 32.2375H13.2508C12.3522 32.2375 11.4679 31.9947 10.6972 31.5436L8.69415 30.371V19.269L8.87883 19.2412Z" fill="currentColor"/>
<path d="M4.34689 30.6243C4.94513 30.6243 5.43011 30.1505 5.43011 29.5661C5.43011 28.9817 4.94513 28.5079 4.34689 28.5079C3.74864 28.5079 3.26367 28.9817 3.26367 29.5661C3.26367 30.1505 3.74864 30.6243 4.34689 30.6243Z" fill="currentColor"/>
</g>
<defs>
<clipPath id="clip0_2012_3506">
<rect width="28.05" height="34" fill="white"/>
</clipPath>
</defs>
</svg>
