<svg width="124" height="124" viewBox="0 0 124 124" fill="none" xmlns="http://www.w3.org/2000/svg">
<path d="M123.252 36.3472H0.105469C0.105469 28.9372 6.10398 22.5858 13.8668 22.5858H109.49C117.253 22.5858 123.252 28.5844 123.252 36.3472Z" fill="#F8F9EE"/>
<path d="M61.855 22.586V13.7646C61.855 7.76608 56.915 2.47327 50.5636 2.47327H0.105469" stroke="#F8F9EE" stroke-width="3.52855" stroke-miterlimit="10"/>
<path opacity="0.2" d="M96.438 36.3472H82.3238C82.3238 28.9372 76.3253 22.5858 68.5625 22.5858H109.494C116.904 22.5858 123.255 28.5844 123.255 36.3472H96.438Z" fill="#191C34"/>
<path d="M8.92501 52.9312C11.4584 52.9312 13.5121 50.8775 13.5121 48.3441C13.5121 45.8107 11.4584 43.757 8.92501 43.757C6.39162 43.757 4.33789 45.8107 4.33789 48.3441C4.33789 50.8775 6.39162 52.9312 8.92501 52.9312Z" fill="#F8F9EE"/>
<path d="M30.0949 52.9312C32.6283 52.9312 34.682 50.8775 34.682 48.3441C34.682 45.8107 32.6283 43.757 30.0949 43.757C27.5615 43.757 25.5078 45.8107 25.5078 48.3441C25.5078 50.8775 27.5615 52.9312 30.0949 52.9312Z" fill="#F8F9EE"/>
<path d="M51.2678 52.9312C53.8012 52.9312 55.8549 50.8775 55.8549 48.3441C55.8549 45.8107 53.8012 43.757 51.2678 43.757C48.7344 43.757 46.6807 45.8107 46.6807 48.3441C46.6807 50.8775 48.7344 52.9312 51.2678 52.9312Z" fill="#F8F9EE"/>
<path d="M72.4377 52.9312C74.9711 52.9312 77.0248 50.8775 77.0248 48.3441C77.0248 45.8107 74.9711 43.757 72.4377 43.757C69.9043 43.757 67.8506 45.8107 67.8506 48.3441C67.8506 50.8775 69.9043 52.9312 72.4377 52.9312Z" fill="#F8F9EE"/>
<path d="M93.6106 52.9312C96.144 52.9312 98.1976 50.8775 98.1976 48.3441C98.1976 45.8107 96.144 43.757 93.6106 43.757C91.0772 43.757 89.0234 45.8107 89.0234 48.3441C89.0234 50.8775 91.0772 52.9312 93.6106 52.9312Z" fill="#F8F9EE"/>
<path d="M114.782 52.9312C117.316 52.9312 119.37 50.8775 119.37 48.3441C119.37 45.8107 117.316 43.757 114.782 43.757C112.249 43.757 110.195 45.8107 110.195 48.3441C110.195 50.8775 112.249 52.9312 114.782 52.9312Z" fill="#F8F9EE"/>
<path d="M8.92501 70.5742C11.4584 70.5742 13.5121 68.5205 13.5121 65.9871C13.5121 63.4538 11.4584 61.4 8.92501 61.4C6.39162 61.4 4.33789 63.4538 4.33789 65.9871C4.33789 68.5205 6.39162 70.5742 8.92501 70.5742Z" fill="#F8F9EE"/>
<path d="M30.0949 70.5742C32.6283 70.5742 34.682 68.5205 34.682 65.9871C34.682 63.4538 32.6283 61.4 30.0949 61.4C27.5615 61.4 25.5078 63.4538 25.5078 65.9871C25.5078 68.5205 27.5615 70.5742 30.0949 70.5742Z" fill="#F8F9EE"/>
<path d="M51.2678 70.5742C53.8012 70.5742 55.8549 68.5205 55.8549 65.9871C55.8549 63.4538 53.8012 61.4 51.2678 61.4C48.7344 61.4 46.6807 63.4538 46.6807 65.9871C46.6807 68.5205 48.7344 70.5742 51.2678 70.5742Z" fill="#F8F9EE"/>
<path d="M72.4377 70.5742C74.9711 70.5742 77.0248 68.5205 77.0248 65.9871C77.0248 63.4538 74.9711 61.4 72.4377 61.4C69.9043 61.4 67.8506 63.4538 67.8506 65.9871C67.8506 68.5205 69.9043 70.5742 72.4377 70.5742Z" fill="#F8F9EE"/>
<path d="M93.6106 70.5742C96.144 70.5742 98.1976 68.5205 98.1976 65.9871C98.1976 63.4538 96.144 61.4 93.6106 61.4C91.0772 61.4 89.0234 63.4538 89.0234 65.9871C89.0234 68.5205 91.0772 70.5742 93.6106 70.5742Z" fill="#F8F9EE"/>
<path d="M114.782 70.5742C117.316 70.5742 119.37 68.5205 119.37 65.9871C119.37 63.4538 117.316 61.4 114.782 61.4C112.249 61.4 110.195 63.4538 110.195 65.9871C110.195 68.5205 112.249 70.5742 114.782 70.5742Z" fill="#F8F9EE"/>
<path d="M8.92501 88.2168C11.4584 88.2168 13.5121 86.1631 13.5121 83.6297C13.5121 81.0963 11.4584 79.0426 8.92501 79.0426C6.39162 79.0426 4.33789 81.0963 4.33789 83.6297C4.33789 86.1631 6.39162 88.2168 8.92501 88.2168Z" fill="#F8F9EE"/>
<path d="M30.0949 88.2168C32.6283 88.2168 34.682 86.1631 34.682 83.6297C34.682 81.0963 32.6283 79.0426 30.0949 79.0426C27.5615 79.0426 25.5078 81.0963 25.5078 83.6297C25.5078 86.1631 27.5615 88.2168 30.0949 88.2168Z" fill="#F8F9EE"/>
<path d="M51.2678 88.2168C53.8012 88.2168 55.8549 86.1631 55.8549 83.6297C55.8549 81.0963 53.8012 79.0426 51.2678 79.0426C48.7344 79.0426 46.6807 81.0963 46.6807 83.6297C46.6807 86.1631 48.7344 88.2168 51.2678 88.2168Z" fill="#F8F9EE"/>
<path d="M72.4377 88.2168C74.9711 88.2168 77.0248 86.1631 77.0248 83.6297C77.0248 81.0963 74.9711 79.0426 72.4377 79.0426C69.9043 79.0426 67.8506 81.0963 67.8506 83.6297C67.8506 86.1631 69.9043 88.2168 72.4377 88.2168Z" fill="#F8F9EE"/>
<path d="M93.6106 88.2168C96.144 88.2168 98.1976 86.1631 98.1976 83.6297C98.1976 81.0963 96.144 79.0426 93.6106 79.0426C91.0772 79.0426 89.0234 81.0963 89.0234 83.6297C89.0234 86.1631 91.0772 88.2168 93.6106 88.2168Z" fill="#F8F9EE"/>
<path d="M114.782 88.2168C117.316 88.2168 119.37 86.1631 119.37 83.6297C119.37 81.0963 117.316 79.0426 114.782 79.0426C112.249 79.0426 110.195 81.0963 110.195 83.6297C110.195 86.1631 112.249 88.2168 114.782 88.2168Z" fill="#F8F9EE"/>
<path d="M8.92501 105.86C11.4584 105.86 13.5121 103.806 13.5121 101.272C13.5121 98.739 11.4584 96.6853 8.92501 96.6853C6.39162 96.6853 4.33789 98.739 4.33789 101.272C4.33789 103.806 6.39162 105.86 8.92501 105.86Z" fill="#F8F9EE"/>
<path d="M30.0949 105.859C32.6283 105.859 34.682 103.806 34.682 101.272C34.682 98.7389 32.6283 96.6852 30.0949 96.6852C27.5615 96.6852 25.5078 98.7389 25.5078 101.272C25.5078 103.806 27.5615 105.859 30.0949 105.859Z" fill="#F8F9EE"/>
<path d="M51.2678 105.859C53.8012 105.859 55.8549 103.806 55.8549 101.272C55.8549 98.7389 53.8012 96.6852 51.2678 96.6852C48.7344 96.6852 46.6807 98.7389 46.6807 101.272C46.6807 103.806 48.7344 105.859 51.2678 105.859Z" fill="#F8F9EE"/>
<path d="M72.4377 105.859C74.9711 105.859 77.0248 103.806 77.0248 101.272C77.0248 98.7389 74.9711 96.6852 72.4377 96.6852C69.9043 96.6852 67.8506 98.7389 67.8506 101.272C67.8506 103.806 69.9043 105.859 72.4377 105.859Z" fill="#F8F9EE"/>
<path d="M93.6106 105.859C96.144 105.859 98.1976 103.806 98.1976 101.272C98.1976 98.7389 96.144 96.6852 93.6106 96.6852C91.0772 96.6852 89.0234 98.7389 89.0234 101.272C89.0234 103.806 91.0772 105.859 93.6106 105.859Z" fill="#F8F9EE"/>
<path d="M114.782 105.859C117.316 105.859 119.37 103.806 119.37 101.272C119.37 98.7389 117.316 96.6852 114.782 96.6852C112.249 96.6852 110.195 98.7389 110.195 101.272C110.195 103.806 112.249 105.859 114.782 105.859Z" fill="#F8F9EE"/>
<path d="M8.92501 123.502C11.4584 123.502 13.5121 121.448 13.5121 118.915C13.5121 116.381 11.4584 114.328 8.92501 114.328C6.39162 114.328 4.33789 116.381 4.33789 118.915C4.33789 121.448 6.39162 123.502 8.92501 123.502Z" fill="#F8F9EE"/>
<path d="M30.0949 123.502C32.6283 123.502 34.682 121.448 34.682 118.915C34.682 116.381 32.6283 114.328 30.0949 114.328C27.5615 114.328 25.5078 116.381 25.5078 118.915C25.5078 121.448 27.5615 123.502 30.0949 123.502Z" fill="#F8F9EE"/>
<path d="M51.2678 123.502C53.8012 123.502 55.8549 121.448 55.8549 118.915C55.8549 116.381 53.8012 114.328 51.2678 114.328C48.7344 114.328 46.6807 116.381 46.6807 118.915C46.6807 121.448 48.7344 123.502 51.2678 123.502Z" fill="#F8F9EE"/>
<path d="M72.4377 123.502C74.9711 123.502 77.0248 121.448 77.0248 118.915C77.0248 116.381 74.9711 114.328 72.4377 114.328C69.9043 114.328 67.8506 116.381 67.8506 118.915C67.8506 121.448 69.9043 123.502 72.4377 123.502Z" fill="#F8F9EE"/>
<path d="M93.6106 123.502C96.144 123.502 98.1976 121.448 98.1976 118.915C98.1976 116.381 96.144 114.328 93.6106 114.328C91.0772 114.328 89.0234 116.381 89.0234 118.915C89.0234 121.448 91.0772 123.502 93.6106 123.502Z" fill="#F8F9EE"/>
<path d="M114.782 123.502C117.316 123.502 119.37 121.448 119.37 118.915C119.37 116.381 117.316 114.328 114.782 114.328C112.249 114.328 110.195 116.381 110.195 118.915C110.195 121.448 112.249 123.502 114.782 123.502Z" fill="#F8F9EE"/>
</svg>
