<svg width="79" height="124" viewBox="0 0 79 124" fill="none" xmlns="http://www.w3.org/2000/svg">
<path d="M47.1223 0H31.2209C25.4033 0 20.3613 4.65404 20.3613 10.8595H57.594C57.594 5.04188 52.9399 0 47.1223 0Z" fill="#F8F9EE"/>
<path d="M76.9875 65.1575L68.0672 21.3316C67.2915 17.4532 63.8009 14.7383 59.9225 14.7383H18.8115C14.9331 14.7383 11.4425 17.4532 10.6668 21.3316L1.74648 65.1575C0.970801 69.0359 0.583008 72.9143 0.583008 76.7927V88.0401C0.583008 95.4091 6.78845 101.615 14.1574 101.615H65.3523C72.7213 101.615 78.9267 95.4091 78.9267 88.0401V76.7927C78.151 72.9143 77.7632 69.0359 76.9875 65.1575ZM17.648 88.8158C14.5452 88.8158 12.2182 86.4888 12.2182 83.3861C12.2182 80.2833 14.5452 77.9563 17.648 77.9563C20.7507 77.9563 23.0777 80.2833 23.0777 83.3861C23.0777 86.4888 20.7507 88.8158 17.648 88.8158ZM51.0022 67.8724H27.344C24.6291 67.8724 22.302 65.9332 21.5264 63.2183L16.4844 37.233C15.3209 33.3546 18.4236 29.4762 22.302 29.4762H56.0441C60.3104 29.4762 63.0252 33.3546 61.8617 37.233L56.8198 63.2183C56.0442 65.9332 53.7171 67.8724 51.0022 67.8724ZM60.3104 88.8158C57.2077 88.8158 54.8806 86.4888 54.8806 83.3861C54.8806 80.2833 57.2077 77.9563 60.3104 77.9563C63.4131 77.9563 65.7401 80.2833 65.7401 83.3861C65.7401 86.4888 63.4131 88.8158 60.3104 88.8158Z" fill="#F8F9EE"/>
<path d="M78.1478 115.965V122.946H65.7369L53.7139 105.105H66.9004L78.1478 115.965Z" fill="#F8F9EE"/>
<path opacity="0.2" d="M77.7594 115.965H65.7363V122.946H77.7594V115.965Z" fill="#191C34"/>
<path d="M0.198242 115.965V122.946H12.6091L24.2443 105.105H11.0578L0.198242 115.965Z" fill="#F8F9EE"/>
<path opacity="0.2" d="M12.0231 116.043H0V123.024H12.0231V116.043Z" fill="#191C34"/>
</svg>
