<svg width="156" height="81" viewBox="0 0 156 81" fill="none" xmlns="http://www.w3.org/2000/svg">
<path d="M5.8176 68.0898C2.32704 68.0898 0 70.8047 0 73.9074C0 77.398 2.71488 79.7251 5.8176 79.7251H141.949C145.44 79.7251 147.767 77.0102 147.767 73.9074C147.767 70.4169 145.052 68.0898 141.949 68.0898H5.8176Z" fill="#F8F9EE"/>
<path opacity="0.2" d="M141.952 80.1129H75.2432V68.0898H141.952C145.054 68.0898 147.769 70.8047 147.769 73.9074V74.2953C147.769 77.398 145.442 80.1129 141.952 80.1129Z" fill="#191C34"/>
<path d="M146.991 0.605469H65.1568C60.5027 0.605469 56.2365 4.09605 55.073 8.75014L42.6621 64.2113H143.113L155.136 10.6893C155.911 5.64742 152.033 0.605469 146.991 0.605469ZM66.3203 18.4461H86.1002C88.4272 18.4461 90.7543 20.7732 89.9786 23.488C89.5908 25.4272 88.0394 26.5908 86.1002 26.5908H66.3203C63.9933 26.5908 62.0541 24.2637 62.4419 21.5488C62.8298 19.6096 64.3811 18.4461 66.3203 18.4461ZM97.7354 39.0017C97.3476 40.9409 95.7962 42.1044 93.857 42.1044H62.4419C60.1149 42.1044 58.1757 39.7773 58.5635 37.0625C58.9514 35.1233 60.5027 33.9598 62.4419 33.9598H93.857C96.184 33.9598 98.5111 36.2868 97.7354 39.0017Z" fill="#F8F9EE"/>
</svg>
