<svg width="123" height="126" viewBox="0 0 123 126" fill="none" xmlns="http://www.w3.org/2000/svg">
<path d="M109.833 69.5704L97.4222 66.4676L98.5857 62.2014C98.9736 60.2622 97.8101 57.9352 95.8708 57.5473L14.4244 36.9918C12.4852 36.604 10.1582 37.7675 9.77032 39.7067L0.0743108 78.8786C-0.313529 80.8178 0.849992 83.1448 2.78919 83.5326L5.50407 84.3083C2.40135 100.21 12.0974 116.111 28.3867 120.377L44.2881 124.256C60.1895 128.134 76.4788 119.214 81.1329 103.312L84.2356 104.088C86.1748 104.476 88.5019 103.312 88.8897 101.373L89.6654 98.2706L101.688 101.373C110.609 103.7 119.529 98.2705 121.856 89.3502C123.795 80.8177 118.753 71.8974 109.833 69.5704ZM45.0638 120.765L29.1623 116.887C15.5879 113.396 7.05544 99.8219 9.38248 85.8597L77.2545 102.925C72.9883 116.111 59.026 124.256 45.0638 120.765ZM85.0113 100.598L82.2964 99.8219L8.6068 81.2056L3.95271 80.0421L13.6487 40.8702L94.7073 61.4257L85.0113 100.598ZM102.464 98.2706C95.8708 96.7192 91.9924 90.5137 93.156 83.9205L93.5438 81.5934C95.8708 75.388 102.076 71.8974 108.67 73.4488C115.651 75.0001 119.529 81.9813 117.978 88.9624C116.426 95.5557 109.445 99.8219 102.464 98.2706Z" fill="#F8F9EE"/>
<path d="M96.6463 0.922948C94.3193 0.535108 94.3193 2.08649 93.9315 9.45545C93.5436 15.6609 99.7491 17.2122 101.3 12.5582C102.852 7.90407 98.9734 0.922948 96.6463 0.922948Z" fill="#F8F9EE"/>
<path d="M89.6616 9.45557C88.4981 9.45557 88.498 9.84341 88.498 13.334C88.498 16.0489 91.2129 16.8245 91.9886 14.4975C92.3765 12.5583 90.8251 9.45557 89.6616 9.45557Z" fill="#F8F9EE"/>
<path d="M45.0618 120.765L29.1603 116.887C15.5859 113.396 7.05345 99.8216 9.38049 85.8594L77.2525 102.924C72.9863 116.111 59.024 124.256 45.0618 120.765Z" fill="#F8F9EE"/>
<path opacity="0.2" d="M44.6777 120.766C58.64 124.256 72.6022 116.499 76.8685 102.925L53.9859 97.1074C60.1913 112.621 50.1075 118.826 44.6777 120.766Z" fill="#191C34"/>
<path d="M85.0129 100.598L82.298 99.8221L8.22049 81.5936L3.56641 80.4301L12.5 39.3682L95.5 59.8682L85.0129 100.598Z" fill="#F8F9EE"/>
<path opacity="0.2" d="M85.0109 100.598L66.3945 95.9442L76.4784 57.1602L94.7069 61.8143L85.0109 100.598Z" fill="#191C34"/>
<path d="M95.4829 54.0574C100.525 45.9128 107.506 26.1329 99.7491 19.9275C91.2167 13.3342 82.2963 28.0721 71.049 35.4411C68.7219 36.9924 66.3949 38.5438 64.4557 39.7073C61.7408 41.2587 58.6381 38.5438 59.8016 35.4411C62.1286 30.3991 66.007 24.9694 63.68 23.418C59.4138 20.3153 47.3907 32.7262 41.5731 35.4411C38.8582 36.6046 34.9798 37.3803 31.4893 37.7681L95.4829 54.0574Z" fill="#F8F9EE"/>
</svg>
