<svg width="161" height="113" viewBox="0 0 161 113" fill="none" xmlns="http://www.w3.org/2000/svg">
<path d="M153.252 37.2878L135.411 29.9189L122.224 24.4891L104.384 17.1202C98.954 14.7931 92.3607 17.508 90.0336 23.3256C88.8701 26.0405 88.8701 29.531 90.4215 32.2459L91.9728 35.3486L86.5431 38.4514C84.6039 39.6149 83.0525 41.5541 81.889 43.8811L79.6783 49.466L86.194 66.4922C87.4739 69.4786 87.4739 72.7364 86.2328 75.7228C84.9142 78.9031 82.3544 81.3853 79.019 82.7039L72.8523 85.1085L71.2622 85.8067L68.4697 86.8926C69.5945 89.4524 71.6888 91.5855 74.52 92.749L92.3607 99.7301L105.547 105.16L123.388 112.141C128.818 114.468 135.411 111.753 137.738 105.936L151.312 71.4178C152.088 69.0907 152.476 66.7637 151.7 64.4367L149.761 59.0069L153.252 57.8434C155.966 56.6799 158.294 54.3528 159.457 51.6379C161.784 46.2082 159.069 39.6149 153.252 37.2878Z" fill="#F8F9EE"/>
<path opacity="0.2" d="M68.4697 86.8924C69.5945 89.4522 71.6888 91.5853 74.52 92.7488L86.5043 97.4417L95.4634 88.4826C100.893 83.0528 102.445 74.9082 99.7296 67.5392L87.5127 37.9082L86.5431 38.4512C84.6039 39.6147 83.0525 41.5539 81.889 43.8809L79.6783 49.4658L86.194 66.492C87.4739 69.4784 87.4739 72.7363 86.2328 75.7226C84.9142 78.9029 82.3544 81.3851 79.019 82.7038L72.8523 85.1084L71.2622 85.8065L68.4697 86.8924Z" fill="#191C34"/>
<path d="M69.4788 19.0596L71.0302 15.9569C72.5815 13.242 72.5815 10.1393 71.418 7.03653C69.091 1.21893 62.8855 -1.49595 57.0679 0.83109L38.8394 7.81221L25.265 12.8541L7.03653 19.8353C1.21893 22.1623 -1.49595 28.3677 0.83109 34.1853C1.99461 36.9002 4.32165 39.2273 7.03653 40.3908L10.5271 41.5543L8.5879 47.7598C7.81221 50.0868 7.81221 52.4138 8.97574 54.7409L22.1623 89.6465C24.4893 95.4641 30.6948 98.179 36.5124 95.852L54.7409 88.8708L68.3153 83.8289L86.5438 76.8478C92.3614 74.5207 95.0763 68.3153 92.7492 62.4977L79.5627 27.5921C78.787 25.265 77.2356 23.3258 74.9086 22.1623L69.4788 19.0596Z" fill="#F8F9EE"/>
</svg>
