<svg width="118" height="165" viewBox="0 0 118 165" fill="none" xmlns="http://www.w3.org/2000/svg">
<path d="M113.443 56.3562L63.4119 29.9831L66.1268 28.4317C66.9024 28.0438 67.2903 26.8803 66.9024 25.7168C66.5146 24.9411 65.3511 24.5533 64.1876 24.9412L61.0848 26.4925V23.7776C61.0848 23.0019 61.4727 22.2263 62.2484 21.8384C68.066 20.2871 71.5565 14.0816 70.0052 8.26401C68.8416 4.38561 66.1268 1.28288 62.2484 0.507204C58.7578 -0.268476 55.2672 0.507204 52.5523 2.44641C49.8375 4.38561 48.2861 7.87618 48.2861 11.3667C48.2861 12.5303 49.0618 13.3059 50.2253 13.3059C51.3888 13.3059 52.1645 12.5303 52.1645 11.3667C52.1645 9.0397 53.328 7.1005 54.8794 5.54914C56.8186 3.99778 59.1456 3.60993 61.0848 4.38561C63.4119 5.16129 65.3511 7.1005 66.1268 9.42754C67.2903 13.6938 64.5754 17.1844 61.0848 18.3479C58.7578 19.1236 57.2064 21.4506 57.2064 23.7776V26.4925L54.1037 24.9412C53.328 24.5533 52.1645 24.9411 51.3888 25.7168C51.001 26.4925 51.3888 27.656 52.1645 28.4317L54.8794 29.9831L4.848 56.3562C0.969602 58.2954 -0.58176 62.5616 0.19392 66.44C0.969601 70.3184 4.848 73.4212 8.72641 73.4212H108.401C112.668 73.4212 116.158 70.7063 116.934 66.44C117.71 62.1738 116.934 58.2954 113.443 56.3562ZM113.831 65.6644C113.443 67.6036 111.892 69.5428 108.789 69.5428H9.11425C6.01152 69.5428 4.46016 67.6036 4.07232 65.6644C3.68448 63.7252 4.07232 61.3981 6.78721 59.8468L59.1456 31.9223L111.504 59.8468C114.219 61.0103 114.607 63.7252 113.831 65.6644Z" fill="#F8F9EE"/>
<path d="M72.3334 64.8892H33.5493C30.0588 64.8892 27.3439 66.8284 26.5682 69.9311L18.0357 104.837C16.8722 109.103 16.4844 113.757 16.4844 118.411V161.074C16.4844 163.013 18.0357 164.952 20.3628 164.952H64.5766C66.5158 164.952 68.455 163.401 68.455 161.074V73.8095C67.6793 70.3189 69.6185 66.8284 72.3334 64.8892Z" fill="#F8F9EE"/>
<path d="M71.9482 73.8089V133.536H78.9294V66.4399H78.5415C74.6631 67.2156 71.9482 70.3184 71.9482 73.8089Z" fill="#F8F9EE"/>
<path opacity="0.2" d="M71.9482 73.8093V85.0566L78.9294 89.3229V66.8281H78.5415C74.6631 67.216 71.9482 70.3187 71.9482 73.8093Z" fill="#191C34"/>
<path d="M81.6442 146.336V137.804C81.6442 137.416 81.2564 137.028 80.8686 137.028H71.9482V147.112H80.8686C81.2564 147.112 81.6442 146.724 81.6442 146.336Z" fill="#F8F9EE"/>
<path d="M70.3954 69.543C69.2319 70.7065 68.0684 71.87 68.0684 73.4214H89.0117V69.543H70.3954Z" fill="#F8F9EE"/>
</svg>
