<svg width="108" height="129" viewBox="0 0 108 129" fill="none" xmlns="http://www.w3.org/2000/svg">
<path d="M97.4263 65.8371H86.2765V74.4692C86.2765 76.9869 83.3991 78.4256 81.6007 76.6272L69.7316 65.8371H52.827C49.2303 65.8371 45.9933 62.9597 45.9933 59.0033V23.3959C45.9933 19.7992 48.8707 16.5621 52.827 16.5621H86.6361L85.9168 14.0444C84.1184 6.13164 77.2847 0.736572 69.0122 0.736572H18.6583C11.4648 0.736572 6.42944 7.21066 7.86813 14.4041L29.8081 110.796C31.6065 118.709 38.4402 124.104 46.7126 124.104H96.7069C103.9 124.104 108.936 117.63 107.497 110.796L97.4263 65.8371Z" fill="#F8F9EE"/>
<path d="M54.2668 9.72843H38.0816C37.0025 9.72843 36.2832 9.00908 36.2832 7.93007C36.2832 6.85106 37.0025 6.13171 38.0816 6.13171H54.2668C55.3458 6.13171 56.0651 6.85106 56.0651 7.93007C56.0651 8.64941 55.3458 9.72843 54.2668 9.72843Z" fill="#191C34"/>
<path d="M92.7469 51.4507H65.7715C63.6135 51.4507 62.1748 49.6524 62.1748 47.854V35.2655C62.1748 33.1075 63.9732 31.6688 65.7715 31.6688H92.7469C94.9049 31.6688 96.3436 33.4672 96.3436 35.2655V47.854C96.3436 49.6524 94.9049 51.4507 92.7469 51.4507Z" stroke="#F8F9EE" stroke-width="3.59671" stroke-miterlimit="10"/>
<path d="M99.2206 44.6173H98.1416V35.6255H99.2206C100.3 35.6255 101.019 36.3448 101.019 37.4238V43.1786C100.659 43.8979 99.9399 44.6173 99.2206 44.6173Z" fill="#F8F9EE"/>
<path d="M68.2905 34.9055H65.4131V48.2134H68.2905V34.9055Z" fill="#F8F9EE"/>
<path d="M46.3516 127.341C36.6405 127.341 28.3681 120.867 26.21 111.156L4.27007 14.764C3.55073 12.2463 3.91042 9.72864 4.62977 7.21094L4.27007 7.57061C1.03303 10.0883 -0.76532 14.4044 0.313694 18.7204L21.894 115.112C23.6923 123.025 30.5261 128.42 38.7985 128.42H88.7928C90.2315 128.42 91.3105 128.06 93.1089 127.341H46.3516Z" fill="#F8F9EE"/>
</svg>
