<svg width="8" height="16" viewBox="0 0 8 16" fill="none" xmlns="http://www.w3.org/2000/svg">
<path d="M1.73265 3.11494C1.73265 3.01578 1.74643 2.80161 1.77397 2.47381C1.80359 2.14532 1.92754 1.80168 2.14998 1.44082C2.37035 1.08135 2.72776 0.758368 3.22497 0.472576C3.72011 0.188162 4.43562 0.0449219 5.36944 0.0449219H8.0001V2.91179H6.07393C5.88317 2.91179 5.7055 2.98341 5.54504 3.12458C5.38597 3.26576 5.30402 3.40005 5.30402 3.52469V5.30831H7.99941C7.97117 5.65745 7.94018 5.99696 7.90437 6.32476L7.79763 7.19109C7.75494 7.48377 7.71155 7.7551 7.66885 8.00508H5.28473V15.9535H1.73265V8.00439H0V5.30831H1.73265V3.11494Z" fill="#191C34"/>
</svg>
