<svg width="16" height="16" viewBox="0 0 16 16" fill="none" xmlns="http://www.w3.org/2000/svg">
<path d="M11.3524 0H4.64758C2.08079 0 0 2.08079 0 4.64758V11.3524C0 13.9192 2.08079 16 4.64758 16H11.3524C13.9192 16 16 13.9192 16 11.3524V4.64758C16 2.08079 13.9192 0 11.3524 0Z" fill="#191C34"/>
<path d="M9.98748 13.1253H6.01278C4.28234 13.1253 2.87402 11.717 2.87402 9.98651V6.01181C2.87402 4.28136 4.28234 2.87305 6.01278 2.87305H9.98748C11.7179 2.87305 13.1262 4.28136 13.1262 6.01181V9.98651C13.1262 11.717 11.7179 13.1253 9.98748 13.1253ZM6.01278 3.63977C4.70563 3.63977 3.64074 4.70332 3.64074 6.01181V9.98651C3.64074 11.2937 4.7043 12.3585 6.01278 12.3585H9.98748C11.2946 12.3585 12.3595 11.295 12.3595 9.98651V6.01181C12.3595 4.70466 11.296 3.63977 9.98748 3.63977H6.01278Z" fill="white"/>
<path d="M7.99926 10.5942C6.56964 10.5942 5.40625 9.43082 5.40625 8.00121C5.40625 6.57159 6.56964 5.4082 7.99926 5.4082C9.42887 5.4082 10.5923 6.57159 10.5923 8.00121C10.5923 9.43082 9.42887 10.5942 7.99926 10.5942ZM7.99926 6.19356C7.00225 6.19356 6.19161 7.00421 6.19161 8.00121C6.19161 8.99821 7.00225 9.80886 7.99926 9.80886C8.99626 9.80886 9.8069 8.99821 9.8069 8.00121C9.8069 7.00421 8.99626 6.19356 7.99926 6.19356Z" fill="white"/>
<path d="M11.5499 5.12409C11.5499 5.4968 11.2478 5.79897 10.8751 5.79897C10.5024 5.79897 10.2002 5.4968 10.2002 5.12409C10.2002 4.75138 10.5024 4.44922 10.8751 4.44922C11.2478 4.44922 11.5499 4.75138 11.5499 5.12409Z" fill="white"/>
</svg>
