<?xml version="1.0" encoding="UTF-8"?>
<svg width="158" height="34" viewBox="0 0 158 34" xmlns="http://www.w3.org/2000/svg">
 <path d="m44.75 0.85324v15.83h10.694l1.2906-3.1345h-8.4814v-12.696h-3.5032zm23.574 9.219-2.1072-5.1363-2.1072 5.1363h4.2144zm-3.6612-9.1926h3.2134l6.7957 15.83h-3.6349l-1.4223-3.5559h-6.7167l-1.4487 3.5559h-3.5822l6.7957-15.83zm19.966 3.1871h-4.9782v-3.2134h13.433v3.2134h-4.9782v12.617h-3.4769v-12.617zm18.28 4.4778c0.711 0.05268 1.423-0.15804 1.976-0.60582 0.474-0.42144 0.711-1.0009 0.685-1.6331v-0.05268c0.052-0.63216-0.238-1.2643-0.738-1.6858-0.579-0.42144-1.291-0.60582-2.002-0.57948h-3.4503v4.5304h3.5293v0.02634zm-7.0061-7.6649h7.2431c2.002 0 3.556 0.5268 4.636 1.6067 0.922 0.97457 1.396 2.2652 1.343 3.6086v0.05268c0.053 1.1326-0.263 2.2389-0.921 3.1608-0.633 0.81649-1.475 1.4224-2.45 1.7648l3.872 5.663h-4.083l-3.424-5.1099h-2.7393v5.0573h-3.4768v-15.804zm23.627 12.88c0.658 0 1.317-0.1317 1.922-0.3951 0.58-0.237 1.08-0.6058 1.502-1.0536 0.421-0.4741 0.737-1.0009 0.974-1.5803 0.237-0.6059 0.343-1.2644 0.343-1.8965v-0.05268c0-0.65849-0.106-1.317-0.343-1.9228-0.974-2.4759-3.793-3.6876-6.268-2.713-0.027 0.02634-0.08 0.02634-0.106 0.05268-0.579 0.23706-1.08 0.60582-1.501 1.0536-0.422 0.44778-0.738 1.0009-0.975 1.5804-0.237 0.60582-0.369 1.2643-0.342 1.9228v0.05267c0 0.6585 0.105 1.317 0.342 1.9228 0.211 0.5794 0.553 1.1326 1.001 1.5803 0.896 0.9219 2.16 1.4751 3.451 1.4487zm-0.027 3.2135c-1.159 0-2.291-0.2107-3.371-0.6322-1.001-0.3951-1.897-1.0009-2.661-1.7384-0.763-0.7375-1.343-1.6067-1.738-2.5813-0.421-1.0009-0.632-2.0808-0.632-3.1608v-0.05268c0-1.0799 0.211-2.1862 0.632-3.1871 0.843-1.9755 2.423-3.5559 4.425-4.3724 1.08-0.44778 2.213-0.6585 3.372-0.6585s2.291 0.21072 3.371 0.6585c0.975 0.3951 1.897 1.0009 2.66 1.7384 0.738 0.73752 1.344 1.6067 1.739 2.5813 0.421 1.0009 0.632 2.0808 0.632 3.1871v0.05267c0 1.0799-0.211 2.1598-0.632 3.1872-0.422 0.9745-1.001 1.8701-1.765 2.6076-0.764 0.7639-1.659 1.3433-2.66 1.7648-1.054 0.3951-2.213 0.6058-3.372 0.6058zm18.201-3.3188c0.632 0.0263 1.264-0.1054 1.818-0.4215 0.447-0.2634 0.711-0.7638 0.684-1.2906v-0.0527c0.027-0.5004-0.21-0.9746-0.605-1.2643-0.58-0.3688-1.291-0.5268-1.976-0.4741h-4.03v3.4768l4.109 0.0264zm-0.922-6.4006c0.632 0.02634 1.265-0.10536 1.844-0.3951 0.448-0.2634 0.711-0.73751 0.685-1.2643v-0.02634c0.026-0.47412-0.185-0.92189-0.58-1.2116-0.5-0.31608-1.08-0.44777-1.685-0.42143h-3.451v3.3715l3.187-0.05268zm-6.611-6.3742h7.349c1.817 0 3.213 0.47412 4.135 1.396 0.711 0.71117 1.106 1.6857 1.08 2.6866v0.05268c0 0.3951-0.053 0.81654-0.184 1.1853-0.106 0.34242-0.264 0.6585-0.448 0.94824-0.185 0.2634-0.395 0.52679-0.632 0.73751s-0.501 0.3951-0.791 0.55314c0.817 0.28973 1.555 0.76385 2.16 1.4224 0.553 0.71115 0.843 1.5804 0.791 2.476v0.0527c0.026 0.6585-0.132 1.317-0.422 1.8964-0.29 0.5532-0.685 1.0273-1.185 1.3697-0.58 0.3688-1.212 0.6321-1.87 0.7902-0.791 0.1844-1.607 0.2897-2.424 0.2634h-7.533v-15.83h-0.026zm15.698-0.026337h11.932v3.1081h-8.481v3.2135h6.19v3.1081h-6.216v3.3188h8.586v3.0818h-12.037v-15.83h0.026z" fill="currentColor"/>
 <path d="m46.411 28.378v-6.1635h-1.8701v6.2162c0 3.0817 1.6331 4.7675 4.6358 4.7675 3.0028 0 4.6885-1.7121 4.6885-4.8465v-6.1372h-1.8701v6.2425c0 1.9755-1.0273 3.0818-2.792 3.0818-1.7648 0-2.8184-1.159-2.7921-3.1608zm11.721-6.1635v10.799h1.8438v-7.9283l6.0318 7.9283h1.6594v-10.799h-1.8174v7.6912l-5.8738-7.6912h-1.8438zm14.671 0h1.8701v10.799h-1.8701v-10.799zm7.8756 0h-2.0545l4.3724 10.799h1.7911l4.3724-10.799h-2.0018l-3.2135 8.6921-3.2661-8.6921zm13.776 6.1635h5.3997v-1.5804h-5.3997v-2.9764h6.1371v-1.5804h-7.9809v10.799h8.0599v-1.5803h-6.2161v-3.0818zm16.963 0.5795c1.396-0.4478 2.318-1.7648 2.239-3.2398 0.052-0.8956-0.264-1.7648-0.896-2.4233-0.685-0.6848-1.765-1.0536-3.108-1.0536h-4.899v10.799h1.87v-3.6612h2.476l2.449 3.6612h2.187l-2.687-3.9246 0.369-0.158zm-4.794-1.1853v-3.9246h2.845c1.448 0 2.317 0.7375 2.317 1.9754 0 1.238-0.895 1.9755-2.238 1.9755h-2.924v-0.0263zm15.514-0.9482c-1.844-0.4742-2.713-0.7376-2.713-1.8175 0-0.6848 0.553-1.3697 1.791-1.3697 1.054 0.0527 2.055 0.3951 2.897 1.0009l0.975-1.3696c-1.106-0.7902-2.45-1.2116-3.793-1.1853-2.212 0-3.687 1.2643-3.687 3.1344 0 1.9755 1.08 2.5813 3.555 3.2135 1.765 0.4478 2.555 0.8165 2.555 1.7647 0 0.7112-0.526 1.4487-1.975 1.4487-1.238-0.0263-2.423-0.4741-3.372-1.2643l-1.08 1.2907c1.238 1.0009 2.793 1.554 4.399 1.5277 2.397 0 3.872-1.238 3.872-3.2135 0-1.6857-0.922-2.5286-3.398-3.1607m7.455-4.6095h1.87v10.799h-1.87v-10.799zm9.482 10.826h1.87v-9.1399h3.477v-1.6594h-8.85v1.6594h3.477v9.1399h0.026zm16.594-10.826-2.976 4.8992-2.924-4.8992h-2.16l4.135 6.5059v4.2934h1.87v-4.3461l4.136-6.4532h-2.081z" fill="currentColor"/>
 <path d="m34.953 9.0706c-0.1054 0.18438-0.2371 0.34242-0.4214 0.44778 0.6584 0 0.4214-0.44778 0.4214-0.44778zm-11.985 17.885c0.079 0.158 0.2107 0.3161 0.3687 0.4214 0.3161 0.158 0.6059 0.3424 0.8693 0.5795 0.079 0.079 0.1843 0.2107 0.1317 0.237-0.0527 0.0264-0.1581 0-0.4215-0.237-0.2634-0.2371-0.3951-0.1054-0.4214 0.0527 0.0263 0.2634 0.0263 0.5268 0 0.8165-0.0527 0.2634-0.1844 0.3161-0.1581 0 0.0264-0.3161-0.158-1.0009-0.4477-0.9746-0.1844 0.0264-0.3688 0.1844-0.4215 0.3688-0.079 0.158-0.1843 0.2897-0.158 0.158 0-0.2107-0.0263-0.4477-0.1317-0.6585-0.158-0.3424-0.2107-0.3951-0.3951-0.4214s-0.2107-0.1844 0.1054-0.3161c0.316-0.1844 0.6848-0.1844 1.0009-0.0527m13.881-17.279c-0.1053-0.89555-0.5794-0.97457-1.0536-1.159-0.4741-0.18438-1.3169-0.42144-1.633-0.63216-0.3161-0.15804-0.6585-0.26339-1.0273-0.31607-0.3687-0.05268-1.3433-1e-5 -1.7647-0.07902-0.4478-0.07902-1.1063-0.21072-1.2643-0.10536-0.2371 0.47411-0.6849 0.84287-1.2117 0.94823-0.6585 0.21072-1.5013 0.42144-2.1072 0.57948 0-0.31608 0.0264-1.2643 0.8429-2.634 1.0009-1.6858 1.2907-2.2652 0.8429-2.6867-0.4478-0.44778-2.476 0.57947-2.476 0.57947 0.0264-0.15803 0.0527-0.31608 0.0527-0.50045 0.5795-0.34242 2.792-1.5804 3.7139-1.0799 1.0536 0.57947-0.237 2.2125-0.3424 2.3706-0.1053 0.15804-1.554 2.2916-1.8174 3.1608l0.6058-0.15804s1.317-2.1335 1.7911-2.6866c0.4478-0.55314 1.5277-2.1862 0.6585-2.8974-0.8429-0.71118-2.2126-0.42144-4.5568 1.0799 0.0263-0.76386-0.1317-1.9228-1.1853-2.3442-1.7384-0.6585-7.6912-0.18438-14.46 5.1889-1.8438 1.3433-3.5559 2.8447-5.1363 4.4778-2.3969 2.476-4.6358 5.0309-3.8983 5.426 0.79019 0.4214 2.8184-1.8438 3.0554-2.1072 0 0 2.1335 0.1317 4.7938-2.1598 1.0536 0.5794 2.3179 0.7111 3.4768 0.3951 0 0-0.7902 1.9754 1.5804 1.8174 0 0-0.2107 0.9746 0.6058 0.7902 0 0-4.6884 2.7393-4.6094 2.8447 0.079 0.1053 2.3969-0.9219 3.5295-1.475 0.6848-0.3425 1.0799-0.6849 1.6331-0.7639 1.8438-0.2107 3.6085-0.7638 5.2153-1.6857 2.7129-1.4751 3.5822-3.3979 3.7139-4.7939 0 0-0.6849 0.63216-0.8693 0.60582-0.1843-0.02634 0.1054-0.73752 0.1844-1.1853 0.079-0.44778 0.6058-2.2389 0.1054-2.0282-0.5005 0.21071-2.1072 1.7911-2.713 0.79019-0.4215-0.76385 0.7638-2.1599 0.7638-2.1599s-3.6875 2.0545-4.346 1.0009c-0.6058-0.9219 0.4214-1.6858 0.4214-1.6858-2.871 1.2116-5.6367 2.713-8.218 4.4514-4.1617 2.8184-6.664 6.2689-7.4805 6.4006-0.81653 0.1317 6.5323-8.6131 14.434-11.774 4.267-1.7121 7.1381-1.9228 8.297-1.396 0.6849 0.31608 0.6058 1.1853 0.6058 1.3697 0 0-0.6058 5.663 0.4215 7.059 0 0 0.8429-0.4741 1.5804-0.79018 0 0-0.3424 0-0.1581-0.31608 0.0791-0.15804 0.3688-0.2634 0.7639-0.36875 0.5268-0.15804 1.4487-0.23706 1.9228-0.60582s0.4214-0.50046 0.6848-0.57948c0.5005 0.07902 1.0009 0.1317 1.5014 0.10536 0.4214-0.07902 0.8692-0.07902 1.2906 0 0.6585 0.31608 1.317 0.57948 2.0019 0.7902 0.6321 0.10536 0.7111 0.15803 0.9219 0.52679 0.158 0.2634 0.237 0.57947 0.2634 0.89556h-0.0264c-0.4214-0.15805-0.8955-0.21073-1.3433-0.18439 0.237 0.02634 0.4741 0.13169 0.1317 0.21069-0.3424 0.0791-1.396 0.4215-1.396 0.4215 0.2634-0.2634 0.5531-0.5005 0.9219-0.63219h-1.2643c0.2634-0.23705 0.4214-0.55313 0.4741-0.89555 0.1053-0.02634 0.237-0.05268 0.3424-0.07902 0.3424-0.10536-0.0263-0.21071-0.7902-0.23705-0.4478-0.02634-0.8956-0.05268-1.3433-0.1317l-0.1844 0.31607c0.2107-0.07901 0.4478-0.1317 0.6848-0.10536 0 0.2634 0.1844 0.47412 0.4478 0.50046 0.1317 0.02634 0.2634 0 0.3688-0.05268-0.1317 0.42144-0.5795 0.65849-1.001 0.55314-0.2633-0.07902-0.5004-0.2634-0.6321-0.50046 0 0-0.4478 0.92194-0.8692 1.1326-0.4215 0.2107-2.6077 1.2116-3.5032 2.3179-0.8956 1.1062-1.2643 1.475-1.9492 1.6857-0.6848 0.2107-0.7638 0.2107-0.8692 0.2898-0.079 0.1053-0.8428 1.2643-3.1871 2.5286-0.7638 0.4214-1.0536 0.3951-1.1853 0.2634-0.2107-0.2107 0.0527-0.5532-0.079-0.5268-0.3424 0.0527-0.6848 0.158-0.9746 0.3424-0.7638 0.3161-1.2643 0.6058-1.8437 0.6585-0.5795 0.0527-1.08-0.1317-1.1063-0.9219 0 0-0.0264 0-0.4215 0.1317-0.395 0.1317-2.5813 1.1589-3.3978 1.1589-0.4214 0 0.3688-1.0009 0.3688-1.0009s-2.1072 1.2643-2.555 1.4487c-0.4478 0.2107-1.7384 0.7375-1.238-0.5794-2.3706 1.3696-4.8729 2.4759-7.5068 3.2661-1.4487 0.4478-1.7911 0.2634-1.7911 0.6058 0 0.158 0.15804 0.2371 0.3951 0.2371 0.47412 0.0263 0.92189 0.0263 1.396-0.0527 1.396-0.2107 2.7657-0.5268 4.1353-0.9483 2.0808-0.6585 2.6867-1.3696 4.1354-0.9745 1.8174 0.5004 2.7393-0.2634 2.7393-0.2634s0.2898 0.5004 1.396 0.4741c0 0 1.0273 0.7902 2.8974 0.4741 0.5795 0.2634 1.2116 0.3951 1.8438 0.3688 0.1054 0.5268 0.158 1.0799 0.1317 1.633-0.079 0.9219 0 1.159 0.5005 0.7112 0.237 0.6322 0.4214 1.2907 0.5794 1.9755 0.0264 0.3951 0.0264 0.6321 0.2371 0.6585 0.1053 0.0263 0.237 0.0263 0.3424 0 0.1317 0.2634 0.3688 0.4478 0.6585 0.5004 0 0 0.0527 0.1581-0.7375 0.4742-0.3951 0.158-0.7639 0.5268-0.6058 0.7111h0.6848c0.2897-0.2634 0.6848-0.316 1.0273-0.1317 0.2107 0.0791 0.316 0.3161 0.2634 0.5268-0.0264 0.079-0.0527 0.1317-0.1054 0.2107-0.0263 0.0527-0.079 0.1054-0.158 0.2371-0.0791 0.1054-0.2108 0.3951-0.1581 0.4478 0.0264 0.079 0.3424 0.5004-0.4214 0.6058 0 0 0.0263 0.158 0.2634 0.1317 0.237 0 0.8429-0.3951 0.8429-0.5795 0.1843-0.237 0.3424-0.5004 0.4741-0.7638 0.1843-0.4478 0.2107-0.5268 0.2634-0.4478 0.158 0.2897 0.2107 0.6321 0.1053 0.9482-0.1317 0.2898-0.237 0.3688-0.1317 0.5005 0.0527 0.0527 0.1054 0.079 0.1581 0.1317 0.0526 0.0527 0.079 0.158-0.1054 0.3424-0.3161 0.3161 0.5531-0.0527 0.6848-0.3688 0 0 0.2898-0.316 0.1581-1.5277 0 0 0-0.1317 0.1317-0.0263 0.2107 0.1317 0.3687 0.3424 0.4214 0.5795 0 0.2107-0.1053 0.4214 0.0527 0.5004s0.158 0.3161 0.1054 0.4478c-0.0527 0.158-0.3951 0.1844-0.3161 0.2107 0.3951 0.0527 0.7375-0.237 0.7902-0.6321v-0.0527c0.1053-0.8166-0.2898-1.6331-1.0273-2.0282-0.8429-0.5004-1.1062-0.7638-1.2379-3.8193 0.0263-1.0535 0.1843-2.1071 0.5004-3.1344 0.2897-1.0009 0.6058-1.5804 0.6322-1.4487 0.0263 0.2107-0.2371 0.9746-0.2634 1.3434 1.1062-0.5532 2.1598-1.1853 3.1607-1.8965 0.4215-0.3424 0.7902-0.7112 1.1063-1.1326 0.0263-0.0264 0.6322-0.6322 0.8692-2.2126l0.9219-1.8174s0.3688 0.6058 0.6848 0.237c0.3161-0.3687 0.9483-1.4223 1.0536-1.4486 0 0 0.1581 0.4741 0.3688 0.3424s0.3161-0.6585 0.8955-0.9219c0.5005-0.2107 1.0273-0.4214 1.5804-0.5795 0 0 2.2653-0.5531 2.3443-0.3951 0.0527 0.1844 0.079 0.3688 0.079 0.5531 0.2371-0.4477 0.3161-0.9218 0.2371-1.4223m-27.077 11.3c-0.60582-0.2371-1.5014 0-2.3706 0.3951-0.86922 0.3951-5.1099 1.8174-7.5068 1.6857 0 0 0.36876 0.5531 1.8438 0.7902 0 0-0.13169 0.8429 1.3433 0.5005 1.4487-0.3425 6.664-2.6604 7.7702-3.2662-0.3951 0.079-0.7639 0.0527-1.0799-0.1053zm3.7665 0.1843c-0.4741 0.0264-0.9482-0.1317-1.2906-0.4214l-5.1626 2.6603s-2.3706 1.1063-1.8965 1.396c0 0 0.73751 0.4215 2.3969-0.2107 1.6594-0.6321 6.2952-3.2134 6.2952-3.2134s-0.3161-0.2108-0.3425-0.2108zm2.1862 0.4742c-0.395 0.0263-0.8165-0.0527-1.1852-0.2108 0 0-2.7921 1.7648-3.3189 2.0545-0.5268 0.2898-1.3696 0.6322-0.4214 0.7639 0.9482 0.158 1.8965 0.0527 3.4505-1.2907 0.5268-0.395 1.0273-0.8428 1.475-1.3169zm9.8775 5.426c0.5531 0 1.7647 0.8165 1.7647 0.9218 0 0.1054-0.4477-0.1053-0.5794-0.158s-0.3161-0.079-0.1581 0.1317c0.1581 0.2371 0.2634 0.5005 0.3424 0.7902 0 0.1054-0.1053 0-0.1053 0-0.1581-0.3951-0.4478-0.7375-0.8166-0.9482-0.237-0.079-0.2897-0.0264-0.316 0.1317 0 0.158 0.079 0.4741-0.1054 0.0263-0.158-0.3688-0.4214-0.6585-0.7375-0.8955-0.1317-0.0791-0.079-0.1844-0.079-0.1844 0.079-0.0527 0.1844-0.079 0.2634-0.0527 0.1843-0.0263 0.3687 0.079 0.5268 0.2371zm-1.0273-6.743c-0.5531 0.2897-1.238 0.6058-1.238 0.6058-0.1843 0.9219-0.237 1.8438-0.1843 2.7657 0.079 2.3179 0.3424 2.9764 1.0799 3.3978 0.7112 0.3688 1.1853 1.0799 1.2643 1.8701 0 0.2898-0.0263 0.3688 0.0527 0.4741 0.1053 0.1054 0.079 0.1844-0.0264 0.3688-0.1053 0.2107-0.4214 0.2634-0.316 0.2634 0.2897 0.0527 0.5794-0.1054 0.6848-0.3951 0.1844-0.4214 0.3951-0.6322 0.0527-1.5014 0 0 0.4214-0.079 0.5531 0.6849 0.1054 0.4741-0.0527 0.6585 0.3424 0.7902 0 0 0.0527 0.1843-0.158 0.4214-0.2107 0.237 0.079 0.1317 0.2107 0.0527 0.2898-0.1844 0.4741-0.5268 0.4215-0.8956-0.0527-0.3951-0.2108-0.7902-0.4215-1.1326 0.1844 0.0527 0.3424 0.1844 0.4215 0.3424 0.158 0.2898 0.1316 0.4215 0.5267 0.4215 0.1054 0.1053 0.1844 0.237 0.1844 0.3951 0 0.2634-0.316 0.4477-0.2107 0.4214 0.1054-0.0263 0.8429-0.2897 0.2897-1.2116-0.079-0.2898-0.2634-0.5268-0.5268-0.6585-0.4214-0.2107-0.9482-0.8429-1.9228-1.0009-0.2107-0.2108-0.395-0.4742-0.5267-0.7376 0.0263-0.079 0.0526-0.158 0.079-0.237 0.0263-0.1054-0.6322-3.4505 0.9482-6.4533 0 0-1.0799 0.6322-1.6067 0.9219m-10.114 9.0082 1.1853 0.4742c-0.0263 0.4477 0.1844 0.8692 0.5268 1.1062-0.079 0.2107-0.2371 0.3951-0.4215 0.5268-0.079 0.0527-0.1316 0.079-0.1053 0.079 0.0263 0.0264 0.0527 0 0.1053-0.0263 1.1063-0.4214 1.238-1.475 1.1853-2.1862-0.0263-0.4214-0.2107-0.7902-0.5268-1.0799 0 0 1.8702 0.2634 2.555 0.1317s0-0.1581 0-0.1581c-1.4223 0-3.0027-0.5531-3.8193-0.2897-0.6848 0.237-1.1326 0.8692-1.1326 1.6067-0.1053 0.6585 0.1581 1.317 0.6849 1.7384 0.0526 0.0264 0.1053 0.1054 0.1053 0.0791 0 0-0.0527-0.0791-0.0527-0.1317-0.3687-0.5268-0.4477-1.2117-0.2897-1.8702zm19.65 1.4751c-0.7902 0.0526-1.5541 0-2.3443-0.1581l-0.158 0.1054c0.6585 0.237 1.3433 0.3424 2.0282 0.3424 0.2107 0.0263-0.0527 0.1317-0.0527 0.1317-1.1853 0.9746-3.1608 0.6848-6.0582 0.6848-2.8973 0-5.9264 0.8429-6.9273 1.0009-0.4215 0.0791-0.7375-0.2897-1.0273-0.4214-0.2107-0.1053-0.4478-0.2107-0.6585-0.2897 2.9501-0.6322 5.9792-1.0273 8.9819-1.1853 2.1862-0.1581 4.0563 0.158 4.2934-1.5014 0.079-0.4478 0-0.8692-0.2371-1.2643-0.2634-0.4478-0.6848-0.7902-1.1589-1.0009-0.0791-0.0263-0.1844-0.0263-0.2634 0-0.8166 0.2634-1.6858 0.4214-2.555 0.5005-0.237 0.0263-0.1054 0.1053-0.1054 0.1053 0.8429 0.0527 1.7121-0.0527 2.5287-0.3161 0.079-0.0263 0.158-0.0263 0.2107 0 0.5004 0.1581 0.8955 0.5795 1.0536 1.08 0.4741 1.2906-0.5532 1.6067-1.4224 1.6594-0.8692 0.0526-4.5304 0.4214-5.9264 0.5004s-5.0309 0.5795-6.4006 0.7902c-1.0272 0.1581-2.3179 0.2371-2.3179 0.2371-0.3424 0 0.2371 0.158 1.6067 0.3687 1.396 0.2108 1.7648 0.7639 2.3443 1.1063 0.3687 0.158 0.7902 0.1844 1.2116 0.1054 0.5795-0.0527 1.7911-0.4215 2.5813-0.5268 2.5813-0.3951 5.1889-0.5532 7.7702-0.4215 2.0019 0.0527 2.713-0.5004 3.3979-1.3433 0.316-0.3951-0.4215-0.2634-0.3951-0.2897z" fill="currentColor"/>
</svg>
