<svg width="16" height="16" viewBox="0 0 16 16" fill="none" xmlns="http://www.w3.org/2000/svg">
<path d="M0 1.9256C0 0.862144 0.862144 0 1.9256 0C2.98906 0 3.8512 0.862144 3.8512 1.9256C3.8512 2.98906 2.98906 3.8512 1.9256 3.8512C0.862144 3.8512 0 2.98906 0 1.9256Z" fill="#191C34"/>
<path d="M8.92779 6.82713C9.3698 5.99125 10.4376 5.1116 12.0438 5.1116C15.3917 5.1116 16 7.29103 16 10.1532V16H12.709V10.8184C12.709 9.58425 12.6871 8.01751 10.9934 8.01751C9.27352 8.01751 8.99781 9.36105 8.99781 10.7484V16H5.70678V5.35667H8.85777V6.82713H8.92779Z" fill="#191C34"/>
<path d="M0.315098 16V5.35667H3.64114V16H0.315098Z" fill="#191C34"/>
</svg>
