<svg width="221" height="33" viewBox="0 0 221 33" fill="none" xmlns="http://www.w3.org/2000/svg">
<path d="M3.92726 22.4147C3.75655 22.1535 3.58516 21.6709 3.43138 20.9997C3.2812 20.3443 3.15905 19.5619 3.06179 18.742C2.86915 17.118 2.77824 15.3824 2.75351 14.2702C2.8402 13.4276 3.0001 12.5032 3.74219 11.3965C4.50354 10.261 5.90187 8.89929 8.54633 7.26737C9.81958 6.48163 10.9592 6.16525 12.0026 6.13353C13.0499 6.1017 14.0336 6.35569 14.9955 6.76021C15.9121 7.1457 16.7874 7.65787 17.6768 8.17821C17.727 8.20758 17.7772 8.23698 17.8275 8.26638C18.755 8.80858 19.7058 9.35531 20.6796 9.70656C21.4632 9.98917 22.0722 10.5808 22.5449 11.3828C23.0194 12.1878 23.3403 13.1791 23.5504 14.2021C23.971 16.2499 23.927 18.3212 23.8685 19.0124C23.756 20.3421 23.482 20.9203 22.326 23.3093L22.292 23.3798L22.742 23.5975L22.292 23.3798C21.7529 24.4939 21.0504 25.1741 20.0121 25.786C19.2053 26.2615 18.2221 26.6826 16.9603 27.223C16.5426 27.4019 16.0944 27.5938 15.6119 27.8051C13.8712 28.5676 11.9741 28.2967 10.3288 27.729C9.07036 27.2948 8.0366 26.7197 7.35295 26.3394C7.13552 26.2184 6.9535 26.1171 6.81093 26.0464C6.39638 25.8406 5.96338 25.3984 5.47174 24.7351C5.1115 24.2491 4.74976 23.6877 4.35667 23.0778C4.21788 22.8624 4.07518 22.641 3.92726 22.4147Z" stroke="#F8F9EE"/>
<path d="M6.59163 19.2847C6.47635 18.9947 6.40446 18.4877 6.38739 17.7994C6.37071 17.1271 6.40678 16.3361 6.47471 15.5133C6.60926 13.8834 6.86574 12.1645 7.06296 11.0695C7.31567 10.2611 7.65641 9.38704 8.60399 8.45025C9.57616 7.48913 11.2176 6.43305 14.1341 5.36031C15.5382 4.84381 16.7181 4.76066 17.7469 4.93732C18.7795 5.11464 19.693 5.5594 20.5551 6.14734C21.3766 6.7076 22.1324 7.3838 22.9003 8.07079C22.9437 8.10957 22.9871 8.14838 23.0305 8.18721C23.8315 8.90322 24.6544 9.62829 25.5388 10.1664C26.2504 10.5994 26.7294 11.3004 27.0329 12.1804C27.3377 13.0638 27.4548 14.0992 27.4571 15.1435C27.4615 17.2341 27.006 19.2551 26.8111 19.9209C26.4361 21.2015 26.0524 21.7135 24.4439 23.8246L24.3965 23.8869L24.7942 24.1899L24.3965 23.8869C23.6464 24.8714 22.8225 25.3981 21.6832 25.791C20.7979 26.0964 19.7505 26.3133 18.4064 26.5916C17.9614 26.6837 17.484 26.7826 16.9691 26.8937C15.1114 27.2943 13.3062 26.6511 11.8069 25.7671C10.6601 25.0911 9.76158 24.3217 9.16733 23.8129C8.97833 23.651 8.82012 23.5156 8.69449 23.4178C8.32921 23.1337 7.99293 22.6141 7.64319 21.8662C7.38693 21.3181 7.14419 20.696 6.88042 20.02C6.78728 19.7813 6.69153 19.5359 6.59163 19.2847Z" stroke="#F8F9EE"/>
<path d="M43.1414 20.3125H41.9174L37.3214 13.3765V20.3125H36.1454V11.8045H37.7174L41.9654 18.3325V11.8045H43.1414V20.3125ZM52.1498 20.3125L51.2258 17.9365H47.4578L46.5578 20.3125H45.2978L48.6818 11.8045H50.0378L53.4218 20.3125H52.1498ZM49.3298 13.0285L47.8778 16.8445H50.8058L49.3298 13.0285ZM60.7038 12.8965H57.8598V20.3125H56.6838V12.8965H53.8398V11.8045H60.7038V12.8965ZM67.9974 19.6765C67.4294 20.2205 66.6974 20.4925 65.8014 20.4925C64.9054 20.4925 64.1694 20.2205 63.5934 19.6765C63.0254 19.1325 62.7414 18.3765 62.7414 17.4085V11.8045H63.9054V17.3725C63.9054 18.0205 64.0694 18.5205 64.3974 18.8725C64.7334 19.2245 65.2014 19.4005 65.8014 19.4005C66.4014 19.4005 66.8654 19.2245 67.1934 18.8725C67.5214 18.5205 67.6854 18.0205 67.6854 17.3725V11.8045L68.8614 11.8045V17.4085C68.8614 18.3765 68.5734 19.1325 67.9974 19.6765ZM76.2644 20.3125L74.3204 16.8325H73.0484V20.3125H71.8604V11.8045H75.0644C75.8484 11.8045 76.4764 12.0485 76.9484 12.5365C77.4284 13.0165 77.6684 13.6165 77.6684 14.3365C77.6684 14.9525 77.4844 15.4805 77.1164 15.9205C76.7484 16.3525 76.2444 16.6285 75.6044 16.7485L77.6324 20.3125H76.2644ZM73.0484 15.7765H74.8484C75.3284 15.7765 75.7164 15.6485 76.0124 15.3925C76.3084 15.1285 76.4564 14.7765 76.4564 14.3365C76.4564 13.8885 76.3084 13.5325 76.0124 13.2685C75.7164 12.9965 75.3284 12.8605 74.8484 12.8605H73.0484V15.7765ZM86.0835 20.3125L85.1595 17.9365H81.3915L80.4915 20.3125H79.2315L82.6155 11.8045H83.9715L87.3555 20.3125H86.0835ZM83.2635 13.0285L81.8115 16.8445H84.7395L83.2635 13.0285ZM94.7147 20.3125H89.5187V11.8045H90.6947V19.2085H94.7147V20.3125ZM104.697 20.4925C103.537 20.4925 102.541 20.0925 101.709 19.2925C100.885 18.4925 100.473 17.4125 100.473 16.0525C100.473 15.1405 100.681 14.3405 101.097 13.6525C101.513 12.9645 102.037 12.4565 102.669 12.1285C103.301 11.7925 103.977 11.6245 104.697 11.6245C105.657 11.6245 106.465 11.8685 107.121 12.3565C107.785 12.8365 108.225 13.4925 108.441 14.3245L107.349 14.7085C107.189 14.0685 106.881 13.5765 106.425 13.2325C105.969 12.8805 105.393 12.7045 104.697 12.7045C103.865 12.7045 103.153 13.0005 102.561 13.5925C101.969 14.1765 101.673 14.9965 101.673 16.0525C101.673 17.1085 101.969 17.9325 102.561 18.5245C103.153 19.1165 103.865 19.4125 104.697 19.4125C105.393 19.4125 105.973 19.2285 106.437 18.8605C106.901 18.4845 107.225 17.9885 107.409 17.3725L108.453 17.7565C108.221 18.5805 107.773 19.2445 107.109 19.7485C106.453 20.2445 105.649 20.4925 104.697 20.4925ZM116.631 20.3125L115.707 17.9365L111.939 17.9365L111.039 20.3125H109.779L113.163 11.8045H114.519L117.903 20.3125H116.631ZM113.811 13.0285L112.359 16.8445L115.287 16.8445L113.811 13.0285ZM121.242 15.7765H122.946C123.45 15.7765 123.85 15.6485 124.146 15.3925C124.442 15.1285 124.59 14.7765 124.59 14.3365C124.59 13.8885 124.442 13.5325 124.146 13.2685C123.85 12.9965 123.45 12.8605 122.946 12.8605H121.242V15.7765ZM123.162 16.8325H121.242V20.3125H120.066V11.8045H123.162C123.938 11.8045 124.57 12.0445 125.058 12.5245C125.546 13.0045 125.79 13.6045 125.79 14.3245C125.79 15.0525 125.546 15.6525 125.058 16.1245C124.57 16.5965 123.938 16.8325 123.162 16.8325ZM129.386 20.3125H128.186V11.8045H129.386V20.3125ZM138.413 12.8965H135.569V20.3125H134.393V12.8965H131.549V11.8045H138.413V12.8965ZM145.678 20.3125L144.754 17.9365H140.986L140.086 20.3125H138.826L142.21 11.8045H143.566L146.95 20.3125H145.678ZM142.858 13.0285L141.406 16.8445H144.334L142.858 13.0285ZM154.309 20.3125H149.113V11.8045H150.289V19.2085H154.309V20.3125ZM161.783 15.7765H163.487C163.991 15.7765 164.391 15.6485 164.687 15.3925C164.983 15.1285 165.131 14.7765 165.131 14.3365C165.131 13.8885 164.983 13.5325 164.687 13.2685C164.391 12.9965 163.991 12.8605 163.487 12.8605H161.783V15.7765ZM163.703 16.8325H161.783V20.3125H160.607V11.8045H163.703C164.479 11.8045 165.111 12.0445 165.599 12.5245C166.087 13.0045 166.331 13.6045 166.331 14.3245C166.331 15.0525 166.087 15.6525 165.599 16.1245C165.111 16.5965 164.479 16.8325 163.703 16.8325ZM173.131 20.3125L171.187 16.8325H169.915V20.3125H168.727V11.8045H171.931C172.715 11.8045 173.343 12.0485 173.815 12.5365C174.295 13.0165 174.535 13.6165 174.535 14.3365C174.535 14.9525 174.351 15.4805 173.983 15.9205C173.615 16.3525 173.111 16.6285 172.471 16.7485L174.499 20.3125H173.131ZM169.915 15.7765H171.715C172.195 15.7765 172.583 15.6485 172.879 15.3925C173.175 15.1285 173.323 14.7765 173.323 14.3365C173.323 13.8885 173.175 13.5325 172.879 13.2685C172.583 12.9965 172.195 12.8605 171.715 12.8605H169.915V15.7765ZM178.317 20.3125H177.117V11.8045H178.317V20.3125ZM190.632 20.3125H189.468V13.6885L186.564 20.3125H185.484L182.604 13.6885V20.3125H181.44V11.8045H183.036L186.036 18.7285L189.06 11.8045H190.632V20.3125ZM198.928 20.3125L193.756 20.3125V11.8045L198.928 11.8045V12.8965H194.932V15.5125H198.556V16.6165H194.932V19.2205H198.928V20.3125ZM206.092 20.3125L204.148 16.8325H202.876V20.3125H201.688V11.8045H204.892C205.676 11.8045 206.304 12.0485 206.776 12.5365C207.256 13.0165 207.496 13.6165 207.496 14.3365C207.496 14.9525 207.312 15.4805 206.944 15.9205C206.576 16.3525 206.072 16.6285 205.432 16.7485L207.46 20.3125H206.092ZM202.876 15.7765H204.676C205.156 15.7765 205.544 15.6485 205.84 15.3925C206.136 15.1285 206.284 14.7765 206.284 14.3365C206.284 13.8885 206.136 13.5325 205.84 13.2685C205.544 12.9965 205.156 12.8605 204.676 12.8605H202.876V15.7765Z" fill="#F8F9EE"/>
</svg>
