<svg width="221" height="34" viewBox="0 0 221 34" fill="none" xmlns="http://www.w3.org/2000/svg">
<g style="mix-blend-mode:multiply">
<path d="M4.34579 23.0156C4.22675 22.8335 4.07064 22.4255 3.91875 21.7626C3.77406 21.1311 3.65445 20.3681 3.55831 19.5577C3.36977 17.9683 3.27957 16.2664 3.2541 15.1649C3.33724 14.3724 3.48803 13.5478 4.15747 12.5495C4.86464 11.4948 6.19861 10.1782 8.80892 8.56738C10.0161 7.82242 11.0714 7.53658 12.0178 7.50782C12.972 7.47881 13.8828 7.70917 14.8017 8.09562C15.6869 8.46793 16.5359 8.96461 17.4331 9.48947C17.4803 9.51709 17.5277 9.54479 17.5752 9.57256C18.4975 10.1117 19.4864 10.6822 20.51 11.0514C21.1529 11.2833 21.6814 11.777 22.1141 12.5112C22.5506 13.2516 22.8568 14.1845 23.0607 15.1772C23.4692 17.1662 23.4259 19.1875 23.3703 19.8448C23.2668 21.068 23.0377 21.5651 21.876 23.9661L22.7761 24.4016L21.876 23.9661L21.8419 24.0365C21.3527 25.0475 20.7264 25.6592 19.7583 26.2298C18.9813 26.6877 18.0394 27.0911 16.7896 27.6264C16.3672 27.8074 15.9096 28.0034 15.4113 28.2217C13.8372 28.9112 12.0852 28.6806 10.4918 28.1308C9.2812 27.7131 8.31379 27.1752 7.62914 26.7945C7.39767 26.6658 7.19852 26.5551 7.03321 26.473C6.73157 26.3233 6.35759 25.9651 5.87343 25.3119C5.52371 24.84 5.17489 24.2988 4.78509 23.6939C4.64463 23.476 4.49885 23.2498 4.34579 23.0156Z" stroke="#47BDFF" stroke-width="2"/>
</g>
<g style="mix-blend-mode:multiply">
<path d="M8.05625 18.974C7.97586 18.7718 7.9041 18.3409 7.88723 17.661C7.87117 17.0134 7.90587 16.2418 7.97302 15.4284C8.1047 13.8333 8.35514 12.1476 8.54949 11.0631C8.78876 10.3029 9.1007 9.52493 9.95551 8.67984C10.8585 7.78712 12.4279 6.76248 15.3067 5.70359C16.638 5.2139 17.7291 5.14389 18.6622 5.30413C19.6031 5.46569 20.4498 5.87277 21.2733 6.43444C22.0668 6.97554 22.7999 7.63132 23.5746 8.32431C23.6154 8.36078 23.6563 8.39735 23.6973 8.43401C24.4938 9.14599 25.3493 9.90198 26.2789 10.4676C26.8628 10.8228 27.2824 11.4118 27.5603 12.2175C27.8406 13.03 27.9549 14.0052 27.9571 15.0186C27.9614 17.0492 27.5166 19.0214 27.3312 19.6544C26.9862 20.8325 26.6627 21.274 25.0462 23.3956L25.8416 24.0017L25.0462 23.3956L24.9988 23.4579C24.3181 24.3512 23.5826 24.826 22.5202 25.1924C21.6677 25.4864 20.6642 25.6943 19.3329 25.97C18.8829 26.0633 18.3955 26.1642 17.8637 26.2789C16.1838 26.6412 14.5128 26.0664 13.0608 25.2104C11.9576 24.56 11.1166 23.8403 10.5215 23.3309C10.3203 23.1587 10.1472 23.0105 10.0015 22.8972C9.7357 22.6904 9.44053 22.2649 9.09612 21.5284C8.84734 20.9964 8.61327 20.3965 8.3517 19.7262C8.25744 19.4846 8.15962 19.2339 8.05625 18.974Z" stroke="#CFE44F" stroke-width="2"/>
</g>
<path d="M36.1888 20.9667V13.1729C36.1888 13.0571 36.293 12.9645 36.4088 12.9645H36.6983L41.7243 18.778H41.7359V13.3003C41.7359 13.1845 41.8285 13.0803 41.9559 13.0803H42.6971C42.8129 13.0803 42.9171 13.1845 42.9171 13.3003V21.0941C42.9171 21.2099 42.8129 21.3026 42.6971 21.3026H42.396L37.37 15.3269H37.3584V20.9667C37.3584 21.0825 37.2658 21.1868 37.1384 21.1868H36.4088C36.293 21.1868 36.1888 21.0825 36.1888 20.9667ZM45.203 21.1868C45.0293 21.1868 44.9367 21.0362 45.0062 20.8857L48.5614 13.0919C48.5962 13.0224 48.7004 12.9645 48.7583 12.9645H48.8741C48.932 12.9645 49.0363 13.0224 49.071 13.0919L52.6031 20.8857C52.6726 21.0362 52.5799 21.1868 52.4062 21.1868H51.6766C51.5377 21.1868 51.4566 21.1173 51.4103 21.0131L50.6923 19.4265H46.9054C46.6738 19.9592 46.4306 20.4803 46.199 21.0131C46.1642 21.0941 46.0716 21.1868 45.9326 21.1868H45.203ZM47.3571 18.4306H50.2522L48.8278 15.2575H48.7699L47.3571 18.4306ZM55.3709 20.9667V14.1689H53.4832C53.3558 14.1689 53.2632 14.0647 53.2632 13.9488V13.3003C53.2632 13.1845 53.3558 13.0803 53.4832 13.0803H58.4629C58.5903 13.0803 58.683 13.1845 58.683 13.3003V13.9488C58.683 14.0647 58.5903 14.1689 58.4629 14.1689H56.5753V20.9667C56.5753 21.0825 56.471 21.1868 56.3552 21.1868H55.5909C55.4751 21.1868 55.3709 21.0825 55.3709 20.9667ZM60.7586 18.1642V13.3003C60.7586 13.1845 60.8628 13.0803 60.9786 13.0803H61.7545C61.8819 13.0803 61.9746 13.1845 61.9746 13.3003V18.0831C61.9746 19.2412 62.7157 20.1445 63.897 20.1445C65.0898 20.1445 65.8425 19.2528 65.8425 18.1063V13.3003C65.8425 13.1845 65.9352 13.0803 66.0626 13.0803H66.8385C66.9543 13.0803 67.0585 13.1845 67.0585 13.3003V18.1642C67.0585 19.9245 65.7267 21.3026 63.897 21.3026C62.0788 21.3026 60.7586 19.9245 60.7586 18.1642ZM70.1242 20.9667V13.3003C70.1242 13.1845 70.2169 13.0803 70.3442 13.0803H73.4942C74.8839 13.0803 76.0188 14.1805 76.0188 15.5586C76.0188 16.624 75.3124 17.5041 74.3048 17.9094L75.8914 20.8509C75.9725 21.0015 75.8914 21.1868 75.6945 21.1868H74.7912C74.6986 21.1868 74.6291 21.1289 74.6059 21.0825L73.0657 18.0137H71.317V20.9667C71.317 21.0825 71.2128 21.1868 71.097 21.1868H70.3442C70.2169 21.1868 70.1242 21.0825 70.1242 20.9667ZM71.3402 17.0177H73.4015C74.1543 17.0177 74.8144 16.3808 74.8144 15.5817C74.8144 14.829 74.1543 14.2036 73.4015 14.2036H71.3402V17.0177ZM77.8606 21.1868C77.6868 21.1868 77.5942 21.0362 77.6637 20.8857L81.219 13.0919C81.2537 13.0224 81.3579 12.9645 81.4158 12.9645H81.5316C81.5895 12.9645 81.6938 13.0224 81.7285 13.0919L85.2606 20.8857C85.3301 21.0362 85.2374 21.1868 85.0637 21.1868H84.3342C84.1952 21.1868 84.1141 21.1173 84.0678 21.0131L83.3498 19.4265H79.5629C79.3313 19.9592 79.0881 20.4803 78.8565 21.0131C78.8218 21.0941 78.7291 21.1868 78.5901 21.1868H77.8606ZM80.0146 18.4306H82.9097L81.4853 15.2575H81.4274L80.0146 18.4306ZM87.3464 20.9667V13.3003C87.3464 13.1845 87.439 13.0803 87.5664 13.0803H88.3308C88.4466 13.0803 88.5508 13.1845 88.5508 13.3003V20.1098H91.6892C91.8165 20.1098 91.9092 20.214 91.9092 20.3298V20.9667C91.9092 21.0825 91.8165 21.1868 91.6892 21.1868H87.5664C87.439 21.1868 87.3464 21.0825 87.3464 20.9667ZM96.9323 17.1451C96.9323 14.829 98.7968 12.9645 101.113 12.9645C102.283 12.9645 103.128 13.3582 103.915 14.0415C104.02 14.1341 104.02 14.2731 103.927 14.3657L103.417 14.8869C103.336 14.9911 103.232 14.9911 103.128 14.8869C102.584 14.4121 101.843 14.111 101.125 14.111C99.4685 14.111 98.2178 15.5007 98.2178 17.1219C98.2178 18.7432 99.48 20.1213 101.136 20.1213C101.981 20.1213 102.572 19.7855 103.128 19.357C103.232 19.276 103.336 19.2875 103.406 19.3454L103.939 19.8666C104.031 19.9476 104.008 20.0982 103.927 20.1792C103.14 20.9436 102.144 21.3026 101.113 21.3026C98.7968 21.3026 96.9323 19.4612 96.9323 17.1451ZM105.621 21.1868C105.447 21.1868 105.355 21.0362 105.424 20.8857L108.98 13.0919C109.014 13.0224 109.119 12.9645 109.176 12.9645H109.292C109.35 12.9645 109.454 13.0224 109.489 13.0919L113.021 20.8857C113.091 21.0362 112.998 21.1868 112.824 21.1868H112.095C111.956 21.1868 111.875 21.1173 111.828 21.0131L111.11 19.4265H107.324C107.092 19.9592 106.849 20.4803 106.617 21.0131C106.582 21.0941 106.49 21.1868 106.351 21.1868H105.621ZM107.775 18.4306H110.67L109.246 15.2575H109.188L107.775 18.4306ZM115.107 20.9667V13.3003C115.107 13.1845 115.2 13.0803 115.327 13.0803H117.967C119.392 13.0803 120.561 14.2384 120.561 15.6396C120.561 17.0756 119.392 18.2453 117.979 18.2453H116.3V20.9667C116.3 21.0825 116.196 21.1868 116.08 21.1868H115.327C115.2 21.1868 115.107 21.0825 115.107 20.9667ZM116.3 17.1104H117.898C118.697 17.1104 119.369 16.4619 119.369 15.628C119.369 14.8406 118.697 14.2384 117.898 14.2384H116.3V17.1104ZM122.909 20.9667V13.3003C122.909 13.1845 123.014 13.0803 123.13 13.0803H123.894C124.01 13.0803 124.114 13.1845 124.114 13.3003V20.9667C124.114 21.0825 124.01 21.1868 123.894 21.1868H123.13C123.014 21.1868 122.909 21.0825 122.909 20.9667ZM128.397 20.9667V14.1689L126.509 14.1689C126.382 14.1689 126.289 14.0647 126.289 13.9488V13.3003C126.289 13.1845 126.382 13.0803 126.509 13.0803L131.489 13.0803C131.616 13.0803 131.709 13.1845 131.709 13.3003V13.9488C131.709 14.0647 131.616 14.1689 131.489 14.1689H129.601V20.9667C129.601 21.0825 129.497 21.1868 129.381 21.1868H128.617C128.501 21.1868 128.397 21.0825 128.397 20.9667ZM132.556 21.1868C132.382 21.1868 132.29 21.0362 132.359 20.8857L135.915 13.0919C135.949 13.0224 136.054 12.9645 136.111 12.9645H136.227C136.285 12.9645 136.389 13.0224 136.424 13.0919L139.956 20.8857C140.026 21.0362 139.933 21.1868 139.759 21.1868H139.03C138.891 21.1868 138.81 21.1173 138.763 21.0131L138.045 19.4265H134.259C134.027 19.9592 133.784 20.4803 133.552 21.0131C133.517 21.0941 133.425 21.1868 133.286 21.1868H132.556ZM134.71 18.4306H137.605L136.181 15.2575H136.123L134.71 18.4306ZM142.042 20.9667V13.3003C142.042 13.1845 142.135 13.0803 142.262 13.0803H143.026C143.142 13.0803 143.246 13.1845 143.246 13.3003V20.1098H146.385C146.512 20.1098 146.605 20.214 146.605 20.3298V20.9667C146.605 21.0825 146.512 21.1868 146.385 21.1868H142.262C142.135 21.1868 142.042 21.0825 142.042 20.9667ZM152.219 20.9667V13.3003C152.219 13.1845 152.311 13.0803 152.439 13.0803H155.079C156.503 13.0803 157.673 14.2384 157.673 15.6396C157.673 17.0756 156.503 18.2453 155.091 18.2453H153.411V20.9667C153.411 21.0825 153.307 21.1868 153.191 21.1868H152.439C152.311 21.1868 152.219 21.0825 152.219 20.9667ZM153.411 17.1104H155.009C155.809 17.1104 156.48 16.4619 156.48 15.628C156.48 14.8406 155.809 14.2384 155.009 14.2384H153.411V17.1104ZM160.021 20.9667V13.3003C160.021 13.1845 160.114 13.0803 160.241 13.0803H163.391C164.781 13.0803 165.916 14.1805 165.916 15.5586C165.916 16.624 165.209 17.5041 164.202 17.9094L165.788 20.8509C165.869 21.0015 165.788 21.1868 165.591 21.1868H164.688C164.595 21.1868 164.526 21.1289 164.503 21.0825L162.963 18.0137H161.214V20.9667C161.214 21.0825 161.11 21.1868 160.994 21.1868H160.241C160.114 21.1868 160.021 21.0825 160.021 20.9667ZM161.237 17.0177H163.298C164.051 17.0177 164.711 16.3808 164.711 15.5817C164.711 14.829 164.051 14.2036 163.298 14.2036H161.237V17.0177ZM168.649 20.9667V13.3003C168.649 13.1845 168.753 13.0803 168.869 13.0803H169.633C169.749 13.0803 169.853 13.1845 169.853 13.3003V20.9667C169.853 21.0825 169.749 21.1868 169.633 21.1868H168.869C168.753 21.1868 168.649 21.0825 168.649 20.9667ZM172.469 20.9204L173.905 13.1382C173.928 13.0456 174.021 12.9645 174.113 12.9645H174.299C174.368 12.9645 174.472 13.0224 174.496 13.0919L176.916 19.0096H176.962L179.371 13.0919C179.394 13.0224 179.487 12.9645 179.568 12.9645H179.753C179.846 12.9645 179.939 13.0456 179.962 13.1382L181.386 20.9204C181.421 21.0825 181.34 21.1868 181.178 21.1868H180.425C180.321 21.1868 180.228 21.1057 180.205 21.0246L179.348 15.8481C179.336 15.8481 179.313 15.8481 179.313 15.8481L177.229 21.1752C177.205 21.2447 177.136 21.3026 177.032 21.3026H176.823C176.731 21.3026 176.65 21.2447 176.626 21.1752L174.53 15.8481C174.519 15.8481 174.496 15.8481 174.484 15.8481L173.65 21.0246C173.639 21.1057 173.534 21.1868 173.442 21.1868H172.689C172.527 21.1868 172.446 21.0825 172.469 20.9204ZM184.017 20.9667V13.3003C184.017 13.1845 184.109 13.0803 184.237 13.0803H188.869C188.996 13.0803 189.089 13.1845 189.089 13.3003V13.9488C189.089 14.0647 188.996 14.1689 188.869 14.1689H185.209V16.5313H188.301C188.417 16.5313 188.521 16.6356 188.521 16.7514V17.3999C188.521 17.5273 188.417 17.6199 188.301 17.6199H185.209V20.1098H188.869C188.996 20.1098 189.089 20.214 189.089 20.3298V20.9667C189.089 21.0825 188.996 21.1868 188.869 21.1868H184.237C184.109 21.1868 184.017 21.0825 184.017 20.9667ZM191.762 20.9667V13.3003C191.762 13.1845 191.855 13.0803 191.983 13.0803H195.132C196.522 13.0803 197.657 14.1805 197.657 15.5586C197.657 16.624 196.951 17.5041 195.943 17.9094L197.53 20.8509C197.611 21.0015 197.53 21.1868 197.333 21.1868H196.429C196.337 21.1868 196.267 21.1289 196.244 21.0825L194.704 18.0137H192.955V20.9667C192.955 21.0825 192.851 21.1868 192.735 21.1868H191.983C191.855 21.1868 191.762 21.0825 191.762 20.9667ZM192.978 17.0177H195.04C195.793 17.0177 196.453 16.3808 196.453 15.5817C196.453 14.829 195.793 14.2036 195.04 14.2036H192.978V17.0177Z" fill="#191C34"/>
</svg>
