<svg width="221" height="34" viewBox="0 0 221 34" fill="none" xmlns="http://www.w3.org/2000/svg">
<g style="mix-blend-mode:multiply">
<path d="M4.34555 23.0156C4.22651 22.8335 4.07039 22.4255 3.9185 21.7626C3.77382 21.1311 3.6542 20.3681 3.55807 19.5577C3.36953 17.9683 3.27932 16.2664 3.25385 15.1649C3.33699 14.3724 3.48778 13.5478 4.15723 12.5495C4.8644 11.4948 6.19837 10.1782 8.80867 8.56738C10.0158 7.82242 11.0711 7.53658 12.0175 7.50782C12.9717 7.47881 13.8825 7.70917 14.8014 8.09562C15.6867 8.46793 16.5357 8.96461 17.4329 9.48947C17.4801 9.51709 17.5274 9.54479 17.5749 9.57256C18.4972 10.1117 19.4862 10.6822 20.5098 11.0514C21.1527 11.2833 21.6811 11.777 22.1139 12.5112C22.5503 13.2516 22.8565 14.1845 23.0604 15.1772C23.4689 17.1662 23.4257 19.1875 23.3701 19.8448C23.2666 21.068 23.0374 21.5651 21.8757 23.9661L22.7759 24.4016L21.8757 23.9661L21.8416 24.0365C21.3525 25.0475 20.7262 25.6592 19.758 26.2298C18.9811 26.6877 18.0391 27.0911 16.7894 27.6264C16.3669 27.8074 15.9093 28.0034 15.411 28.2217C13.8369 28.9112 12.0849 28.6806 10.4916 28.1308C9.28095 27.7131 8.31355 27.1752 7.6289 26.7945C7.39743 26.6658 7.19828 26.5551 7.03297 26.473C6.73132 26.3233 6.35734 25.9651 5.87318 25.3119C5.52347 24.84 5.17464 24.2988 4.78484 23.6939C4.64438 23.476 4.49861 23.2498 4.34555 23.0156Z" stroke="currentColor" stroke-width="2"/>
</g>
<g style="mix-blend-mode:multiply">
<path d="M8.05625 18.974C7.97586 18.7718 7.9041 18.3409 7.88723 17.661C7.87117 17.0134 7.90587 16.2418 7.97302 15.4284C8.1047 13.8333 8.35514 12.1476 8.54949 11.0631C8.78876 10.3029 9.1007 9.52493 9.95551 8.67984C10.8585 7.78712 12.4279 6.76248 15.3067 5.70359C16.638 5.2139 17.7291 5.14389 18.6622 5.30413C19.6031 5.46569 20.4498 5.87277 21.2733 6.43444C22.0668 6.97554 22.7999 7.63132 23.5746 8.32431C23.6154 8.36078 23.6563 8.39735 23.6973 8.43401C24.4938 9.14599 25.3493 9.90198 26.2789 10.4676C26.8628 10.8228 27.2824 11.4118 27.5603 12.2175C27.8406 13.03 27.9549 14.0052 27.9571 15.0186C27.9614 17.0492 27.5166 19.0214 27.3312 19.6544C26.9862 20.8325 26.6627 21.274 25.0462 23.3956L25.8416 24.0017L25.0462 23.3956L24.9988 23.4579C24.3181 24.3512 23.5826 24.826 22.5202 25.1924C21.6677 25.4864 20.6642 25.6943 19.3329 25.97C18.8829 26.0633 18.3955 26.1642 17.8637 26.2789C16.1838 26.6412 14.5128 26.0664 13.0608 25.2104C11.9576 24.56 11.1166 23.8403 10.5215 23.3309C10.3203 23.1587 10.1472 23.0105 10.0015 22.8972C9.7357 22.6904 9.44053 22.2649 9.09612 21.5284C8.84734 20.9964 8.61327 20.3965 8.3517 19.7262C8.25744 19.4846 8.15962 19.2339 8.05625 18.974Z" stroke="currentColor" stroke-width="2"/>
</g>
<path d="M36.1891 20.967V13.1732C36.1891 13.0574 36.2933 12.9647 36.4092 12.9647H36.6987L41.7247 18.7782H41.7363V13.3006C41.7363 13.1848 41.8289 13.0805 41.9563 13.0805H42.6975C42.8133 13.0805 42.9175 13.1848 42.9175 13.3006V21.0944C42.9175 21.2102 42.8133 21.3028 42.6975 21.3028H42.3964L37.3704 15.3272H37.3588V20.967C37.3588 21.0828 37.2661 21.187 37.1387 21.187H36.4092C36.2933 21.187 36.1891 21.0828 36.1891 20.967ZM45.2034 21.187C45.0297 21.187 44.9371 21.0365 45.0065 20.8859L48.5618 13.0921C48.5966 13.0226 48.7008 12.9647 48.7587 12.9647H48.8745C48.9324 12.9647 49.0366 13.0226 49.0714 13.0921L52.6035 20.8859C52.6729 21.0365 52.5803 21.187 52.4066 21.187H51.677C51.538 21.187 51.457 21.1175 51.4107 21.0133L50.6927 19.4267H46.9058C46.6742 19.9595 46.431 20.4806 46.1994 21.0133C46.1646 21.0944 46.072 21.187 45.933 21.187H45.2034ZM47.3574 18.4308H50.2526L48.8282 15.2577H48.7703L47.3574 18.4308ZM55.3712 20.967V14.1691H53.4836C53.3562 14.1691 53.2636 14.0649 53.2636 13.9491V13.3006C53.2636 13.1848 53.3562 13.0805 53.4836 13.0805H58.4633C58.5907 13.0805 58.6833 13.1848 58.6833 13.3006V13.9491C58.6833 14.0649 58.5907 14.1691 58.4633 14.1691H56.5756V20.967C56.5756 21.0828 56.4714 21.187 56.3556 21.187H55.5913C55.4755 21.187 55.3712 21.0828 55.3712 20.967ZM60.759 18.1645V13.3006C60.759 13.1848 60.8632 13.0805 60.979 13.0805H61.7549C61.8823 13.0805 61.9749 13.1848 61.9749 13.3006V18.0834C61.9749 19.2415 62.7161 20.1448 63.8973 20.1448C65.0901 20.1448 65.8429 19.253 65.8429 18.1066V13.3006C65.8429 13.1848 65.9355 13.0805 66.0629 13.0805H66.8388C66.9546 13.0805 67.0589 13.1848 67.0589 13.3006V18.1645C67.0589 19.9247 65.7271 21.3028 63.8973 21.3028C62.0792 21.3028 60.759 19.9247 60.759 18.1645ZM70.1246 20.967V13.3006C70.1246 13.1848 70.2172 13.0805 70.3446 13.0805H73.4946C74.8842 13.0805 76.0191 14.1807 76.0191 15.5588C76.0191 16.6242 75.3127 17.5044 74.3052 17.9097L75.8918 20.8512C75.9728 21.0017 75.8918 21.187 75.6949 21.187H74.7916C74.6989 21.187 74.6295 21.1291 74.6063 21.0828L73.0661 18.0139H71.3174V20.967C71.3174 21.0828 71.2132 21.187 71.0974 21.187H70.3446C70.2172 21.187 70.1246 21.0828 70.1246 20.967ZM71.3405 17.018H73.4019C74.1547 17.018 74.8148 16.381 74.8148 15.582C74.8148 14.8292 74.1547 14.2039 73.4019 14.2039H71.3405V17.018ZM77.8609 21.187C77.6872 21.187 77.5946 21.0365 77.664 20.8859L81.2193 13.0921C81.2541 13.0226 81.3583 12.9647 81.4162 12.9647H81.532C81.5899 12.9647 81.6941 13.0226 81.7289 13.0921L85.261 20.8859C85.3305 21.0365 85.2378 21.187 85.0641 21.187H84.3345C84.1956 21.187 84.1145 21.1175 84.0682 21.0133L83.3502 19.4267H79.5633C79.3317 19.9595 79.0885 20.4806 78.8569 21.0133C78.8221 21.0944 78.7295 21.187 78.5905 21.187H77.8609ZM80.0149 18.4308H82.9101L81.4857 15.2577H81.4278L80.0149 18.4308ZM87.3468 20.967V13.3006C87.3468 13.1848 87.4394 13.0805 87.5668 13.0805H88.3311C88.4469 13.0805 88.5512 13.1848 88.5512 13.3006V20.11H91.6895C91.8169 20.11 91.9096 20.2142 91.9096 20.33V20.967C91.9096 21.0828 91.8169 21.187 91.6895 21.187H87.5668C87.4394 21.187 87.3468 21.0828 87.3468 20.967ZM96.9327 17.1454C96.9327 14.8292 98.7972 12.9647 101.113 12.9647C102.283 12.9647 103.128 13.3585 103.916 14.0417C104.02 14.1344 104.02 14.2733 103.927 14.366L103.418 14.8871C103.337 14.9913 103.233 14.9913 103.128 14.8871C102.584 14.4123 101.843 14.1112 101.125 14.1112C99.4688 14.1112 98.2181 15.5009 98.2181 17.1222C98.2181 18.7435 99.4804 20.1216 101.136 20.1216C101.982 20.1216 102.572 19.7857 103.128 19.3573C103.233 19.2762 103.337 19.2878 103.406 19.3457L103.939 19.8668C104.032 19.9479 104.008 20.0984 103.927 20.1795C103.14 20.9438 102.144 21.3028 101.113 21.3028C98.7972 21.3028 96.9327 19.4615 96.9327 17.1454ZM105.622 21.187C105.448 21.187 105.355 21.0365 105.425 20.8859L108.98 13.0921C109.015 13.0226 109.119 12.9647 109.177 12.9647H109.293C109.35 12.9647 109.455 13.0226 109.489 13.0921L113.022 20.8859C113.091 21.0365 112.998 21.187 112.825 21.187H112.095C111.956 21.187 111.875 21.1175 111.829 21.0133L111.111 19.4267H107.324C107.092 19.9595 106.849 20.4806 106.617 21.0133C106.583 21.0944 106.49 21.187 106.351 21.187H105.622ZM107.776 18.4308H110.671L109.246 15.2577H109.188L107.776 18.4308ZM115.107 20.967V13.3006C115.107 13.1848 115.2 13.0805 115.327 13.0805H117.968C119.392 13.0805 120.562 14.2386 120.562 15.6399C120.562 17.0759 119.392 18.2455 117.979 18.2455H116.3V20.967C116.3 21.0828 116.196 21.187 116.08 21.187H115.327C115.2 21.187 115.107 21.0828 115.107 20.967ZM116.3 17.1106H117.898C118.697 17.1106 119.369 16.4621 119.369 15.6283C119.369 14.8408 118.697 14.2386 117.898 14.2386H116.3V17.1106ZM122.91 20.967V13.3006C122.91 13.1848 123.014 13.0805 123.13 13.0805H123.894C124.01 13.0805 124.114 13.1848 124.114 13.3006V20.967C124.114 21.0828 124.01 21.187 123.894 21.187H123.13C123.014 21.187 122.91 21.0828 122.91 20.967ZM128.397 20.967V14.1691L126.51 14.1691C126.382 14.1691 126.29 14.0649 126.29 13.9491V13.3006C126.29 13.1848 126.382 13.0805 126.51 13.0805L131.489 13.0805C131.617 13.0805 131.709 13.1848 131.709 13.3006V13.9491C131.709 14.0649 131.617 14.1691 131.489 14.1691H129.602V20.967C129.602 21.0828 129.498 21.187 129.382 21.187H128.617C128.502 21.187 128.397 21.0828 128.397 20.967ZM132.557 21.187C132.383 21.187 132.29 21.0365 132.36 20.8859L135.915 13.0921C135.95 13.0226 136.054 12.9647 136.112 12.9647H136.228C136.286 12.9647 136.39 13.0226 136.424 13.0921L139.957 20.8859C140.026 21.0365 139.933 21.187 139.76 21.187H139.03C138.891 21.187 138.81 21.1175 138.764 21.0133L138.046 19.4267H134.259C134.027 19.9595 133.784 20.4806 133.552 21.0133C133.518 21.0944 133.425 21.187 133.286 21.187H132.557ZM134.711 18.4308H137.606L136.181 15.2577H136.123L134.711 18.4308ZM142.042 20.967V13.3006C142.042 13.1848 142.135 13.0805 142.262 13.0805H143.027C143.143 13.0805 143.247 13.1848 143.247 13.3006V20.11H146.385C146.513 20.11 146.605 20.2142 146.605 20.33V20.967C146.605 21.0828 146.513 21.187 146.385 21.187H142.262C142.135 21.187 142.042 21.0828 142.042 20.967ZM152.219 20.967V13.3006C152.219 13.1848 152.312 13.0805 152.439 13.0805H155.079C156.504 13.0805 157.673 14.2386 157.673 15.6399C157.673 17.0759 156.504 18.2455 155.091 18.2455H153.412V20.967C153.412 21.0828 153.307 21.187 153.192 21.187H152.439C152.312 21.187 152.219 21.0828 152.219 20.967ZM153.412 17.1106H155.01C155.809 17.1106 156.481 16.4621 156.481 15.6283C156.481 14.8408 155.809 14.2386 155.01 14.2386H153.412V17.1106ZM160.021 20.967V13.3006C160.021 13.1848 160.114 13.0805 160.241 13.0805H163.391C164.781 13.0805 165.916 14.1807 165.916 15.5588C165.916 16.6242 165.21 17.5044 164.202 17.9097L165.789 20.8512C165.87 21.0017 165.789 21.187 165.592 21.187H164.688C164.596 21.187 164.526 21.1291 164.503 21.0828L162.963 18.0139H161.214V20.967C161.214 21.0828 161.11 21.187 160.994 21.187H160.241C160.114 21.187 160.021 21.0828 160.021 20.967ZM161.237 17.018H163.299C164.051 17.018 164.712 16.381 164.712 15.582C164.712 14.8292 164.051 14.2039 163.299 14.2039H161.237V17.018ZM168.649 20.967V13.3006C168.649 13.1848 168.754 13.0805 168.869 13.0805H169.634C169.75 13.0805 169.854 13.1848 169.854 13.3006V20.967C169.854 21.0828 169.75 21.187 169.634 21.187H168.869C168.754 21.187 168.649 21.0828 168.649 20.967ZM172.469 20.9207L173.905 13.1384C173.929 13.0458 174.021 12.9647 174.114 12.9647H174.299C174.369 12.9647 174.473 13.0226 174.496 13.0921L176.916 19.0098H176.963L179.371 13.0921C179.395 13.0226 179.487 12.9647 179.568 12.9647H179.754C179.846 12.9647 179.939 13.0458 179.962 13.1384L181.386 20.9207C181.421 21.0828 181.34 21.187 181.178 21.187H180.425C180.321 21.187 180.228 21.1059 180.205 21.0249L179.348 15.8483C179.337 15.8483 179.314 15.8483 179.314 15.8483L177.229 21.1754C177.206 21.2449 177.136 21.3028 177.032 21.3028H176.824C176.731 21.3028 176.65 21.2449 176.627 21.1754L174.531 15.8483C174.519 15.8483 174.496 15.8483 174.484 15.8483L173.651 21.0249C173.639 21.1059 173.535 21.187 173.442 21.187H172.689C172.527 21.187 172.446 21.0828 172.469 20.9207ZM184.017 20.967V13.3006C184.017 13.1848 184.11 13.0805 184.237 13.0805H188.869C188.997 13.0805 189.089 13.1848 189.089 13.3006V13.9491C189.089 14.0649 188.997 14.1691 188.869 14.1691H185.21V16.5316H188.302C188.418 16.5316 188.522 16.6358 188.522 16.7516V17.4001C188.522 17.5275 188.418 17.6202 188.302 17.6202H185.21V20.11H188.869C188.997 20.11 189.089 20.2142 189.089 20.33V20.967C189.089 21.0828 188.997 21.187 188.869 21.187H184.237C184.11 21.187 184.017 21.0828 184.017 20.967ZM191.763 20.967V13.3006C191.763 13.1848 191.855 13.0805 191.983 13.0805H195.133C196.523 13.0805 197.657 14.1807 197.657 15.5588C197.657 16.6242 196.951 17.5044 195.943 17.9097L197.53 20.8512C197.611 21.0017 197.53 21.187 197.333 21.187H196.43C196.337 21.187 196.268 21.1291 196.245 21.0828L194.704 18.0139H192.956V20.967C192.956 21.0828 192.851 21.187 192.736 21.187H191.983C191.855 21.187 191.763 21.0828 191.763 20.967ZM192.979 17.018H195.04C195.793 17.018 196.453 16.381 196.453 15.582C196.453 14.8292 195.793 14.2039 195.04 14.2039H192.979V17.018Z" fill="currentColor"/>
</svg>
