<svg width="221" height="33" viewBox="0 0 221 33" fill="none" xmlns="http://www.w3.org/2000/svg">
<g>
<path d="M7.59163 18.2847C7.47635 17.9947 7.40446 17.4877 7.38739 16.7994C7.37071 16.1271 7.40678 15.3361 7.47471 14.5133C7.60926 12.8834 7.86574 11.1645 8.06296 10.0695C8.31567 9.26109 8.65641 8.38704 9.60399 7.45025C10.5762 6.48913 12.2176 5.43305 15.1341 4.36031C16.5382 3.84381 17.7181 3.76066 18.7469 3.93732C19.7795 4.11464 20.693 4.5594 21.5551 5.14734C22.3766 5.7076 23.1324 6.3838 23.9003 7.07079C23.9437 7.10957 23.9871 7.14838 24.0305 7.18721C24.8315 7.90322 25.6544 8.62829 26.5388 9.16641C27.2504 9.59936 27.7294 10.3004 28.0329 11.1804C28.3377 12.0638 28.4548 13.0992 28.4571 14.1435C28.4615 16.2341 28.006 18.2551 27.8111 18.9209C27.4361 20.2015 27.0524 20.7135 25.4439 22.8246L25.3965 22.8869L25.7942 23.1899L25.3965 22.8869C24.6464 23.8714 23.8225 24.3981 22.6832 24.791C21.7979 25.0964 20.7505 25.3133 19.4064 25.5916C18.9614 25.6837 18.484 25.7826 17.9691 25.8937C16.1114 26.2943 14.3062 25.6511 12.8069 24.7671C11.6601 24.0911 10.7616 23.3217 10.1673 22.8129C9.97833 22.651 9.82012 22.5156 9.69449 22.4178C9.32921 22.1337 8.99293 21.6141 8.64319 20.8662C8.38693 20.3181 8.14419 19.696 7.88042 19.02C7.78728 18.7813 7.69153 18.5359 7.59163 18.2847Z" stroke="#F8F9EE"/>
</g>
<g>
<path d="M3.92726 22.4147C3.75655 22.1535 3.58516 21.6709 3.43138 20.9997C3.2812 20.3443 3.15905 19.5619 3.06179 18.742C2.86915 17.118 2.77824 15.3824 2.75351 14.2702C2.8402 13.4276 3.0001 12.5032 3.74219 11.3965C4.50354 10.261 5.90187 8.89929 8.54633 7.26737C9.81958 6.48163 10.9592 6.16525 12.0026 6.13353C13.0499 6.1017 14.0336 6.35569 14.9955 6.76021C15.9121 7.1457 16.7874 7.65787 17.6768 8.17821C17.727 8.20758 17.7772 8.23698 17.8275 8.26638C18.755 8.80858 19.7058 9.35531 20.6796 9.70656C21.4632 9.98917 22.0722 10.5808 22.5449 11.3828C23.0194 12.1878 23.3403 13.1791 23.5504 14.2021C23.971 16.2499 23.927 18.3212 23.8685 19.0124C23.756 20.3421 23.482 20.9203 22.326 23.3093L22.292 23.3798L22.742 23.5975L22.292 23.3798C21.7529 24.4939 21.0504 25.1741 20.0121 25.786C19.2053 26.2615 18.2221 26.6826 16.9603 27.223C16.5426 27.4019 16.0944 27.5938 15.6119 27.8051C13.8712 28.5676 11.9741 28.2967 10.3288 27.729C9.07036 27.2948 8.0366 26.7197 7.35295 26.3394C7.13552 26.2184 6.9535 26.1171 6.81093 26.0464C6.39638 25.8406 5.96338 25.3984 5.47174 24.7351C5.1115 24.2491 4.74976 23.6877 4.35667 23.0778C4.21788 22.8624 4.07518 22.641 3.92726 22.4147Z" stroke="#F8F9EE"/>
</g>
<g>
<path d="M3.92726 22.4147C3.75655 22.1535 3.58516 21.6709 3.43138 20.9997C3.2812 20.3443 3.15905 19.5619 3.06179 18.742C2.86915 17.118 2.77824 15.3824 2.75351 14.2702C2.8402 13.4276 3.0001 12.5032 3.74219 11.3965C4.50354 10.261 5.90187 8.89929 8.54633 7.26737C9.81958 6.48163 10.9592 6.16525 12.0026 6.13353C13.0499 6.1017 14.0336 6.35569 14.9955 6.76021C15.9121 7.1457 16.7874 7.65787 17.6768 8.17821C17.727 8.20758 17.7772 8.23698 17.8275 8.26638C18.755 8.80858 19.7058 9.35531 20.6796 9.70656C21.4632 9.98917 22.0722 10.5808 22.5449 11.3828C23.0194 12.1878 23.3403 13.1791 23.5504 14.2021C23.971 16.2499 23.927 18.3212 23.8685 19.0124C23.756 20.3421 23.482 20.9203 22.326 23.3093L22.292 23.3798L22.742 23.5975L22.292 23.3798C21.7529 24.4939 21.0504 25.1741 20.0121 25.786C19.2053 26.2615 18.2221 26.6826 16.9603 27.223C16.5426 27.4019 16.0944 27.5938 15.6119 27.8051C13.8712 28.5676 11.9741 28.2967 10.3288 27.729C9.07036 27.2948 8.0366 26.7197 7.35295 26.3394C7.13552 26.2184 6.9535 26.1171 6.81093 26.0464C6.39638 25.8406 5.96338 25.3984 5.47174 24.7351C5.1115 24.2491 4.74976 23.6877 4.35667 23.0778C4.21788 22.8624 4.07518 22.641 3.92726 22.4147Z" stroke="#47BDFF"/>
</g>
<g>
<path d="M7.59163 18.2847C7.47635 17.9947 7.40446 17.4877 7.38739 16.7994C7.37071 16.1271 7.40678 15.3361 7.47471 14.5133C7.60926 12.8834 7.86574 11.1645 8.06296 10.0695C8.31567 9.26109 8.65641 8.38704 9.60399 7.45025C10.5762 6.48913 12.2176 5.43305 15.1341 4.36031C16.5382 3.84381 17.7181 3.76066 18.7469 3.93732C19.7795 4.11464 20.693 4.5594 21.5551 5.14734C22.3766 5.7076 23.1324 6.3838 23.9003 7.07079C23.9437 7.10957 23.9871 7.14838 24.0305 7.18721C24.8315 7.90322 25.6544 8.62829 26.5388 9.16641C27.2504 9.59936 27.7294 10.3004 28.0329 11.1804C28.3377 12.0638 28.4548 13.0992 28.4571 14.1435C28.4615 16.2341 28.006 18.2551 27.8111 18.9209C27.4361 20.2015 27.0524 20.7135 25.4439 22.8246L25.3965 22.8869L25.7942 23.1899L25.3965 22.8869C24.6464 23.8714 23.8225 24.3981 22.6832 24.791C21.7979 25.0964 20.7505 25.3133 19.4064 25.5916C18.9614 25.6837 18.484 25.7826 17.9691 25.8937C16.1114 26.2943 14.3062 25.6511 12.8069 24.7671C11.6601 24.0911 10.7616 23.3217 10.1673 22.8129C9.97833 22.651 9.82012 22.5156 9.69449 22.4178C9.32921 22.1337 8.99293 21.6141 8.64319 20.8662C8.38693 20.3181 8.14419 19.696 7.88042 19.02C7.78728 18.7813 7.69153 18.5359 7.59163 18.2847Z" stroke="#CFE44F"/>
</g>
<path d="M36.1888 20.0925V12.2987C36.1888 12.1829 36.293 12.0902 36.4088 12.0902H36.6983L41.7243 17.9037H41.7359V12.4261C41.7359 12.3103 41.8285 12.206 41.9559 12.206H42.6971C42.8129 12.206 42.9171 12.3103 42.9171 12.4261V20.2199C42.9171 20.3357 42.8129 20.4283 42.6971 20.4283H42.396L37.37 14.4527H37.3584V20.0925C37.3584 20.2083 37.2658 20.3125 37.1384 20.3125H36.4088C36.293 20.3125 36.1888 20.2083 36.1888 20.0925ZM45.203 20.3125C45.0293 20.3125 44.9367 20.162 45.0062 20.0114L48.5614 12.2176C48.5962 12.1481 48.7004 12.0902 48.7583 12.0902H48.8741C48.932 12.0902 49.0363 12.1481 49.071 12.2176L52.6031 20.0114C52.6726 20.162 52.5799 20.3125 52.4062 20.3125H51.6766C51.5377 20.3125 51.4566 20.243 51.4103 20.1388L50.6923 18.5522H46.9054C46.6738 19.0849 46.4306 19.6061 46.199 20.1388C46.1642 20.2199 46.0716 20.3125 45.9326 20.3125H45.203ZM47.3571 17.5563H50.2522L48.8278 14.3832H48.7699L47.3571 17.5563ZM55.3709 20.0925V13.2946H53.4832C53.3558 13.2946 53.2632 13.1904 53.2632 13.0746V12.4261C53.2632 12.3103 53.3558 12.206 53.4832 12.206H58.4629C58.5903 12.206 58.683 12.3103 58.683 12.4261V13.0746C58.683 13.1904 58.5903 13.2946 58.4629 13.2946H56.5753V20.0925C56.5753 20.2083 56.471 20.3125 56.3552 20.3125H55.5909C55.4751 20.3125 55.3709 20.2083 55.3709 20.0925ZM60.7586 17.2899V12.4261C60.7586 12.3103 60.8628 12.206 60.9786 12.206H61.7545C61.8819 12.206 61.9746 12.3103 61.9746 12.4261V17.2089C61.9746 18.3669 62.7157 19.2702 63.897 19.2702C65.0898 19.2702 65.8425 18.3785 65.8425 17.232V12.4261C65.8425 12.3103 65.9352 12.206 66.0626 12.206H66.8385C66.9543 12.206 67.0585 12.3103 67.0585 12.4261V17.2899C67.0585 19.0502 65.7267 20.4283 63.897 20.4283C62.0788 20.4283 60.7586 19.0502 60.7586 17.2899ZM70.1242 20.0925V12.4261C70.1242 12.3103 70.2169 12.206 70.3442 12.206H73.4942C74.8839 12.206 76.0188 13.3062 76.0188 14.6843C76.0188 15.7497 75.3124 16.6298 74.3048 17.0352L75.8914 19.9767C75.9725 20.1272 75.8914 20.3125 75.6945 20.3125H74.7912C74.6986 20.3125 74.6291 20.2546 74.6059 20.2083L73.0657 17.1394H71.317V20.0925C71.317 20.2083 71.2128 20.3125 71.097 20.3125H70.3442C70.2169 20.3125 70.1242 20.2083 70.1242 20.0925ZM71.3402 16.1435H73.4015C74.1543 16.1435 74.8144 15.5065 74.8144 14.7075C74.8144 13.9547 74.1543 13.3294 73.4015 13.3294H71.3402V16.1435ZM77.8606 20.3125C77.6868 20.3125 77.5942 20.162 77.6637 20.0114L81.219 12.2176C81.2537 12.1481 81.3579 12.0902 81.4158 12.0902H81.5316C81.5895 12.0902 81.6938 12.1481 81.7285 12.2176L85.2606 20.0114C85.3301 20.162 85.2374 20.3125 85.0637 20.3125H84.3342C84.1952 20.3125 84.1141 20.243 84.0678 20.1388L83.3498 18.5522H79.5629C79.3313 19.0849 79.0881 19.6061 78.8565 20.1388C78.8218 20.2199 78.7291 20.3125 78.5901 20.3125H77.8606ZM80.0146 17.5563H82.9097L81.4853 14.3832H81.4274L80.0146 17.5563ZM87.3464 20.0925V12.4261C87.3464 12.3103 87.439 12.206 87.5664 12.206H88.3308C88.4466 12.206 88.5508 12.3103 88.5508 12.4261V19.2355H91.6892C91.8165 19.2355 91.9092 19.3397 91.9092 19.4555V20.0925C91.9092 20.2083 91.8165 20.3125 91.6892 20.3125H87.5664C87.439 20.3125 87.3464 20.2083 87.3464 20.0925ZM96.9323 16.2708C96.9323 13.9547 98.7968 12.0902 101.113 12.0902C102.283 12.0902 103.128 12.484 103.915 13.1672C104.02 13.2599 104.02 13.3988 103.927 13.4915L103.417 14.0126C103.336 14.1168 103.232 14.1168 103.128 14.0126C102.584 13.5378 101.843 13.2367 101.125 13.2367C99.4685 13.2367 98.2178 14.6264 98.2178 16.2477C98.2178 17.869 99.48 19.2471 101.136 19.2471C101.981 19.2471 102.572 18.9112 103.128 18.4828C103.232 18.4017 103.336 18.4133 103.406 18.4712L103.939 18.9923C104.031 19.0734 104.008 19.2239 103.927 19.305C103.14 20.0693 102.144 20.4283 101.113 20.4283C98.7968 20.4283 96.9323 18.587 96.9323 16.2708ZM105.621 20.3125C105.447 20.3125 105.355 20.162 105.424 20.0114L108.98 12.2176C109.014 12.1481 109.119 12.0902 109.176 12.0902H109.292C109.35 12.0902 109.454 12.1481 109.489 12.2176L113.021 20.0114C113.091 20.162 112.998 20.3125 112.824 20.3125H112.095C111.956 20.3125 111.875 20.243 111.828 20.1388L111.11 18.5522H107.324C107.092 19.0849 106.849 19.6061 106.617 20.1388C106.582 20.2199 106.49 20.3125 106.351 20.3125H105.621ZM107.775 17.5563H110.67L109.246 14.3832H109.188L107.775 17.5563ZM115.107 20.0925V12.4261C115.107 12.3103 115.2 12.206 115.327 12.206H117.967C119.392 12.206 120.561 13.3641 120.561 14.7654C120.561 16.2014 119.392 17.371 117.979 17.371H116.3V20.0925C116.3 20.2083 116.196 20.3125 116.08 20.3125H115.327C115.2 20.3125 115.107 20.2083 115.107 20.0925ZM116.3 16.2361H117.898C118.697 16.2361 119.369 15.5876 119.369 14.7538C119.369 13.9663 118.697 13.3641 117.898 13.3641H116.3V16.2361ZM122.909 20.0925V12.4261C122.909 12.3103 123.014 12.206 123.13 12.206H123.894C124.01 12.206 124.114 12.3103 124.114 12.4261V20.0925C124.114 20.2083 124.01 20.3125 123.894 20.3125H123.13C123.014 20.3125 122.909 20.2083 122.909 20.0925ZM128.397 20.0925V13.2946L126.509 13.2946C126.382 13.2946 126.289 13.1904 126.289 13.0746V12.4261C126.289 12.3103 126.382 12.206 126.509 12.206L131.489 12.206C131.616 12.206 131.709 12.3103 131.709 12.4261V13.0746C131.709 13.1904 131.616 13.2946 131.489 13.2946H129.601V20.0925C129.601 20.2083 129.497 20.3125 129.381 20.3125H128.617C128.501 20.3125 128.397 20.2083 128.397 20.0925ZM132.556 20.3125C132.382 20.3125 132.29 20.162 132.359 20.0114L135.915 12.2176C135.949 12.1481 136.054 12.0902 136.111 12.0902H136.227C136.285 12.0902 136.389 12.1481 136.424 12.2176L139.956 20.0114C140.026 20.162 139.933 20.3125 139.759 20.3125H139.03C138.891 20.3125 138.81 20.243 138.763 20.1388L138.045 18.5522H134.259C134.027 19.0849 133.784 19.6061 133.552 20.1388C133.517 20.2199 133.425 20.3125 133.286 20.3125H132.556ZM134.71 17.5563H137.605L136.181 14.3832H136.123L134.71 17.5563ZM142.042 20.0925V12.4261C142.042 12.3103 142.135 12.206 142.262 12.206H143.026C143.142 12.206 143.246 12.3103 143.246 12.4261V19.2355H146.385C146.512 19.2355 146.605 19.3397 146.605 19.4555V20.0925C146.605 20.2083 146.512 20.3125 146.385 20.3125H142.262C142.135 20.3125 142.042 20.2083 142.042 20.0925ZM152.219 20.0925V12.4261C152.219 12.3103 152.311 12.206 152.439 12.206H155.079C156.503 12.206 157.673 13.3641 157.673 14.7654C157.673 16.2014 156.503 17.371 155.091 17.371H153.411V20.0925C153.411 20.2083 153.307 20.3125 153.191 20.3125H152.439C152.311 20.3125 152.219 20.2083 152.219 20.0925ZM153.411 16.2361H155.009C155.809 16.2361 156.48 15.5876 156.48 14.7538C156.48 13.9663 155.809 13.3641 155.009 13.3641H153.411V16.2361ZM160.021 20.0925V12.4261C160.021 12.3103 160.114 12.206 160.241 12.206H163.391C164.781 12.206 165.916 13.3062 165.916 14.6843C165.916 15.7497 165.209 16.6298 164.202 17.0352L165.788 19.9767C165.869 20.1272 165.788 20.3125 165.591 20.3125H164.688C164.595 20.3125 164.526 20.2546 164.503 20.2083L162.963 17.1394H161.214V20.0925C161.214 20.2083 161.11 20.3125 160.994 20.3125H160.241C160.114 20.3125 160.021 20.2083 160.021 20.0925ZM161.237 16.1435H163.298C164.051 16.1435 164.711 15.5065 164.711 14.7075C164.711 13.9547 164.051 13.3294 163.298 13.3294H161.237V16.1435ZM168.649 20.0925V12.4261C168.649 12.3103 168.753 12.206 168.869 12.206H169.633C169.749 12.206 169.853 12.3103 169.853 12.4261V20.0925C169.853 20.2083 169.749 20.3125 169.633 20.3125H168.869C168.753 20.3125 168.649 20.2083 168.649 20.0925ZM172.469 20.0461L173.905 12.2639C173.928 12.1713 174.021 12.0902 174.113 12.0902H174.299C174.368 12.0902 174.472 12.1481 174.496 12.2176L176.916 18.1353H176.962L179.371 12.2176C179.394 12.1481 179.487 12.0902 179.568 12.0902H179.753C179.846 12.0902 179.939 12.1713 179.962 12.2639L181.386 20.0461C181.421 20.2083 181.34 20.3125 181.178 20.3125H180.425C180.321 20.3125 180.228 20.2314 180.205 20.1504L179.348 14.9738C179.336 14.9738 179.313 14.9738 179.313 14.9738L177.229 20.3009C177.205 20.3704 177.136 20.4283 177.032 20.4283H176.823C176.731 20.4283 176.65 20.3704 176.626 20.3009L174.53 14.9738C174.519 14.9738 174.496 14.9738 174.484 14.9738L173.65 20.1504C173.639 20.2314 173.534 20.3125 173.442 20.3125H172.689C172.527 20.3125 172.446 20.2083 172.469 20.0461ZM184.017 20.0925V12.4261C184.017 12.3103 184.109 12.206 184.237 12.206H188.869C188.996 12.206 189.089 12.3103 189.089 12.4261V13.0746C189.089 13.1904 188.996 13.2946 188.869 13.2946H185.209V15.6571H188.301C188.417 15.6571 188.521 15.7613 188.521 15.8771V16.5256C188.521 16.653 188.417 16.7457 188.301 16.7457H185.209V19.2355H188.869C188.996 19.2355 189.089 19.3397 189.089 19.4555V20.0925C189.089 20.2083 188.996 20.3125 188.869 20.3125H184.237C184.109 20.3125 184.017 20.2083 184.017 20.0925ZM191.762 20.0925V12.4261C191.762 12.3103 191.855 12.206 191.983 12.206H195.132C196.522 12.206 197.657 13.3062 197.657 14.6843C197.657 15.7497 196.951 16.6298 195.943 17.0352L197.53 19.9767C197.611 20.1272 197.53 20.3125 197.333 20.3125H196.429C196.337 20.3125 196.267 20.2546 196.244 20.2083L194.704 17.1394H192.955V20.0925C192.955 20.2083 192.851 20.3125 192.735 20.3125H191.983C191.855 20.3125 191.762 20.2083 191.762 20.0925ZM192.978 16.1435H195.04C195.793 16.1435 196.453 15.5065 196.453 14.7075C196.453 13.9547 195.793 13.3294 195.04 13.3294H192.978V16.1435Z" fill="#F8F9EE"/>
</svg>
