<svg width="1106" height="700" viewBox="0 0 1106 700" fill="none" xmlns="http://www.w3.org/2000/svg">
<defs>
  <pattern id="img-water" width="1" height="1">
    <image href="/assets/chart/water.png" x="0" y="0" width="60" height="60" />
  </pattern>
  <pattern id="img-soil" width="1" height="1">
    <image href="/assets/chart/soil.png" x="0" y="0" width="60" height="60" />
  </pattern>
  <pattern id="img-atmosphere" width="1" height="1">
    <image href="/assets/chart/atmosphere.png" x="0" y="0" width="60" height="60" />
  </pattern>
  <pattern id="img-plants-and-animals" width="1" height="1">
    <image href="/assets/chart/plants-and-animals.png" x="0" y="0" width="60" height="60" />
  </pattern>
  <pattern id="img-grasslands" width="1" height="1">
    <image href="/assets/chart/grasslands.png" x="0" y="0" width="60" height="60" />
  </pattern>
  <pattern id="img-mangroves" width="1" height="1">
    <image href="/assets/chart/mangroves.png" x="0" y="0" width="60" height="60" />
  </pattern>
  <pattern id="img-wetlands" width="1" height="1">
    <image href="/assets/chart/wetlands.png" x="0" y="0" width="60" height="60" />
  </pattern>
  <pattern id="img-farmlands" width="1" height="1">
    <image href="/assets/chart/farmlands.png" x="0" y="0" width="60" height="60" />
  </pattern>
  <pattern id="img-livestock-production" width="1" height="1">
    <image href="/assets/chart/livestock-production.png" x="0" y="0" width="60" height="60" />
  </pattern>
  <pattern id="img-timber" width="1" height="1">
    <image href="/assets/chart/timber.png" x="0" y="0" width="60" height="60" />
  </pattern>
  <pattern id="img-tourism" width="1" height="1">
    <image href="/assets/chart/tourism.png" x="0" y="0" width="60" height="60" />
  </pattern>
  <pattern id="img-recreation-sites" width="1" height="1">
    <image href="/assets/chart/recreation-sites.png" x="0" y="0" width="60" height="60" />
  </pattern>
  <pattern id="img-soil-fertility" width="1" height="1">
    <image href="/assets/chart/soil-fertility.png" x="0" y="0" width="60" height="60" />
  </pattern>
  <pattern id="img-climate-regulation" width="1" height="1">
    <image href="/assets/chart/climate-regulation.png" x="0" y="0" width="60" height="60" />
  </pattern>
  <pattern id="img-water-filtering" width="1" height="1">
    <image href="/assets/chart/water-filtering.png" x="0" y="0" width="60" height="60" />
  </pattern>
  <pattern id="img-habitat-provision" width="1" height="1">
    <image href="/assets/chart/habitat-provision.png" x="0" y="0" width="60" height="60" />
  </pattern>
  <pattern id="img-fossil-fuels" width="1" height="1">
    <image href="/assets/chart/fossil-fuels.png" x="0" y="0" width="60" height="60" />
  </pattern>
  <pattern id="img-mineral-extraction" width="1" height="1">
    <image href="/assets/chart/mineral-extraction.png" x="0" y="0" width="60" height="60" />
  </pattern>
  <pattern id="img-energy-production" width="1" height="1">
    <image href="/assets/chart/energy-production.png" x="0" y="0" width="60" height="60" />
  </pattern>
</defs>
<g id="chart">
<g id="Frame 2341884">
<g id="Group 1055">
<path id="Vector 134" d="M560.936 1V1C560.936 20.8823 544.818 37 524.936 37H210.436C192.763 37 178.436 51.3269 178.436 69V69" stroke="#515679" stroke-width="2" stroke-linecap="round"/>
<path id="Vector 135" d="M561.436 1V1C561.436 20.8823 577.554 37 597.436 37H911.936C929.609 37 943.936 51.3269 943.936 69V69" stroke="#515679" stroke-width="2" stroke-linecap="round"/>
</g>
<g id="Frame 2341883">
<g id="Frame 2341882">
<g id="Frame 2341670">
<mask id="path-3-inside-1_884_1590" fill="white">
<path d="M119 69H413.372V133H119V69Z"/>
</mask>
<path d="M119 75H413.372V63H119V75Z" fill="#515679" mask="url(#path-3-inside-1_884_1590)"/>
<g id="Frame 2341642">
<path id="Environmental" d="M127.4 107H120.296V95.656H127.4V97.736H122.504V100.328H126.936V102.296H122.504V104.92H127.4V107ZM131.483 102.472V107H129.355V99.128H131.419V100.104C131.643 99.72 131.963 99.4267 132.379 99.224C132.795 99.0213 133.232 98.92 133.691 98.92C134.619 98.92 135.323 99.2133 135.803 99.8C136.293 100.376 136.539 101.123 136.539 102.04V107H134.411V102.408C134.411 101.939 134.288 101.56 134.043 101.272C133.808 100.984 133.445 100.84 132.955 100.84C132.507 100.84 132.149 100.995 131.883 101.304C131.616 101.613 131.483 102.003 131.483 102.472ZM145.982 99.128L142.926 107H140.798L137.582 99.128H139.918L141.87 104.408L143.742 99.128H145.982ZM149.405 107H147.277V99.128H149.405V107ZM147.021 96.552C147.021 96.1893 147.149 95.88 147.405 95.624C147.661 95.3573 147.97 95.224 148.333 95.224C148.695 95.224 149.005 95.352 149.261 95.608C149.517 95.864 149.645 96.1787 149.645 96.552C149.645 96.904 149.517 97.208 149.261 97.464C149.005 97.72 148.695 97.848 148.333 97.848C147.97 97.848 147.661 97.72 147.405 97.464C147.149 97.208 147.021 96.904 147.021 96.552ZM156.483 99.096V101.24C156.27 101.197 156.056 101.176 155.843 101.176C155.235 101.176 154.744 101.352 154.371 101.704C153.998 102.045 153.811 102.611 153.811 103.4V107H151.683V99.128H153.747V100.296C154.131 99.4747 154.878 99.064 155.987 99.064C156.104 99.064 156.27 99.0747 156.483 99.096ZM160.014 104.712C160.408 105.107 160.883 105.304 161.438 105.304C161.992 105.304 162.462 105.107 162.846 104.712C163.24 104.317 163.438 103.768 163.438 103.064C163.438 102.36 163.24 101.811 162.846 101.416C162.462 101.021 161.992 100.824 161.438 100.824C160.883 100.824 160.408 101.021 160.014 101.416C159.63 101.811 159.438 102.36 159.438 103.064C159.438 103.768 159.63 104.317 160.014 104.712ZM158.478 100.072C159.267 99.2827 160.254 98.888 161.438 98.888C162.622 98.888 163.603 99.2827 164.382 100.072C165.171 100.861 165.566 101.859 165.566 103.064C165.566 104.269 165.171 105.267 164.382 106.056C163.603 106.845 162.622 107.24 161.438 107.24C160.254 107.24 159.267 106.845 158.478 106.056C157.699 105.267 157.31 104.269 157.31 103.064C157.31 101.859 157.699 100.861 158.478 100.072ZM169.373 102.472V107H167.245V99.128L169.309 99.128V100.104C169.533 99.72 169.853 99.4267 170.269 99.224C170.685 99.0213 171.123 98.92 171.581 98.92C172.509 98.92 173.213 99.2133 173.693 99.8C174.184 100.376 174.429 101.123 174.429 102.04V107L172.301 107V102.408C172.301 101.939 172.179 101.56 171.933 101.272C171.699 100.984 171.336 100.84 170.845 100.84C170.397 100.84 170.04 100.995 169.773 101.304C169.507 101.613 169.373 102.003 169.373 102.472ZM178.717 107H176.589V99.128H178.621V100.088C178.824 99.7253 179.144 99.4373 179.581 99.224C180.018 99.0107 180.466 98.904 180.925 98.904C182.066 98.904 182.845 99.3413 183.261 100.216C183.826 99.3413 184.658 98.904 185.757 98.904C186.557 98.904 187.229 99.1547 187.773 99.656C188.328 100.157 188.605 100.904 188.605 101.896V107H186.541V102.328C186.541 101.88 186.424 101.523 186.189 101.256C185.965 100.979 185.618 100.84 185.149 100.84C184.712 100.84 184.36 100.989 184.093 101.288C183.826 101.587 183.693 101.955 183.693 102.392V107H181.581V102.328C181.581 101.88 181.464 101.523 181.229 101.256C180.994 100.979 180.648 100.84 180.189 100.84C179.741 100.84 179.384 100.989 179.117 101.288C178.85 101.576 178.717 101.944 178.717 102.392V107ZM192.313 102.168H195.833C195.812 101.731 195.652 101.363 195.353 101.064C195.065 100.765 194.638 100.616 194.073 100.616C193.561 100.616 193.145 100.776 192.825 101.096C192.505 101.416 192.334 101.773 192.313 102.168ZM196.041 104.216L197.817 104.744C197.604 105.469 197.182 106.067 196.553 106.536C195.934 107.005 195.161 107.24 194.233 107.24C193.102 107.24 192.142 106.861 191.353 106.104C190.564 105.336 190.169 104.312 190.169 103.032C190.169 101.816 190.553 100.824 191.321 100.056C192.089 99.2773 192.996 98.888 194.041 98.888C195.257 98.888 196.206 99.2507 196.889 99.976C197.582 100.701 197.929 101.699 197.929 102.968C197.929 103.053 197.924 103.149 197.913 103.256C197.913 103.363 197.913 103.448 197.913 103.512L197.897 103.624H192.265C192.286 104.136 192.489 104.563 192.873 104.904C193.257 105.245 193.716 105.416 194.249 105.416C195.156 105.416 195.753 105.016 196.041 104.216ZM201.733 102.472V107H199.605V99.128H201.669V100.104C201.893 99.72 202.213 99.4267 202.629 99.224C203.045 99.0213 203.482 98.92 203.941 98.92C204.869 98.92 205.573 99.2133 206.053 99.8C206.543 100.376 206.789 101.123 206.789 102.04V107H204.661V102.408C204.661 101.939 204.538 101.56 204.293 101.272C204.058 100.984 203.695 100.84 203.205 100.84C202.757 100.84 202.399 100.995 202.133 101.304C201.866 101.613 201.733 102.003 201.733 102.472ZM211.573 96.776V99.128H213.157V101.016H211.573V104.312C211.573 104.643 211.647 104.877 211.797 105.016C211.946 105.155 212.181 105.224 212.501 105.224C212.789 105.224 213.007 105.203 213.157 105.16V106.92C212.847 107.048 212.447 107.112 211.957 107.112C211.189 107.112 210.581 106.899 210.133 106.472C209.685 106.035 209.461 105.437 209.461 104.68V101.016H208.037V99.128H208.437C208.831 99.128 209.13 99.016 209.333 98.792C209.546 98.5573 209.653 98.2533 209.653 97.88V96.776H211.573ZM214.531 104.856C214.531 104.184 214.75 103.645 215.187 103.24C215.624 102.835 216.19 102.579 216.883 102.472L218.819 102.184C219.214 102.131 219.411 101.944 219.411 101.624C219.411 101.325 219.294 101.08 219.059 100.888C218.835 100.696 218.51 100.6 218.083 100.6C217.635 100.6 217.278 100.723 217.011 100.968C216.755 101.213 216.611 101.517 216.579 101.88L214.691 101.48C214.766 100.797 215.102 100.195 215.699 99.672C216.296 99.1493 217.086 98.888 218.067 98.888C219.24 98.888 220.104 99.1707 220.659 99.736C221.214 100.291 221.491 101.005 221.491 101.88V105.752C221.491 106.221 221.523 106.637 221.587 107H219.635C219.582 106.765 219.555 106.451 219.555 106.056C219.054 106.835 218.28 107.224 217.235 107.224C216.424 107.224 215.768 106.989 215.267 106.52C214.776 106.051 214.531 105.496 214.531 104.856ZM217.683 105.64C218.184 105.64 218.595 105.501 218.915 105.224C219.246 104.936 219.411 104.467 219.411 103.816V103.464L217.635 103.736C216.984 103.832 216.659 104.163 216.659 104.728C216.659 104.984 216.75 105.203 216.931 105.384C217.112 105.555 217.363 105.64 217.683 105.64ZM225.764 107H223.636V95.416H225.764V107Z" fill="#F8F9EE"/>
<g id="icon" clip-path="url(#clip0_884_1590)">
<path id="Vector" d="M247 104.333V101M247 97.6667H247.008M255.333 101C255.333 105.602 251.602 109.333 247 109.333C242.397 109.333 238.667 105.602 238.667 101C238.667 96.3976 242.397 92.6667 247 92.6667C251.602 92.6667 255.333 96.3976 255.333 101Z" stroke="#F8F9EE" stroke-width="1.35366" stroke-linecap="round" stroke-linejoin="round"/>
</g>
</g>
</g>
<g id="Frame 2341879">
<g id="nodes-environmental">
<path id="plants-and-animals" fill="url(#img-plants-and-animals)" d="M353.283 156.372C353.589 155.463 354.378 154.244 355.514 152.838C356.64 151.446 358.069 149.914 359.604 148.383C362.664 145.334 366.121 142.316 368.379 140.463C370.315 139.236 372.611 137.98 376.308 137.685C380.04 137.387 385.24 138.067 392.967 140.827C396.777 142.188 399.409 144.067 401.278 146.253C403.149 148.441 404.276 150.963 405.035 153.639C405.753 156.174 406.137 158.825 406.517 161.457C406.539 161.611 406.562 161.765 406.584 161.92C406.986 164.687 407.406 167.428 408.247 169.892C409.021 172.163 408.757 174.55 407.837 176.919C406.915 179.292 405.344 181.618 403.555 183.733C399.974 187.962 395.586 191.262 394.025 192.288C390.966 194.299 389.183 194.699 382.413 196.2L382.213 196.245L382.321 196.733L382.213 196.245C378.863 196.987 376.155 196.63 373.081 195.461C370.736 194.57 368.203 193.218 365.017 191.518C363.976 190.962 362.865 190.369 361.668 189.743C357.002 187.301 354.368 182.791 352.821 178.453C351.631 175.12 351.106 171.971 350.773 169.976C350.671 169.367 350.587 168.865 350.508 168.499C350.212 167.13 350.46 165.382 351.025 163.295C351.443 161.753 352.017 160.077 352.631 158.287C352.845 157.662 353.064 157.024 353.283 156.372Z" />
<path id="atmosphere" fill="url(#img-atmosphere)" d="M277.216 156.213C278.559 152.213 287.96 143.775 292.492 140.057C296.442 137.551 302.014 134.809 317.542 140.356C333.07 145.903 329.833 160.075 333.126 169.731C336.42 179.387 321.884 190.616 318.706 192.706C315.559 194.775 313.685 195.19 306.928 196.688L306.728 196.733C299.807 198.267 295.497 195.237 285.843 190.186C276.189 185.135 275.072 171.591 274.426 168.605C273.78 165.618 275.537 161.214 277.216 156.213Z" />
<path id="soil" fill="url(#img-soil)" d="M201.623 156.213C202.966 152.213 212.367 143.775 216.899 140.057C220.849 137.551 226.421 134.809 241.949 140.356C257.477 145.903 254.24 160.075 257.534 169.731C260.827 179.387 246.291 190.616 243.113 192.706C239.966 194.775 238.093 195.19 231.335 196.688L231.135 196.733C224.214 198.267 219.905 195.237 210.25 190.186C200.596 185.135 199.479 171.591 198.833 168.605C198.187 165.618 199.944 161.214 201.623 156.213Z" />
<path id="water" fill="url(#img-water)" d="M126.03 156.213C127.373 152.213 136.773 143.775 141.306 140.057C145.256 137.551 150.828 134.809 166.356 140.356C181.884 145.903 178.647 160.075 181.94 169.731C185.234 179.387 170.698 190.616 167.52 192.706C164.373 194.775 162.499 195.19 155.742 196.688L155.542 196.733C148.621 198.267 144.311 195.237 134.657 190.186C125.003 185.135 123.886 171.591 123.24 168.605C122.594 165.618 124.351 161.214 126.03 156.213Z" />
</g>
</g>
</g>
<g id="Frame 2341881">
<g id="Frame 2341674">
<mask id="path-11-inside-2_884_1590" fill="white">
<path d="M709 69H1003.37V133H709V69Z"/>
</mask>
<path d="M709 75H1003.37V63H709V75Z" fill="#515679" mask="url(#path-11-inside-2_884_1590)"/>
<g id="Frame 2341642_2">
<path id="Ecosystem" d="M717.4 107H710.296V95.656H717.4V97.736H712.504V100.328H716.936V102.296H712.504V104.92H717.4V107ZM722.813 100.856C722.247 100.856 721.773 101.053 721.389 101.448C721.005 101.843 720.813 102.381 720.813 103.064C720.813 103.747 721.005 104.291 721.389 104.696C721.783 105.091 722.263 105.288 722.829 105.288C723.33 105.288 723.73 105.16 724.029 104.904C724.327 104.637 724.53 104.323 724.637 103.96L726.509 104.584C726.317 105.309 725.901 105.933 725.261 106.456C724.621 106.979 723.81 107.24 722.829 107.24C721.655 107.24 720.669 106.845 719.869 106.056C719.079 105.256 718.685 104.259 718.685 103.064C718.685 101.859 719.074 100.861 719.853 100.072C720.642 99.2827 721.613 98.888 722.765 98.888C723.767 98.888 724.589 99.1493 725.229 99.672C725.869 100.184 726.279 100.808 726.461 101.544L724.557 102.184C724.301 101.299 723.719 100.856 722.813 100.856ZM730.107 104.712C730.502 105.107 730.977 105.304 731.531 105.304C732.086 105.304 732.555 105.107 732.939 104.712C733.334 104.317 733.531 103.768 733.531 103.064C733.531 102.36 733.334 101.811 732.939 101.416C732.555 101.021 732.086 100.824 731.531 100.824C730.977 100.824 730.502 101.021 730.107 101.416C729.723 101.811 729.531 102.36 729.531 103.064C729.531 103.768 729.723 104.317 730.107 104.712ZM728.571 100.072C729.361 99.2827 730.347 98.888 731.531 98.888C732.715 98.888 733.697 99.2827 734.475 100.072C735.265 100.861 735.659 101.859 735.659 103.064C735.659 104.269 735.265 105.267 734.475 106.056C733.697 106.845 732.715 107.24 731.531 107.24C730.347 107.24 729.361 106.845 728.571 106.056C727.793 105.267 727.403 104.269 727.403 103.064C727.403 101.859 727.793 100.861 728.571 100.072ZM736.667 104.808L738.491 104.408C738.512 104.749 738.646 105.037 738.891 105.272C739.147 105.496 739.494 105.608 739.931 105.608C740.262 105.608 740.518 105.533 740.699 105.384C740.88 105.235 740.971 105.048 740.971 104.824C740.971 104.429 740.688 104.173 740.123 104.056L739.083 103.816C738.347 103.656 737.792 103.368 737.419 102.952C737.056 102.536 736.875 102.04 736.875 101.464C736.875 100.749 737.152 100.141 737.707 99.64C738.272 99.1387 738.976 98.888 739.819 98.888C740.352 98.888 740.822 98.968 741.227 99.128C741.632 99.2773 741.947 99.4747 742.171 99.72C742.395 99.9547 742.566 100.195 742.683 100.44C742.8 100.685 742.875 100.925 742.907 101.16L741.131 101.56C741.088 101.283 740.96 101.037 740.747 100.824C740.544 100.611 740.24 100.504 739.835 100.504C739.558 100.504 739.318 100.579 739.115 100.728C738.923 100.877 738.827 101.064 738.827 101.288C738.827 101.672 739.067 101.907 739.547 101.992L740.667 102.232C741.424 102.392 742 102.685 742.395 103.112C742.8 103.539 743.003 104.051 743.003 104.648C743.003 105.352 742.736 105.96 742.203 106.472C741.67 106.984 740.918 107.24 739.947 107.24C739.392 107.24 738.896 107.16 738.459 107C738.022 106.829 737.68 106.616 737.435 106.36C737.2 106.093 737.019 105.832 736.891 105.576C736.774 105.309 736.699 105.053 736.667 104.808ZM747.309 110.104H745.053L746.909 106.008L743.565 99.128H745.949L748.045 103.736L749.981 99.128H752.253L747.309 110.104ZM752.761 104.808L754.585 104.408C754.606 104.749 754.74 105.037 754.985 105.272C755.241 105.496 755.588 105.608 756.025 105.608C756.356 105.608 756.612 105.533 756.793 105.384C756.974 105.235 757.065 105.048 757.065 104.824C757.065 104.429 756.782 104.173 756.217 104.056L755.177 103.816C754.441 103.656 753.886 103.368 753.513 102.952C753.15 102.536 752.969 102.04 752.969 101.464C752.969 100.749 753.246 100.141 753.801 99.64C754.366 99.1387 755.07 98.888 755.913 98.888C756.446 98.888 756.916 98.968 757.321 99.128C757.726 99.2773 758.041 99.4747 758.265 99.72C758.489 99.9547 758.66 100.195 758.777 100.44C758.894 100.685 758.969 100.925 759.001 101.16L757.225 101.56C757.182 101.283 757.054 101.037 756.841 100.824C756.638 100.611 756.334 100.504 755.929 100.504C755.652 100.504 755.412 100.579 755.209 100.728C755.017 100.877 754.921 101.064 754.921 101.288C754.921 101.672 755.161 101.907 755.641 101.992L756.761 102.232C757.518 102.392 758.094 102.685 758.489 103.112C758.894 103.539 759.097 104.051 759.097 104.648C759.097 105.352 758.83 105.96 758.297 106.472C757.764 106.984 757.012 107.24 756.041 107.24C755.486 107.24 754.99 107.16 754.553 107C754.116 106.829 753.774 106.616 753.529 106.36C753.294 106.093 753.113 105.832 752.985 105.576C752.868 105.309 752.793 105.053 752.761 104.808ZM763.432 96.776V99.128H765.016V101.016H763.432V104.312C763.432 104.643 763.507 104.877 763.656 105.016C763.805 105.155 764.04 105.224 764.36 105.224C764.648 105.224 764.867 105.203 765.016 105.16V106.92C764.707 107.048 764.307 107.112 763.816 107.112C763.048 107.112 762.44 106.899 761.992 106.472C761.544 106.035 761.32 105.437 761.32 104.68V101.016H759.896V99.128H760.296C760.691 99.128 760.989 99.016 761.192 98.792C761.405 98.5573 761.512 98.2533 761.512 97.88V96.776H763.432ZM768.297 102.168H771.817C771.796 101.731 771.636 101.363 771.337 101.064C771.049 100.765 770.623 100.616 770.057 100.616C769.545 100.616 769.129 100.776 768.809 101.096C768.489 101.416 768.319 101.773 768.297 102.168ZM772.025 104.216L773.801 104.744C773.588 105.469 773.167 106.067 772.537 106.536C771.919 107.005 771.145 107.24 770.217 107.24C769.087 107.24 768.127 106.861 767.337 106.104C766.548 105.336 766.153 104.312 766.153 103.032C766.153 101.816 766.537 100.824 767.305 100.056C768.073 99.2773 768.98 98.888 770.025 98.888C771.241 98.888 772.191 99.2507 772.873 99.976C773.567 100.701 773.913 101.699 773.913 102.968C773.913 103.053 773.908 103.149 773.897 103.256C773.897 103.363 773.897 103.448 773.897 103.512L773.881 103.624H768.249C768.271 104.136 768.473 104.563 768.857 104.904C769.241 105.245 769.7 105.416 770.233 105.416C771.14 105.416 771.737 105.016 772.025 104.216ZM777.717 107H775.589V99.128H777.621V100.088C777.824 99.7253 778.144 99.4373 778.581 99.224C779.018 99.0107 779.466 98.904 779.925 98.904C781.066 98.904 781.845 99.3413 782.261 100.216C782.826 99.3413 783.658 98.904 784.757 98.904C785.557 98.904 786.229 99.1547 786.773 99.656C787.328 100.157 787.605 100.904 787.605 101.896V107H785.541V102.328C785.541 101.88 785.424 101.523 785.189 101.256C784.965 100.979 784.618 100.84 784.149 100.84C783.712 100.84 783.36 100.989 783.093 101.288C782.826 101.587 782.693 101.955 782.693 102.392V107H780.581V102.328C780.581 101.88 780.464 101.523 780.229 101.256C779.994 100.979 779.648 100.84 779.189 100.84C778.741 100.84 778.384 100.989 778.117 101.288C777.85 101.576 777.717 101.944 777.717 102.392V107Z" fill="#F8F9EE"/>
<g id="icon_2" clip-path="url(#clip1_884_1590)">
<path id="Vector_2" d="M809 104.333V101M809 97.6667H809.008M817.333 101C817.333 105.602 813.602 109.333 809 109.333C804.397 109.333 800.667 105.602 800.667 101C800.667 96.3976 804.397 92.6667 809 92.6667C813.602 92.6667 817.333 96.3976 817.333 101Z" stroke="#F8F9EE" stroke-width="1.35366" stroke-linecap="round" stroke-linejoin="round"/>
</g>
</g>
</g>
<g id="Frame 2341880">
<g id="Component 4">
<g id="nodes-ecosystem">
<path id="farmlands" fill="url(#img-farmlands)" d="M943.283 155.663C943.589 154.753 944.378 153.535 945.514 152.129C946.64 150.737 948.069 149.205 949.604 147.674C952.664 144.625 956.121 141.607 958.379 139.754C960.315 138.527 962.611 137.271 966.308 136.976C970.04 136.678 975.24 137.358 982.967 140.118C986.777 141.478 989.409 143.358 991.278 145.544C993.149 147.732 994.276 150.254 995.035 152.93C995.753 155.465 996.137 158.116 996.517 160.748C996.539 160.902 996.562 161.056 996.584 161.21C996.986 163.978 997.406 166.719 998.247 169.183C999.021 171.454 998.757 173.841 997.837 176.21C996.915 178.583 995.344 180.909 993.555 183.024C989.974 187.253 985.586 190.553 984.025 191.579C980.966 193.59 979.183 193.99 972.413 195.491L972.213 195.535L972.321 196.024L972.213 195.535C968.863 196.278 966.155 195.921 963.081 194.752C960.736 193.861 958.203 192.509 955.017 190.809C953.976 190.253 952.865 189.66 951.668 189.034C947.002 186.592 944.368 182.081 942.821 177.744C941.631 174.411 941.106 171.261 940.773 169.267C940.671 168.657 940.587 168.156 940.508 167.79C940.212 166.421 940.46 164.673 941.025 162.586C941.443 161.044 942.017 159.368 942.631 157.578C942.845 156.953 943.064 156.315 943.283 155.663Z" />
<path id="wetlands" fill="url(#img-wetlands)" d="M867.69 157.082C867.996 156.172 868.785 154.953 869.921 153.547C871.047 152.155 872.476 150.623 874.011 149.093C877.071 146.043 880.528 143.025 882.786 141.172C884.722 139.945 887.018 138.689 890.715 138.394C894.447 138.096 899.648 138.776 907.374 141.536C911.184 142.897 913.817 144.776 915.685 146.962C917.556 149.15 918.683 151.672 919.442 154.348C920.16 156.883 920.544 159.534 920.924 162.166C920.947 162.32 920.969 162.474 920.991 162.629C921.393 165.396 921.813 168.137 922.654 170.602C923.428 172.872 923.165 175.259 922.244 177.628C921.322 180.001 919.752 182.328 917.962 184.442C914.381 188.671 909.993 191.971 908.432 192.997C905.374 195.008 903.591 195.408 896.82 196.909L896.62 196.954L896.728 197.442L896.62 196.954C893.27 197.696 890.563 197.339 887.489 196.17C885.143 195.279 882.61 193.927 879.424 192.227C878.383 191.671 877.272 191.078 876.075 190.452C871.409 188.011 868.776 183.5 867.228 179.162C866.039 175.829 865.513 172.68 865.18 170.685C865.078 170.076 864.994 169.574 864.915 169.208C864.619 167.839 864.867 166.091 865.432 164.004C865.85 162.462 866.424 160.786 867.038 158.996C867.253 158.371 867.472 157.733 867.69 157.082Z" />
<path id="mangroves" fill="url(#img-mangroves)" d="M792.097 156.372C792.403 155.463 793.192 154.244 794.328 152.838C795.454 151.446 796.882 149.914 798.418 148.383C801.478 145.334 804.935 142.316 807.193 140.463C809.129 139.236 811.425 137.98 815.122 137.685C818.854 137.387 824.054 138.067 831.781 140.827C835.591 142.188 838.223 144.067 840.092 146.253C841.963 148.441 843.09 150.963 843.848 153.639C844.567 156.174 844.951 158.825 845.331 161.457C845.353 161.611 845.376 161.765 845.398 161.92C845.799 164.687 846.22 167.428 847.06 169.892C847.835 172.163 847.571 174.55 846.651 176.919C845.729 179.292 844.158 181.618 842.369 183.733C838.788 187.962 834.399 191.262 832.839 192.288C829.78 194.299 827.997 194.699 821.227 196.2L821.027 196.245L821.135 196.733L821.027 196.245C817.677 196.987 814.969 196.63 811.895 195.461C809.55 194.57 807.017 193.218 803.831 191.518C802.79 190.962 801.679 190.369 800.482 189.743C795.816 187.301 793.182 182.791 791.635 178.453C790.445 175.12 789.92 171.971 789.587 169.976C789.485 169.367 789.401 168.865 789.322 168.499C789.026 167.13 789.274 165.382 789.839 163.295C790.257 161.753 790.831 160.077 791.445 158.287C791.659 157.662 791.878 157.024 792.097 156.372Z" />
<path id="grasslands" fill="url(#img-grasslands)" d="M716.504 156.372C716.809 155.463 717.599 154.244 718.735 152.838C719.86 151.446 721.289 149.914 722.825 148.383C725.885 145.334 729.342 142.316 731.599 140.463C733.535 139.236 735.832 137.98 739.529 137.685C743.261 137.387 748.461 138.067 756.188 140.827C759.997 142.188 762.63 144.067 764.499 146.253C766.37 148.441 767.496 150.963 768.255 153.639C768.974 156.174 769.357 158.825 769.738 161.457C769.76 161.611 769.782 161.765 769.805 161.92C770.206 164.687 770.627 167.428 771.467 169.892C772.242 172.163 771.978 174.55 771.057 176.919C770.136 179.292 768.565 181.618 766.775 183.733C763.195 187.962 758.806 191.262 757.246 192.288C754.187 194.299 752.404 194.699 745.634 196.2L745.434 196.245L745.542 196.733L745.434 196.245C742.084 196.987 739.376 196.63 736.302 195.461C733.957 194.57 731.423 193.218 728.238 191.518C727.197 190.962 726.086 190.369 724.889 189.743C720.222 187.301 717.589 182.791 716.041 178.453C714.852 175.12 714.326 171.971 713.994 169.976C713.892 169.367 713.808 168.865 713.729 168.499C713.433 167.13 713.681 165.382 714.246 163.295C714.663 161.753 715.238 160.077 715.852 158.287C716.066 157.662 716.285 157.024 716.504 156.372Z" />
</g>
<g id="links">
<path id="1-1" d="M153.593 201.28C153.593 229.78 80.0928 363.78 80.0928 417.28" stroke="#515679" stroke-width="2" stroke-linecap="round"/>
<path id="1-4" d="M153.593 201.28C153.593 250.78 334.593 352.78 334.593 417.28" stroke="url(#paint0_linear_884_1590)" stroke-width="2" stroke-linecap="round"/>
<path id="1-5" d="M153.593 201.28C153.593 244.78 443.593 322.28 443.593 417.28" stroke="#515679" stroke-width="2" stroke-linecap="round"/>
<path id="1-7" d="M153.593 201.28C153.593 243.78 622.093 298.28 622.093 417.28" stroke="#515679" stroke-width="2" stroke-linecap="round"/>
<path id="1-11" d="M153.593 201.28C153.593 246.28 1027.59 242.28 1027.59 417.28" stroke="#515679" stroke-width="2" stroke-linecap="round"/>
<path id="2-2" d="M228.093 201.28C228.093 241.28 156.093 348.78 156.093 417.28" stroke="#515679" stroke-width="2" stroke-linecap="round"/>
<path id="2-5" d="M228.093 201.28C228.093 258.78 443.593 311.28 443.593 417.28" stroke="#515679" stroke-width="2" stroke-linecap="round"/>
<path id="2-9" d="M228.093 201.28C228.093 255.28 877.593 268.78 877.593 417.28" stroke="#515679" stroke-width="2" stroke-linecap="round"/>
<path id="2-10" d="M228.093 201.28C228.093 285.28 952.593 231.78 952.593 417.28" stroke="#515679" stroke-width="2" stroke-linecap="round"/>
<path id="3-3" d="M305.093 201.28C305.093 237.28 259.093 345.78 259.093 417.28" stroke="url(#paint1_linear_884_1590)" stroke-width="2" stroke-linecap="round"/>
<path id="3-6" d="M305.093 201.28C305.093 273.28 512.093 351.28 517.593 416.78" stroke="#515679" stroke-width="2" stroke-linecap="round"/>
<path id="3-11" d="M305.093 201.28C305.093 272.78 1027.59 200.28 1027.59 417.28" stroke="#515679" stroke-width="2" stroke-linecap="round"/>
<path id="4-2" d="M380.093 201.28C380.093 241.28 156.093 359.28 156.093 417.28" stroke="#515679" stroke-width="2" stroke-linecap="round"/>
<path id="5-2" d="M745.093 201.28C745.093 291.78 431.093 295.28 443.593 417.28" stroke="#515679" stroke-width="2" stroke-linecap="round"/>
<path id="5-8" d="M745.093 201.28C745.093 322.78 699.093 276.78 699.093 417.28" stroke="#515679" stroke-width="2" stroke-linecap="round"/>
<path id="6-3" d="M820.093 201.28C820.093 263.78 259.093 259.28 259.093 417.28" stroke="url(#paint2_linear_884_1590)" stroke-width="2" stroke-linecap="round"/>
<path id="6-5" d="M820.093 201.28C820.093 299.28 443.593 278.28 443.593 417.28" stroke="#515679" stroke-width="2" stroke-linecap="round"/>
<path id="6-8" d="M820.093 201.28C820.093 300.78 699.093 338.78 699.093 417.28" stroke="#515679" stroke-width="2" stroke-linecap="round"/>
<path id="7-7" d="M896.093 201.28C896.093 279.28 622.093 302.28 622.093 417.28" stroke="#515679" stroke-width="2" stroke-linecap="round"/>
<path id="6-6" d="M820.093 201.28C820.093 262.78 517.593 336.78 517.593 416.78" stroke="#515679" stroke-width="2" stroke-linecap="round"/>
<path id="8-8" d="M972.093 201.28C972.093 274.78 699.093 326.78 699.093 417.28" stroke="#515679" stroke-width="2" stroke-linecap="round"/>
<path id="5-1" d="M745.5 201C745.5 280 80.5 270.5 80.5 417" stroke="#515679" stroke-width="2" stroke-linecap="round"/>
<path id="4-6" d="M380.5 201C380.5 250 518 334 518 416.5" stroke="#515679" stroke-width="2" stroke-linecap="round"/>
<path id="2-7" d="M228.5 201C228.5 244.5 622.5 277 622.5 417" stroke="#515679" stroke-width="2" stroke-linecap="round"/>
<path id="3-8" d="M305.5 201C305.5 263 699.5 297.5 699.5 417" stroke="#515679" stroke-width="2" stroke-linecap="round"/>
<path id="7-3" d="M896.5 201C896.5 259.5 251.5 302.5 259.5 417" stroke="#515679" stroke-width="2" stroke-linecap="round"/>
<path id="7-4" d="M896.5 201C896.5 278 335 284 335 417" stroke="url(#paint3_linear_884_1590)" stroke-width="2" stroke-linecap="round"/>
<path id="8-3" d="M972.5 201C972.5 291.5 259.5 184 259.5 417" stroke="url(#paint4_linear_884_1590)" stroke-width="2" stroke-linecap="round"/>
</g>
</g>
</g>
</g>
</g>
</g>
<g id="Frame 2341886">
<g id="Frame 2341877">
<g id="Frame 2341876">
<g id="Frame 2341668">
<path d="M24.3945 431C24.3945 414.431 37.826 401 54.3945 401H722.326C738.894 401 752.326 414.431 752.326 431V593C752.326 609.569 738.894 623 722.326 623H54.3945C37.826 623 24.3945 609.569 24.3945 593V431Z" fill="#515679" fill-opacity="0.2"/>
<g id="Frame 2341875">
<g id="Frame 2341874">
<g id="Frame 2341602">
<g id="nodes-provisioning">
<path id="timber" fill="url(#img-timber)" d="M127.492 444.372C127.797 443.463 128.587 442.244 129.723 440.838C130.848 439.446 132.277 437.914 133.813 436.383C136.872 433.334 140.33 430.316 142.587 428.463C144.523 427.236 146.819 425.98 150.517 425.685C154.248 425.387 159.449 426.067 167.175 428.827C170.985 430.188 173.618 432.067 175.487 434.253C177.357 436.441 178.484 438.963 179.243 441.639C179.962 444.174 180.345 446.825 180.726 449.457C180.748 449.611 180.77 449.765 180.793 449.92C181.194 452.687 181.614 455.428 182.455 457.892C183.23 460.163 182.966 462.55 182.045 464.919C181.123 467.292 179.553 469.618 177.763 471.733C174.183 475.962 169.794 479.262 168.233 480.288C165.175 482.299 163.392 482.699 156.622 484.2L156.421 484.245L156.53 484.733L156.421 484.245C153.072 484.987 150.364 484.63 147.29 483.461C144.944 482.57 142.411 481.218 139.226 479.518C138.184 478.962 137.073 478.369 135.877 477.743C131.21 475.301 128.577 470.791 127.029 466.453C125.84 463.12 125.314 459.971 124.981 457.976C124.88 457.367 124.796 456.865 124.717 456.499C124.421 455.13 124.669 453.382 125.234 451.295C125.651 449.753 126.226 448.077 126.84 446.287C127.054 445.662 127.273 445.024 127.492 444.372Z" />
<path id="livestock-production" fill="url(#img-livestock-production)" d="M51.4243 444.213C52.7674 440.213 62.168 431.775 66.7005 428.057C70.6503 425.551 76.2221 422.809 91.7504 428.356C107.279 433.903 104.042 448.075 107.335 457.731C110.628 467.387 96.0927 478.616 92.9148 480.706C89.7677 482.775 87.8939 483.19 81.1366 484.688L80.9364 484.733C74.0156 486.267 69.7058 483.237 60.0515 478.186C50.3972 473.135 49.2807 459.591 48.6346 456.605C47.9886 453.618 49.7455 449.214 51.4243 444.213Z" />
</g>
</g>
<g id="Frame 2341660">
<g id="Group 1049">
<path id="Vector 138" d="M48.4878 490.28V490.28C48.4878 498.012 54.7558 504.28 62.4878 504.28H169.488C177.22 504.28 183.488 498.012 183.488 490.28V490.28" stroke="#515679" stroke-width="2" stroke-linecap="round"/>
</g>
<g id="Frame 2341659">
<path id="Provisioning" d="M75.0895 525.232H77.3615C78.0335 525.232 78.5669 525.061 78.9615 524.72C79.3562 524.368 79.5535 523.898 79.5535 523.312C79.5535 522.714 79.3562 522.24 78.9615 521.888C78.5669 521.525 78.0335 521.344 77.3615 521.344H75.0895V525.232ZM77.6495 526.64H75.0895V531.28H73.5215V519.936H77.6495C78.6842 519.936 79.5269 520.256 80.1775 520.896C80.8282 521.536 81.1535 522.336 81.1535 523.296C81.1535 524.266 80.8282 525.066 80.1775 525.696C79.5269 526.325 78.6842 526.64 77.6495 526.64ZM86.946 523.504V525.104C86.722 525.072 86.5034 525.056 86.29 525.056C84.882 525.056 84.178 525.845 84.178 527.424V531.28H82.674V523.584H84.146V524.928C84.6154 523.946 85.3834 523.456 86.45 523.456C86.6207 523.456 86.786 523.472 86.946 523.504ZM90.0549 529.456C90.5243 529.936 91.0949 530.176 91.7669 530.176C92.4389 530.176 93.0043 529.936 93.4629 529.456C93.9323 528.965 94.1669 528.288 94.1669 527.424C94.1669 526.57 93.9323 525.904 93.4629 525.424C93.0043 524.933 92.4389 524.688 91.7669 524.688C91.0949 524.688 90.5243 524.933 90.0549 525.424C89.5963 525.904 89.3669 526.57 89.3669 527.424C89.3669 528.288 89.5963 528.965 90.0549 529.456ZM88.9349 524.512C89.6816 523.733 90.6256 523.344 91.7669 523.344C92.9083 523.344 93.8469 523.733 94.5829 524.512C95.3296 525.28 95.7029 526.25 95.7029 527.424C95.7029 528.608 95.3349 529.589 94.5989 530.368C93.8629 531.136 92.9189 531.52 91.7669 531.52C90.6149 531.52 89.6709 531.136 88.9349 530.368C88.1989 529.589 87.8309 528.608 87.8309 527.424C87.8309 526.25 88.1989 525.28 88.9349 524.512ZM103.985 523.584L100.913 531.28H99.3928L96.2728 523.584H97.9688L100.161 529.52L102.369 523.584H103.985ZM106.912 531.28H105.424V523.584H106.912V531.28ZM105.392 521.44C105.189 521.226 105.088 520.97 105.088 520.672C105.088 520.373 105.189 520.117 105.392 519.904C105.605 519.69 105.861 519.584 106.16 519.584C106.459 519.584 106.715 519.69 106.928 519.904C107.141 520.106 107.248 520.362 107.248 520.672C107.248 520.97 107.141 521.226 106.928 521.44C106.715 521.642 106.459 521.744 106.16 521.744C105.861 521.744 105.605 521.642 105.392 521.44ZM108.751 529.28L110.111 528.8C110.164 529.216 110.346 529.562 110.655 529.84C110.964 530.106 111.38 530.24 111.903 530.24C112.308 530.24 112.628 530.144 112.863 529.952C113.098 529.749 113.215 529.504 113.215 529.216C113.215 528.704 112.884 528.373 112.223 528.224L110.911 527.936C110.314 527.808 109.844 527.552 109.503 527.168C109.162 526.784 108.991 526.32 108.991 525.776C108.991 525.114 109.258 524.544 109.791 524.064C110.335 523.584 110.98 523.344 111.727 523.344C112.218 523.344 112.655 523.418 113.039 523.568C113.423 523.706 113.722 523.893 113.935 524.128C114.148 524.362 114.308 524.581 114.415 524.784C114.522 524.986 114.602 525.194 114.655 525.408L113.327 525.904C113.306 525.776 113.268 525.653 113.215 525.536C113.162 525.408 113.076 525.269 112.959 525.12C112.852 524.97 112.692 524.853 112.479 524.768C112.266 524.672 112.015 524.624 111.727 524.624C111.354 524.624 111.044 524.725 110.799 524.928C110.564 525.13 110.447 525.37 110.447 525.648C110.447 526.138 110.74 526.448 111.327 526.576L112.575 526.848C113.258 526.997 113.78 527.274 114.143 527.68C114.516 528.074 114.703 528.56 114.703 529.136C114.703 529.744 114.452 530.293 113.951 530.784C113.46 531.274 112.772 531.52 111.887 531.52C110.938 531.52 110.196 531.285 109.663 530.816C109.13 530.336 108.826 529.824 108.751 529.28ZM118.193 531.28H116.705V523.584H118.193V531.28ZM116.673 521.44C116.471 521.226 116.369 520.97 116.369 520.672C116.369 520.373 116.471 520.117 116.673 519.904C116.887 519.69 117.143 519.584 117.441 519.584C117.74 519.584 117.996 519.69 118.209 519.904C118.423 520.106 118.529 520.362 118.529 520.672C118.529 520.97 118.423 521.226 118.209 521.44C117.996 521.642 117.74 521.744 117.441 521.744C117.143 521.744 116.887 521.642 116.673 521.44ZM122.336 529.456C122.806 529.936 123.376 530.176 124.048 530.176C124.72 530.176 125.286 529.936 125.744 529.456C126.214 528.965 126.448 528.288 126.448 527.424C126.448 526.57 126.214 525.904 125.744 525.424C125.286 524.933 124.72 524.688 124.048 524.688C123.376 524.688 122.806 524.933 122.336 525.424C121.878 525.904 121.648 526.57 121.648 527.424C121.648 528.288 121.878 528.965 122.336 529.456ZM121.216 524.512C121.963 523.733 122.907 523.344 124.048 523.344C125.19 523.344 126.128 523.733 126.864 524.512C127.611 525.28 127.984 526.25 127.984 527.424C127.984 528.608 127.616 529.589 126.88 530.368C126.144 531.136 125.2 531.52 124.048 531.52C122.896 531.52 121.952 531.136 121.216 530.368C120.48 529.589 120.112 528.608 120.112 527.424C120.112 526.25 120.48 525.28 121.216 524.512ZM131.412 526.832V531.28H129.908V523.584H131.38V524.688C131.892 523.802 132.682 523.36 133.748 523.36C134.634 523.36 135.311 523.642 135.78 524.208C136.26 524.773 136.5 525.504 136.5 526.4V531.28H134.996V526.656C134.996 525.365 134.399 524.72 133.204 524.72C132.639 524.72 132.196 524.922 131.876 525.328C131.567 525.722 131.412 526.224 131.412 526.832ZM140.381 531.28H138.893V523.584H140.381V531.28ZM138.861 521.44C138.658 521.226 138.557 520.97 138.557 520.672C138.557 520.373 138.658 520.117 138.861 519.904C139.074 519.69 139.33 519.584 139.629 519.584C139.927 519.584 140.183 519.69 140.397 519.904C140.61 520.106 140.717 520.362 140.717 520.672C140.717 520.97 140.61 521.226 140.397 521.44C140.183 521.642 139.927 521.744 139.629 521.744C139.33 521.744 139.074 521.642 138.861 521.44ZM144.444 526.832V531.28H142.94V523.584H144.412V524.688C144.924 523.802 145.713 523.36 146.78 523.36C147.665 523.36 148.342 523.642 148.812 524.208C149.292 524.773 149.532 525.504 149.532 526.4V531.28H148.028V526.656C148.028 525.365 147.43 524.72 146.236 524.72C145.67 524.72 145.228 524.922 144.908 525.328C144.598 525.722 144.444 526.224 144.444 526.832ZM151.364 531.696L152.82 531.36C152.873 531.904 153.092 532.352 153.476 532.704C153.86 533.066 154.34 533.248 154.916 533.248C156.484 533.248 157.268 532.416 157.268 530.752V529.648C157.076 530.021 156.772 530.325 156.356 530.56C155.951 530.794 155.471 530.912 154.916 530.912C153.892 530.912 153.044 530.565 152.372 529.872C151.711 529.168 151.38 528.272 151.38 527.184C151.38 526.128 151.711 525.242 152.372 524.528C153.033 523.802 153.881 523.44 154.916 523.44C156.089 523.44 156.879 523.845 157.284 524.656V523.584H158.772V530.704C158.772 531.216 158.703 531.69 158.564 532.128C158.436 532.576 158.228 532.986 157.94 533.36C157.652 533.733 157.247 534.026 156.724 534.24C156.212 534.453 155.609 534.56 154.916 534.56C153.967 534.56 153.161 534.288 152.5 533.744C151.839 533.21 151.46 532.528 151.364 531.696ZM155.14 529.648C155.791 529.648 156.319 529.424 156.724 528.976C157.129 528.517 157.332 527.92 157.332 527.184C157.332 526.448 157.129 525.856 156.724 525.408C156.319 524.949 155.791 524.72 155.14 524.72C154.479 524.72 153.94 524.944 153.524 525.392C153.119 525.84 152.916 526.437 152.916 527.184C152.916 527.941 153.113 528.544 153.508 528.992C153.913 529.429 154.457 529.648 155.14 529.648Z" fill="#F8F9EE"/>
</g>
</g>
</g>
<g id="Frame 2341873">
<g id="Frame 2341649">
<g id="nodes-cultural">
<path id="recreation-sites" fill="url(#img-recreation-sites)" d="M306.796 444.213C308.139 440.213 317.54 431.775 322.073 428.057C326.022 425.551 331.594 422.809 347.122 428.356C362.651 433.903 359.414 448.075 362.707 457.731C366 467.387 351.465 478.616 348.287 480.706C345.14 482.775 343.266 483.19 336.509 484.688L336.309 484.733C329.388 486.267 325.078 483.237 315.424 478.186C305.769 473.135 304.653 459.591 304.007 456.605C303.361 453.618 305.118 449.214 306.796 444.213Z" />
<path id="tourism" fill="url(#img-tourism)" d="M231.61 444.213C232.953 440.213 242.354 431.775 246.886 428.057C250.836 425.551 256.408 422.809 271.936 428.356C287.465 433.903 284.228 448.075 287.521 457.731C290.814 467.387 276.279 478.616 273.101 480.706C269.954 482.775 268.08 483.19 261.323 484.688L261.122 484.733C254.202 486.267 249.892 483.237 240.238 478.186C230.583 473.135 229.467 459.591 228.821 456.605C228.175 453.618 229.932 449.214 231.61 444.213Z" />
</g>
</g>
<g id="Frame 2341661">
<g id="Group 1049_2">
<path id="Vector 138_2" d="M230.767 490.28V490.28C230.767 498.012 237.035 504.28 244.767 504.28H351.767C359.499 504.28 365.767 498.012 365.767 490.28V490.28" stroke="#515679" stroke-width="2" stroke-linecap="round"/>
</g>
<g id="Frame 2341659_2">
<path id="Cultural" d="M275.681 531.52C274.134 531.52 272.806 530.986 271.697 529.92C270.598 528.853 270.049 527.413 270.049 525.6C270.049 524.384 270.326 523.317 270.881 522.4C271.436 521.482 272.134 520.805 272.977 520.368C273.82 519.92 274.721 519.696 275.681 519.696C276.961 519.696 278.038 520.021 278.913 520.672C279.798 521.312 280.385 522.186 280.673 523.296L279.217 523.808C279.004 522.954 278.593 522.298 277.985 521.84C277.377 521.37 276.609 521.136 275.681 521.136C274.572 521.136 273.622 521.53 272.833 522.32C272.044 523.098 271.649 524.192 271.649 525.6C271.649 527.008 272.044 528.106 272.833 528.896C273.622 529.685 274.572 530.08 275.681 530.08C276.609 530.08 277.382 529.834 278.001 529.344C278.62 528.842 279.052 528.181 279.297 527.36L280.689 527.872C280.38 528.97 279.782 529.856 278.897 530.528C278.022 531.189 276.95 531.52 275.681 531.52ZM287.369 530.352C287.166 530.736 286.857 531.029 286.441 531.232C286.025 531.424 285.577 531.52 285.097 531.52C284.222 531.52 283.523 531.232 283.001 530.656C282.478 530.069 282.217 529.328 282.217 528.432V523.584H283.721V528.208C283.721 528.784 283.859 529.258 284.137 529.632C284.425 530.005 284.867 530.192 285.465 530.192C286.062 530.192 286.515 530.016 286.825 529.664C287.134 529.301 287.289 528.821 287.289 528.224V523.584H288.793V529.856C288.793 530.357 288.819 530.832 288.873 531.28H287.433C287.39 531.045 287.369 530.736 287.369 530.352ZM292.863 531.28H291.359V519.696H292.863V531.28ZM297.438 521.152V523.584H299.102V524.944H297.438V528.944C297.438 529.306 297.518 529.573 297.678 529.744C297.848 529.914 298.126 530 298.51 530C298.734 530 298.931 529.978 299.102 529.936V531.216C298.846 531.312 298.504 531.36 298.078 531.36C297.416 531.36 296.894 531.168 296.51 530.784C296.126 530.4 295.934 529.861 295.934 529.168V524.944H294.462V523.584H294.878C295.272 523.584 295.566 523.477 295.758 523.264C295.96 523.04 296.062 522.752 296.062 522.4V521.152H297.438ZM306.181 530.352C305.978 530.736 305.669 531.029 305.253 531.232C304.837 531.424 304.389 531.52 303.909 531.52C303.034 531.52 302.336 531.232 301.813 530.656C301.29 530.069 301.029 529.328 301.029 528.432V523.584H302.533V528.208C302.533 528.784 302.672 529.258 302.949 529.632C303.237 530.005 303.68 530.192 304.277 530.192C304.874 530.192 305.328 530.016 305.637 529.664C305.946 529.301 306.101 528.821 306.101 528.224V523.584H307.605V529.856C307.605 530.357 307.632 530.832 307.685 531.28H306.245C306.202 531.045 306.181 530.736 306.181 530.352ZM314.444 523.504V525.104C314.22 525.072 314.001 525.056 313.788 525.056C312.38 525.056 311.676 525.845 311.676 527.424V531.28H310.172V523.584H311.644V524.928C312.113 523.946 312.881 523.456 313.948 523.456C314.118 523.456 314.284 523.472 314.444 523.504ZM315.567 529.216C315.567 528.554 315.78 528.026 316.207 527.632C316.633 527.226 317.199 526.976 317.903 526.88L319.983 526.576C320.377 526.522 320.575 526.33 320.575 526C320.575 525.594 320.436 525.264 320.159 525.008C319.881 524.752 319.465 524.624 318.911 524.624C318.399 524.624 317.993 524.768 317.695 525.056C317.396 525.333 317.22 525.706 317.167 526.176L315.727 525.84C315.801 525.104 316.137 524.506 316.735 524.048C317.332 523.578 318.047 523.344 318.879 523.344C319.967 523.344 320.772 523.61 321.295 524.144C321.817 524.666 322.079 525.338 322.079 526.16V530.016C322.079 530.474 322.111 530.896 322.175 531.28H320.703C320.649 530.96 320.623 530.613 320.623 530.24C320.409 530.581 320.095 530.88 319.679 531.136C319.273 531.392 318.761 531.52 318.143 531.52C317.385 531.52 316.767 531.296 316.287 530.848C315.807 530.389 315.567 529.845 315.567 529.216ZM318.351 530.256C319.023 530.256 319.561 530.074 319.967 529.712C320.372 529.349 320.575 528.773 320.575 527.984V527.632L318.223 527.984C317.881 528.037 317.609 528.16 317.407 528.352C317.204 528.544 317.103 528.805 317.103 529.136C317.103 529.434 317.215 529.696 317.439 529.92C317.673 530.144 317.977 530.256 318.351 530.256ZM325.926 531.28H324.422V519.696H325.926V531.28Z" fill="#F8F9EE"/>
</g>
</g>
</g>
<g id="Frame 2341872">
<g id="Frame 2341650">
<g id="nodes-regulating">
<path id="soil-fertility" fill="url(#img-soil-fertility)" d="M416.39 444.213C417.733 440.213 427.133 431.775 431.666 428.057C435.616 425.551 441.187 422.809 456.716 428.356C472.244 433.903 469.007 448.075 472.3 457.731C475.594 467.387 461.058 478.616 457.88 480.706C454.733 482.775 452.859 483.19 446.102 484.688L445.902 484.733C438.981 486.267 434.671 483.237 425.017 478.186C415.363 473.135 414.246 459.591 413.6 456.605C412.954 453.618 414.711 449.214 416.39 444.213Z" />
<path id="climate-regulation" fill="url(#img-climate-regulation)" d="M490.652 443.663C490.957 442.753 491.747 441.535 492.883 440.129C494.008 438.737 495.437 437.205 496.973 435.674C500.033 432.625 503.49 429.607 505.747 427.754C507.683 426.527 509.98 425.271 513.677 424.976C517.409 424.678 522.609 425.358 530.336 428.118C534.145 429.478 536.778 431.358 538.647 433.544C540.518 435.732 541.644 438.254 542.403 440.93C543.122 443.465 543.505 446.116 543.886 448.748C543.908 448.902 543.93 449.056 543.953 449.21C544.354 451.978 544.775 454.719 545.615 457.183C546.39 459.454 546.126 461.841 545.205 464.21C544.284 466.583 542.713 468.909 540.923 471.024C537.343 475.253 532.954 478.553 531.393 479.579C528.335 481.59 526.552 481.99 519.782 483.491L519.582 483.535L519.69 484.024L519.582 483.535C516.232 484.278 513.524 483.921 510.45 482.752C508.104 481.861 505.571 480.509 502.386 478.809C501.345 478.253 500.234 477.66 499.037 477.034C494.37 474.592 491.737 470.081 490.189 465.744C489 462.411 488.474 459.261 488.141 457.267C488.04 456.657 487.956 456.156 487.877 455.79C487.581 454.421 487.829 452.673 488.394 450.586C488.811 449.044 489.386 447.368 490 445.578C490.214 444.953 490.433 444.315 490.652 443.663Z" />
</g>
</g>
<g id="Frame 2341662">
<g id="Group 1049_3">
<path id="Vector 138_3" d="M413.046 490.28V490.28C413.046 498.012 419.314 504.28 427.046 504.28H534.046C541.778 504.28 548.046 498.012 548.046 490.28V490.28" stroke="#515679" stroke-width="2" stroke-linecap="round"/>
</g>
<g id="Frame 2341659_3">
<path id="Regulating" d="M449.405 531.28L446.813 526.64H445.117V531.28H443.533V519.936H447.805C448.851 519.936 449.688 520.261 450.317 520.912C450.957 521.552 451.277 522.352 451.277 523.312C451.277 524.133 451.032 524.837 450.541 525.424C450.051 526 449.379 526.368 448.525 526.528L451.229 531.28H449.405ZM445.117 525.232H447.517C448.157 525.232 448.675 525.061 449.069 524.72C449.464 524.368 449.661 523.898 449.661 523.312C449.661 522.714 449.464 522.24 449.069 521.888C448.675 521.525 448.157 521.344 447.517 521.344H445.117V525.232ZM453.943 526.64H458.151C458.13 526.064 457.938 525.594 457.575 525.232C457.212 524.858 456.7 524.672 456.039 524.672C455.442 524.672 454.951 524.869 454.567 525.264C454.183 525.648 453.975 526.106 453.943 526.64ZM458.375 528.64L459.671 529.088C459.447 529.802 459.031 530.389 458.423 530.848C457.815 531.296 457.079 531.52 456.215 531.52C455.138 531.52 454.22 531.152 453.463 530.416C452.716 529.669 452.343 528.666 452.343 527.408C452.343 526.234 452.706 525.264 453.431 524.496C454.156 523.728 455.02 523.344 456.023 523.344C457.186 523.344 458.092 523.712 458.743 524.448C459.394 525.173 459.719 526.149 459.719 527.376C459.719 527.568 459.708 527.728 459.687 527.856H453.895C453.906 528.538 454.13 529.098 454.567 529.536C455.015 529.973 455.564 530.192 456.215 530.192C457.314 530.192 458.034 529.674 458.375 528.64ZM461.079 531.696L462.535 531.36C462.588 531.904 462.807 532.352 463.191 532.704C463.575 533.066 464.055 533.248 464.631 533.248C466.199 533.248 466.983 532.416 466.983 530.752V529.648C466.791 530.021 466.487 530.325 466.071 530.56C465.666 530.794 465.186 530.912 464.631 530.912C463.607 530.912 462.759 530.565 462.087 529.872C461.426 529.168 461.095 528.272 461.095 527.184C461.095 526.128 461.426 525.242 462.087 524.528C462.748 523.802 463.596 523.44 464.631 523.44C465.804 523.44 466.594 523.845 466.999 524.656V523.584H468.487V530.704C468.487 531.216 468.418 531.69 468.279 532.128C468.151 532.576 467.943 532.986 467.655 533.36C467.367 533.733 466.962 534.026 466.439 534.24C465.927 534.453 465.324 534.56 464.631 534.56C463.682 534.56 462.876 534.288 462.215 533.744C461.554 533.21 461.175 532.528 461.079 531.696ZM464.855 529.648C465.506 529.648 466.034 529.424 466.439 528.976C466.844 528.517 467.047 527.92 467.047 527.184C467.047 526.448 466.844 525.856 466.439 525.408C466.034 524.949 465.506 524.72 464.855 524.72C464.194 524.72 463.655 524.944 463.239 525.392C462.834 525.84 462.631 526.437 462.631 527.184C462.631 527.941 462.828 528.544 463.223 528.992C463.628 529.429 464.172 529.648 464.855 529.648ZM475.883 530.352C475.68 530.736 475.371 531.029 474.955 531.232C474.539 531.424 474.091 531.52 473.611 531.52C472.736 531.52 472.037 531.232 471.515 530.656C470.992 530.069 470.731 529.328 470.731 528.432V523.584H472.235V528.208C472.235 528.784 472.373 529.258 472.651 529.632C472.939 530.005 473.381 530.192 473.979 530.192C474.576 530.192 475.029 530.016 475.339 529.664C475.648 529.301 475.803 528.821 475.803 528.224V523.584H477.307V529.856C477.307 530.357 477.333 530.832 477.387 531.28H475.947C475.904 531.045 475.883 530.736 475.883 530.352ZM481.377 531.28H479.873V519.696H481.377V531.28ZM483.456 529.216C483.456 528.554 483.669 528.026 484.096 527.632C484.522 527.226 485.088 526.976 485.792 526.88L487.872 526.576C488.266 526.522 488.464 526.33 488.464 526C488.464 525.594 488.325 525.264 488.048 525.008C487.77 524.752 487.354 524.624 486.8 524.624C486.288 524.624 485.882 524.768 485.584 525.056C485.285 525.333 485.109 525.706 485.056 526.176L483.616 525.84C483.69 525.104 484.026 524.506 484.624 524.048C485.221 523.578 485.936 523.344 486.768 523.344C487.856 523.344 488.661 523.61 489.184 524.144C489.706 524.666 489.968 525.338 489.968 526.16V530.016C489.968 530.474 490 530.896 490.064 531.28H488.592C488.538 530.96 488.512 530.613 488.512 530.24C488.298 530.581 487.984 530.88 487.568 531.136C487.162 531.392 486.65 531.52 486.032 531.52C485.274 531.52 484.656 531.296 484.176 530.848C483.696 530.389 483.456 529.845 483.456 529.216ZM486.24 530.256C486.912 530.256 487.45 530.074 487.856 529.712C488.261 529.349 488.464 528.773 488.464 527.984V527.632L486.112 527.984C485.77 528.037 485.498 528.16 485.296 528.352C485.093 528.544 484.992 528.805 484.992 529.136C484.992 529.434 485.104 529.696 485.328 529.92C485.562 530.144 485.866 530.256 486.24 530.256ZM494.327 521.152V523.584H495.991V524.944H494.327V528.944C494.327 529.306 494.407 529.573 494.567 529.744C494.737 529.914 495.015 530 495.399 530C495.623 530 495.82 529.978 495.991 529.936V531.216C495.735 531.312 495.393 531.36 494.967 531.36C494.305 531.36 493.783 531.168 493.399 530.784C493.015 530.4 492.823 529.861 492.823 529.168V524.944H491.351V523.584H491.767C492.161 523.584 492.455 523.477 492.647 523.264C492.849 523.04 492.951 522.752 492.951 522.4V521.152H494.327ZM499.486 531.28H497.998V523.584H499.486V531.28ZM497.966 521.44C497.764 521.226 497.662 520.97 497.662 520.672C497.662 520.373 497.764 520.117 497.966 519.904C498.18 519.69 498.436 519.584 498.734 519.584C499.033 519.584 499.289 519.69 499.502 519.904C499.716 520.106 499.822 520.362 499.822 520.672C499.822 520.97 499.716 521.226 499.502 521.44C499.289 521.642 499.033 521.744 498.734 521.744C498.436 521.744 498.18 521.642 497.966 521.44ZM503.549 526.832V531.28H502.045V523.584H503.517V524.688C504.029 523.802 504.818 523.36 505.885 523.36C506.77 523.36 507.448 523.642 507.917 524.208C508.397 524.773 508.637 525.504 508.637 526.4V531.28H507.133V526.656C507.133 525.365 506.536 524.72 505.341 524.72C504.776 524.72 504.333 524.922 504.013 525.328C503.704 525.722 503.549 526.224 503.549 526.832ZM510.47 531.696L511.926 531.36C511.979 531.904 512.198 532.352 512.582 532.704C512.966 533.066 513.446 533.248 514.022 533.248C515.59 533.248 516.374 532.416 516.374 530.752V529.648C516.182 530.021 515.878 530.325 515.462 530.56C515.056 530.794 514.576 530.912 514.022 530.912C512.998 530.912 512.15 530.565 511.478 529.872C510.816 529.168 510.486 528.272 510.486 527.184C510.486 526.128 510.816 525.242 511.478 524.528C512.139 523.802 512.987 523.44 514.022 523.44C515.195 523.44 515.984 523.845 516.39 524.656V523.584H517.878V530.704C517.878 531.216 517.808 531.69 517.67 532.128C517.542 532.576 517.334 532.986 517.046 533.36C516.758 533.733 516.352 534.026 515.83 534.24C515.318 534.453 514.715 534.56 514.022 534.56C513.072 534.56 512.267 534.288 511.606 533.744C510.944 533.21 510.566 532.528 510.47 531.696ZM514.246 529.648C514.896 529.648 515.424 529.424 515.83 528.976C516.235 528.517 516.438 527.92 516.438 527.184C516.438 526.448 516.235 525.856 515.83 525.408C515.424 524.949 514.896 524.72 514.246 524.72C513.584 524.72 513.046 524.944 512.63 525.392C512.224 525.84 512.022 526.437 512.022 527.184C512.022 527.941 512.219 528.544 512.614 528.992C513.019 529.429 513.563 529.648 514.246 529.648Z" fill="#F8F9EE"/>
</g>
</g>
</g>
<g id="Frame 2341871">
<g id="Frame 2341651">
<g id="Component 6">
<path id="habitat-provision" fill="url(#img-habitat-provision)" d="M672.237 444.372C672.542 443.463 673.332 442.244 674.468 440.838C675.593 439.446 677.022 437.914 678.558 436.383C681.618 433.334 685.075 430.316 687.332 428.463C689.268 427.236 691.565 425.98 695.262 425.685C698.994 425.387 704.194 426.067 711.921 428.827C715.73 430.188 718.363 432.067 720.232 434.253C722.103 436.441 723.229 438.963 723.988 441.639C724.707 444.174 725.09 446.825 725.471 449.457C725.493 449.611 725.515 449.765 725.538 449.92C725.939 452.687 726.36 455.428 727.2 457.892C727.975 460.163 727.711 462.55 726.79 464.919C725.869 467.292 724.298 469.618 722.508 471.733C718.928 475.962 714.539 479.262 712.978 480.288C709.92 482.299 708.137 482.699 701.367 484.2L701.167 484.245L701.275 484.733L701.167 484.245C697.817 484.987 695.109 484.63 692.035 483.461C689.689 482.57 687.156 481.218 683.971 479.518C682.929 478.962 681.819 478.369 680.622 477.743C675.955 475.301 673.322 470.791 671.774 466.453C670.585 463.12 670.059 459.971 669.726 457.976C669.625 457.367 669.541 456.865 669.462 456.499C669.166 455.13 669.414 453.382 669.979 451.295C670.396 449.753 670.971 448.077 671.585 446.287C671.799 445.662 672.018 445.024 672.237 444.372Z" />
<path id="water-filtering" fill="url(#img-water-filtering)" d="M596.169 444.213C597.512 440.213 606.913 431.775 611.446 428.057C615.395 425.551 620.967 422.809 636.495 428.356C652.024 433.903 648.787 448.075 652.08 457.731C655.373 467.387 640.838 478.616 637.66 480.706C634.513 482.775 632.639 483.19 625.882 484.688L625.682 484.733C618.761 486.267 614.451 483.237 604.797 478.186C595.142 473.135 594.026 459.591 593.38 456.605C592.734 453.618 594.491 449.214 596.169 444.213Z" />
</g>
</g>
<g id="Frame 2341663">
<g id="Group 1049_4">
<path id="Vector 138_4" d="M593.233 490.28V490.28C593.233 498.012 599.501 504.28 607.233 504.28H714.233C721.965 504.28 728.233 498.012 728.233 490.28V490.28" stroke="#515679" stroke-width="2" stroke-linecap="round"/>
</g>
<g id="Frame 2341659_4">
<path id="Supporting" d="M629.147 522.512L627.739 523.008C627.664 522.517 627.424 522.074 627.019 521.68C626.614 521.274 626.054 521.072 625.339 521.072C624.71 521.072 624.187 521.253 623.771 521.616C623.355 521.978 623.147 522.426 623.147 522.96C623.147 523.376 623.27 523.728 623.515 524.016C623.771 524.304 624.134 524.501 624.603 524.608L626.299 524.976C627.238 525.178 627.963 525.562 628.475 526.128C628.987 526.682 629.243 527.36 629.243 528.16C629.243 529.077 628.88 529.866 628.155 530.528C627.43 531.189 626.486 531.52 625.323 531.52C624.054 531.52 623.056 531.189 622.331 530.528C621.616 529.856 621.2 529.061 621.083 528.144L622.587 527.664C622.651 528.346 622.918 528.922 623.387 529.392C623.856 529.861 624.496 530.096 625.307 530.096C626.054 530.096 626.63 529.925 627.035 529.584C627.44 529.242 627.643 528.81 627.643 528.288C627.643 527.861 627.499 527.493 627.211 527.184C626.923 526.864 626.502 526.645 625.947 526.528L624.331 526.176C623.488 525.994 622.816 525.637 622.315 525.104C621.814 524.57 621.563 523.893 621.563 523.072C621.563 522.176 621.926 521.392 622.651 520.72C623.387 520.037 624.272 519.696 625.307 519.696C626.47 519.696 627.36 519.978 627.979 520.544C628.598 521.109 628.987 521.765 629.147 522.512ZM635.905 530.352C635.703 530.736 635.393 531.029 634.977 531.232C634.561 531.424 634.113 531.52 633.633 531.52C632.759 531.52 632.06 531.232 631.537 530.656C631.015 530.069 630.753 529.328 630.753 528.432V523.584H632.257V528.208C632.257 528.784 632.396 529.258 632.673 529.632C632.961 530.005 633.404 530.192 634.001 530.192C634.599 530.192 635.052 530.016 635.361 529.664C635.671 529.301 635.825 528.821 635.825 528.224V523.584H637.329V529.856C637.329 530.357 637.356 530.832 637.409 531.28H635.969C635.927 531.045 635.905 530.736 635.905 530.352ZM641.384 534.32H639.896V523.584H641.352V524.784C641.576 524.378 641.912 524.048 642.36 523.792C642.808 523.536 643.33 523.408 643.928 523.408C645.037 523.408 645.901 523.786 646.52 524.544C647.149 525.301 647.464 526.261 647.464 527.424C647.464 528.597 647.138 529.568 646.488 530.336C645.848 531.104 644.978 531.488 643.88 531.488C643.314 531.488 642.813 531.37 642.376 531.136C641.938 530.901 641.608 530.602 641.384 530.24V534.32ZM645.928 527.424C645.928 526.645 645.72 526.005 645.304 525.504C644.898 524.992 644.349 524.736 643.656 524.736C642.973 524.736 642.418 524.992 641.992 525.504C641.576 526.005 641.368 526.645 641.368 527.424C641.368 528.224 641.576 528.88 641.992 529.392C642.418 529.893 642.973 530.144 643.656 530.144C644.338 530.144 644.888 529.893 645.304 529.392C645.72 528.88 645.928 528.224 645.928 527.424ZM650.868 534.32H649.38V523.584H650.836V524.784C651.06 524.378 651.396 524.048 651.844 523.792C652.292 523.536 652.815 523.408 653.412 523.408C654.521 523.408 655.385 523.786 656.004 524.544C656.633 525.301 656.948 526.261 656.948 527.424C656.948 528.597 656.623 529.568 655.972 530.336C655.332 531.104 654.463 531.488 653.364 531.488C652.799 531.488 652.297 531.37 651.86 531.136C651.423 530.901 651.092 530.602 650.868 530.24V534.32ZM655.412 527.424C655.412 526.645 655.204 526.005 654.788 525.504C654.383 524.992 653.833 524.736 653.14 524.736C652.457 524.736 651.903 524.992 651.476 525.504C651.06 526.005 650.852 526.645 650.852 527.424C650.852 528.224 651.06 528.88 651.476 529.392C651.903 529.893 652.457 530.144 653.14 530.144C653.823 530.144 654.372 529.893 654.788 529.392C655.204 528.88 655.412 528.224 655.412 527.424ZM660.448 529.456C660.918 529.936 661.488 530.176 662.16 530.176C662.832 530.176 663.398 529.936 663.856 529.456C664.326 528.965 664.56 528.288 664.56 527.424C664.56 526.57 664.326 525.904 663.856 525.424C663.398 524.933 662.832 524.688 662.16 524.688C661.488 524.688 660.918 524.933 660.448 525.424C659.99 525.904 659.76 526.57 659.76 527.424C659.76 528.288 659.99 528.965 660.448 529.456ZM659.328 524.512C660.075 523.733 661.019 523.344 662.16 523.344C663.302 523.344 664.24 523.733 664.976 524.512C665.723 525.28 666.096 526.25 666.096 527.424C666.096 528.608 665.728 529.589 664.992 530.368C664.256 531.136 663.312 531.52 662.16 531.52C661.008 531.52 660.064 531.136 659.328 530.368C658.592 529.589 658.224 528.608 658.224 527.424C658.224 526.25 658.592 525.28 659.328 524.512ZM672.293 523.504V525.104C672.069 525.072 671.85 525.056 671.637 525.056C670.229 525.056 669.525 525.845 669.525 527.424V531.28H668.021V523.584H669.493V524.928C669.962 523.946 670.73 523.456 671.797 523.456C671.967 523.456 672.133 523.472 672.293 523.504ZM676.318 521.152V523.584H677.982V524.944H676.318V528.944C676.318 529.306 676.398 529.573 676.558 529.744C676.729 529.914 677.006 530 677.39 530C677.614 530 677.811 529.978 677.982 529.936V531.216C677.726 531.312 677.385 531.36 676.958 531.36C676.297 531.36 675.774 531.168 675.39 530.784C675.006 530.4 674.814 529.861 674.814 529.168V524.944H673.342V523.584H673.758C674.153 523.584 674.446 523.477 674.638 523.264C674.841 523.04 674.942 522.752 674.942 522.4V521.152H676.318ZM681.477 531.28H679.989V523.584H681.477V531.28ZM679.957 521.44C679.755 521.226 679.653 520.97 679.653 520.672C679.653 520.373 679.755 520.117 679.957 519.904C680.171 519.69 680.427 519.584 680.725 519.584C681.024 519.584 681.28 519.69 681.493 519.904C681.707 520.106 681.813 520.362 681.813 520.672C681.813 520.97 681.707 521.226 681.493 521.44C681.28 521.642 681.024 521.744 680.725 521.744C680.427 521.744 680.171 521.642 679.957 521.44ZM685.54 526.832V531.28H684.036V523.584H685.508V524.688C686.02 523.802 686.81 523.36 687.876 523.36C688.762 523.36 689.439 523.642 689.908 524.208C690.388 524.773 690.628 525.504 690.628 526.4V531.28H689.124V526.656C689.124 525.365 688.527 524.72 687.332 524.72C686.767 524.72 686.324 524.922 686.004 525.328C685.695 525.722 685.54 526.224 685.54 526.832ZM692.461 531.696L693.917 531.36C693.97 531.904 694.189 532.352 694.573 532.704C694.957 533.066 695.437 533.248 696.013 533.248C697.581 533.248 698.365 532.416 698.365 530.752V529.648C698.173 530.021 697.869 530.325 697.453 530.56C697.047 530.794 696.567 530.912 696.013 530.912C694.989 530.912 694.141 530.565 693.469 529.872C692.807 529.168 692.477 528.272 692.477 527.184C692.477 526.128 692.807 525.242 693.469 524.528C694.13 523.802 694.978 523.44 696.013 523.44C697.186 523.44 697.975 523.845 698.381 524.656V523.584H699.869V530.704C699.869 531.216 699.799 531.69 699.661 532.128C699.533 532.576 699.325 532.986 699.037 533.36C698.749 533.733 698.343 534.026 697.821 534.24C697.309 534.453 696.706 534.56 696.013 534.56C695.063 534.56 694.258 534.288 693.597 533.744C692.935 533.21 692.557 532.528 692.461 531.696ZM696.237 529.648C696.887 529.648 697.415 529.424 697.821 528.976C698.226 528.517 698.429 527.92 698.429 527.184C698.429 526.448 698.226 525.856 697.821 525.408C697.415 524.949 696.887 524.72 696.237 524.72C695.575 524.72 695.037 524.944 694.621 525.392C694.215 525.84 694.013 526.437 694.013 527.184C694.013 527.941 694.21 528.544 694.605 528.992C695.01 529.429 695.554 529.648 696.237 529.648Z" fill="#F8F9EE"/>
</g>
</g>
</g>
</g>
<g id="Frame 2341642_3">
<path id="Ecosystem_2" d="M52.7945 597H45.6905V585.656H52.7945V587.736H47.8985V590.328H52.3305V592.296H47.8985V594.92H52.7945V597ZM58.2072 590.856C57.6418 590.856 57.1672 591.053 56.7832 591.448C56.3992 591.843 56.2072 592.381 56.2072 593.064C56.2072 593.747 56.3992 594.291 56.7832 594.696C57.1778 595.091 57.6578 595.288 58.2232 595.288C58.7245 595.288 59.1245 595.16 59.4232 594.904C59.7218 594.637 59.9245 594.323 60.0312 593.96L61.9032 594.584C61.7112 595.309 61.2952 595.933 60.6552 596.456C60.0152 596.979 59.2045 597.24 58.2232 597.24C57.0498 597.24 56.0632 596.845 55.2632 596.056C54.4738 595.256 54.0792 594.259 54.0792 593.064C54.0792 591.859 54.4685 590.861 55.2472 590.072C56.0365 589.283 57.0072 588.888 58.1592 588.888C59.1618 588.888 59.9832 589.149 60.6232 589.672C61.2632 590.184 61.6738 590.808 61.8552 591.544L59.9512 592.184C59.6952 591.299 59.1138 590.856 58.2072 590.856ZM65.5019 594.712C65.8966 595.107 66.3712 595.304 66.9259 595.304C67.4806 595.304 67.9499 595.107 68.3339 594.712C68.7286 594.317 68.9259 593.768 68.9259 593.064C68.9259 592.36 68.7286 591.811 68.3339 591.416C67.9499 591.021 67.4806 590.824 66.9259 590.824C66.3712 590.824 65.8966 591.021 65.5019 591.416C65.1179 591.811 64.9259 592.36 64.9259 593.064C64.9259 593.768 65.1179 594.317 65.5019 594.712ZM63.9659 590.072C64.7552 589.283 65.7419 588.888 66.9259 588.888C68.1099 588.888 69.0912 589.283 69.8699 590.072C70.6592 590.861 71.0539 591.859 71.0539 593.064C71.0539 594.269 70.6592 595.267 69.8699 596.056C69.0912 596.845 68.1099 597.24 66.9259 597.24C65.7419 597.24 64.7552 596.845 63.9659 596.056C63.1872 595.267 62.7979 594.269 62.7979 593.064C62.7979 591.859 63.1872 590.861 63.9659 590.072ZM72.0617 594.808L73.8857 594.408C73.907 594.749 74.0403 595.037 74.2857 595.272C74.5417 595.496 74.8883 595.608 75.3257 595.608C75.6563 595.608 75.9123 595.533 76.0937 595.384C76.275 595.235 76.3657 595.048 76.3657 594.824C76.3657 594.429 76.083 594.173 75.5177 594.056L74.4777 593.816C73.7417 593.656 73.187 593.368 72.8137 592.952C72.451 592.536 72.2697 592.04 72.2697 591.464C72.2697 590.749 72.547 590.141 73.1017 589.64C73.667 589.139 74.371 588.888 75.2137 588.888C75.747 588.888 76.2163 588.968 76.6217 589.128C77.027 589.277 77.3417 589.475 77.5657 589.72C77.7897 589.955 77.9603 590.195 78.0777 590.44C78.195 590.685 78.2697 590.925 78.3017 591.16L76.5257 591.56C76.483 591.283 76.355 591.037 76.1417 590.824C75.939 590.611 75.635 590.504 75.2297 590.504C74.9523 590.504 74.7123 590.579 74.5097 590.728C74.3177 590.877 74.2217 591.064 74.2217 591.288C74.2217 591.672 74.4617 591.907 74.9417 591.992L76.0617 592.232C76.819 592.392 77.395 592.685 77.7897 593.112C78.195 593.539 78.3977 594.051 78.3977 594.648C78.3977 595.352 78.131 595.96 77.5977 596.472C77.0643 596.984 76.3123 597.24 75.3417 597.24C74.787 597.24 74.291 597.16 73.8537 597C73.4163 596.829 73.075 596.616 72.8297 596.36C72.595 596.093 72.4137 595.832 72.2857 595.576C72.1683 595.309 72.0937 595.053 72.0617 594.808ZM82.7037 600.104H80.4477L82.3037 596.008L78.9597 589.128H81.3437L83.4397 593.736L85.3757 589.128H87.6477L82.7037 600.104ZM88.1554 594.808L89.9794 594.408C90.0007 594.749 90.1341 595.037 90.3794 595.272C90.6354 595.496 90.9821 595.608 91.4194 595.608C91.7501 595.608 92.0061 595.533 92.1874 595.384C92.3687 595.235 92.4594 595.048 92.4594 594.824C92.4594 594.429 92.1767 594.173 91.6114 594.056L90.5714 593.816C89.8354 593.656 89.2807 593.368 88.9074 592.952C88.5447 592.536 88.3634 592.04 88.3634 591.464C88.3634 590.749 88.6407 590.141 89.1954 589.64C89.7607 589.139 90.4647 588.888 91.3074 588.888C91.8407 588.888 92.3101 588.968 92.7154 589.128C93.1207 589.277 93.4354 589.475 93.6594 589.72C93.8834 589.955 94.0541 590.195 94.1714 590.44C94.2887 590.685 94.3634 590.925 94.3954 591.16L92.6194 591.56C92.5767 591.283 92.4487 591.037 92.2354 590.824C92.0327 590.611 91.7287 590.504 91.3234 590.504C91.0461 590.504 90.8061 590.579 90.6034 590.728C90.4114 590.877 90.3154 591.064 90.3154 591.288C90.3154 591.672 90.5554 591.907 91.0354 591.992L92.1554 592.232C92.9127 592.392 93.4887 592.685 93.8834 593.112C94.2887 593.539 94.4914 594.051 94.4914 594.648C94.4914 595.352 94.2247 595.96 93.6914 596.472C93.1581 596.984 92.4061 597.24 91.4354 597.24C90.8807 597.24 90.3847 597.16 89.9474 597C89.5101 596.829 89.1687 596.616 88.9234 596.36C88.6887 596.093 88.5074 595.832 88.3794 595.576C88.2621 595.309 88.1874 595.053 88.1554 594.808ZM98.8264 586.776V589.128H100.41V591.016H98.8264V594.312C98.8264 594.643 98.9011 594.877 99.0504 595.016C99.1997 595.155 99.4344 595.224 99.7544 595.224C100.042 595.224 100.261 595.203 100.41 595.16V596.92C100.101 597.048 99.7011 597.112 99.2104 597.112C98.4424 597.112 97.8344 596.899 97.3864 596.472C96.9384 596.035 96.7144 595.437 96.7144 594.68V591.016H95.2904V589.128H95.6904C96.0851 589.128 96.3837 589.016 96.5864 588.792C96.7997 588.557 96.9064 588.253 96.9064 587.88V586.776H98.8264ZM103.692 592.168H107.212C107.191 591.731 107.031 591.363 106.732 591.064C106.444 590.765 106.017 590.616 105.452 590.616C104.94 590.616 104.524 590.776 104.204 591.096C103.884 591.416 103.713 591.773 103.692 592.168ZM107.42 594.216L109.196 594.744C108.983 595.469 108.561 596.067 107.932 596.536C107.313 597.005 106.54 597.24 105.612 597.24C104.481 597.24 103.521 596.861 102.732 596.104C101.943 595.336 101.548 594.312 101.548 593.032C101.548 591.816 101.932 590.824 102.7 590.056C103.468 589.277 104.375 588.888 105.42 588.888C106.636 588.888 107.585 589.251 108.268 589.976C108.961 590.701 109.308 591.699 109.308 592.968C109.308 593.053 109.303 593.149 109.292 593.256C109.292 593.363 109.292 593.448 109.292 593.512L109.276 593.624H103.644C103.665 594.136 103.868 594.563 104.252 594.904C104.636 595.245 105.095 595.416 105.628 595.416C106.535 595.416 107.132 595.016 107.42 594.216ZM113.112 597H110.984V589.128H113.016V590.088C113.218 589.725 113.538 589.437 113.976 589.224C114.413 589.011 114.861 588.904 115.32 588.904C116.461 588.904 117.24 589.341 117.656 590.216C118.221 589.341 119.053 588.904 120.152 588.904C120.952 588.904 121.624 589.155 122.168 589.656C122.722 590.157 123 590.904 123 591.896V597H120.936V592.328C120.936 591.88 120.818 591.523 120.584 591.256C120.36 590.979 120.013 590.84 119.544 590.84C119.106 590.84 118.754 590.989 118.488 591.288C118.221 591.587 118.088 591.955 118.088 592.392V597H115.976V592.328C115.976 591.88 115.858 591.523 115.624 591.256C115.389 590.979 115.042 590.84 114.584 590.84C114.136 590.84 113.778 590.989 113.512 591.288C113.245 591.576 113.112 591.944 113.112 592.392V597Z" fill="#F8F9EE"/>
<g id="icon_3">
<path id="Vector_3" d="M144.394 594.333V591M144.394 587.667H144.403M152.728 591C152.728 595.602 148.997 599.333 144.394 599.333C139.792 599.333 136.061 595.602 136.061 591C136.061 586.398 139.792 582.667 144.394 582.667C148.997 582.667 152.728 586.398 152.728 591Z" stroke="#F8F9EE" stroke-width="1.35366" stroke-linecap="round" stroke-linejoin="round"/>
</g>
</g>
</g>
<g id="Frame 2341669">
<path d="M822.326 432C822.326 415.431 835.757 402 852.326 402H1051.1C1067.67 402 1081.1 415.431 1081.1 432V593C1081.1 609.569 1067.67 623 1051.1 623H852.326C835.757 623 822.326 609.569 822.326 593V432Z" fill="#515679" fill-opacity="0.2"/>
<g id="Frame 2341651_2">
<g id="nodes-abiotic">
<path id="energy-production" fill="url(#img-energy-production)" d="M1000.54 445.213C1001.88 441.213 1011.29 432.775 1015.82 429.057C1019.77 426.551 1025.34 423.809 1040.87 429.356C1056.4 434.903 1053.16 449.075 1056.45 458.731C1059.75 468.387 1045.21 479.616 1042.03 481.706C1038.88 483.775 1037.01 484.19 1030.25 485.688L1030.05 485.733C1023.13 487.267 1018.82 484.237 1009.17 479.186C999.514 474.135 998.398 460.591 997.752 457.605C997.106 454.618 998.863 450.214 1000.54 445.213Z" />
<path id="fossil-fuels" fill="url(#img-fossil-fuels)" d="M925.423 445.372C925.728 444.463 926.518 443.244 927.654 441.838C928.779 440.446 930.208 438.914 931.744 437.383C934.804 434.334 938.261 431.316 940.518 429.463C942.454 428.236 944.751 426.98 948.448 426.685C952.18 426.387 957.38 427.067 965.107 429.827C968.916 431.188 971.549 433.067 973.418 435.253C975.289 437.441 976.415 439.963 977.174 442.639C977.893 445.174 978.276 447.825 978.657 450.457C978.679 450.611 978.701 450.765 978.724 450.92C979.125 453.687 979.546 456.428 980.386 458.892C981.161 461.163 980.897 463.55 979.976 465.919C979.055 468.292 977.484 470.618 975.694 472.733C972.114 476.962 967.725 480.262 966.164 481.288C963.106 483.299 961.323 483.699 954.553 485.2L954.353 485.245L954.461 485.733L954.353 485.245C951.003 485.987 948.295 485.63 945.221 484.461C942.875 483.57 940.342 482.218 937.157 480.518C936.116 479.962 935.005 479.369 933.808 478.743C929.141 476.301 926.508 471.791 924.96 467.453C923.771 464.12 923.245 460.971 922.912 458.976C922.811 458.367 922.727 457.865 922.648 457.499C922.352 456.13 922.6 454.382 923.165 452.295C923.582 450.753 924.157 449.077 924.771 447.287C924.985 446.662 925.204 446.024 925.423 445.372Z" />
<path id="mineral-extraction" fill="url(#img-mineral-extraction)" d="M849.355 445.213C850.699 441.213 860.099 432.775 864.632 429.057C868.581 426.551 874.153 423.809 889.682 429.356C905.21 434.903 901.973 449.075 905.266 458.731C908.559 468.387 894.024 479.616 890.846 481.706C887.699 483.775 885.825 484.19 879.068 485.688L878.868 485.733C871.947 487.267 867.637 484.237 857.983 479.186C848.328 474.135 847.212 460.591 846.566 457.605C845.92 454.618 847.677 450.214 849.355 445.213Z" />
</g>
</g>
<g id="Frame 2341642_4">
<path id="Abiotic" d="M851.318 597L850.374 594.408H845.766L844.822 597H842.486L846.838 585.656H849.398L853.718 597H851.318ZM848.07 588.104L846.502 592.392H849.638L848.07 588.104ZM857.073 597H855.009V585.416H857.105V589.992C857.297 589.693 857.601 589.443 858.017 589.24C858.443 589.027 858.934 588.92 859.489 588.92C860.609 588.92 861.494 589.304 862.145 590.072C862.795 590.84 863.121 591.827 863.121 593.032C863.121 594.237 862.779 595.235 862.097 596.024C861.414 596.803 860.518 597.192 859.409 597.192C858.331 597.192 857.553 596.808 857.073 596.04V597ZM860.433 594.696C860.806 594.291 860.993 593.741 860.993 593.048C860.993 592.355 860.806 591.811 860.433 591.416C860.07 591.021 859.606 590.824 859.041 590.824C858.475 590.824 858.006 591.021 857.633 591.416C857.259 591.811 857.073 592.355 857.073 593.048C857.073 593.741 857.259 594.291 857.633 594.696C858.017 595.091 858.486 595.288 859.041 595.288C859.606 595.288 860.07 595.091 860.433 594.696ZM866.933 597H864.805V589.128H866.933V597ZM864.549 586.552C864.549 586.189 864.677 585.88 864.933 585.624C865.189 585.357 865.499 585.224 865.861 585.224C866.224 585.224 866.533 585.352 866.789 585.608C867.045 585.864 867.173 586.179 867.173 586.552C867.173 586.904 867.045 587.208 866.789 587.464C866.533 587.72 866.224 587.848 865.861 587.848C865.499 587.848 865.189 587.72 864.933 587.464C864.677 587.208 864.549 586.904 864.549 586.552ZM871.324 594.712C871.718 595.107 872.193 595.304 872.748 595.304C873.302 595.304 873.772 595.107 874.156 594.712C874.55 594.317 874.748 593.768 874.748 593.064C874.748 592.36 874.55 591.811 874.156 591.416C873.772 591.021 873.302 590.824 872.748 590.824C872.193 590.824 871.718 591.021 871.324 591.416C870.94 591.811 870.748 592.36 870.748 593.064C870.748 593.768 870.94 594.317 871.324 594.712ZM869.788 590.072C870.577 589.283 871.564 588.888 872.748 588.888C873.932 588.888 874.913 589.283 875.692 590.072C876.481 590.861 876.876 591.859 876.876 593.064C876.876 594.269 876.481 595.267 875.692 596.056C874.913 596.845 873.932 597.24 872.748 597.24C871.564 597.24 870.577 596.845 869.788 596.056C869.009 595.267 868.62 594.269 868.62 593.064C868.62 591.859 869.009 590.861 869.788 590.072ZM881.148 586.776V589.128H882.732V591.016H881.148V594.312C881.148 594.643 881.223 594.877 881.372 595.016C881.522 595.155 881.756 595.224 882.076 595.224C882.364 595.224 882.583 595.203 882.732 595.16V596.92C882.423 597.048 882.023 597.112 881.532 597.112C880.764 597.112 880.156 596.899 879.708 596.472C879.26 596.035 879.036 595.437 879.036 594.68V591.016H877.612V589.128H878.012C878.407 589.128 878.706 589.016 878.908 588.792C879.122 588.557 879.228 588.253 879.228 587.88V586.776H881.148ZM886.668 597H884.54V589.128H886.668V597ZM884.284 586.552C884.284 586.189 884.412 585.88 884.668 585.624C884.924 585.357 885.233 585.224 885.596 585.224C885.958 585.224 886.268 585.352 886.524 585.608C886.78 585.864 886.908 586.179 886.908 586.552C886.908 586.904 886.78 587.208 886.524 587.464C886.268 587.72 885.958 587.848 885.596 587.848C885.233 587.848 884.924 587.72 884.668 587.464C884.412 587.208 884.284 586.904 884.284 586.552ZM892.482 590.856C891.917 590.856 891.442 591.053 891.058 591.448C890.674 591.843 890.482 592.381 890.482 593.064C890.482 593.747 890.674 594.291 891.058 594.696C891.453 595.091 891.933 595.288 892.498 595.288C892.999 595.288 893.399 595.16 893.698 594.904C893.997 594.637 894.199 594.323 894.306 593.96L896.178 594.584C895.986 595.309 895.57 595.933 894.93 596.456C894.29 596.979 893.479 597.24 892.498 597.24C891.325 597.24 890.338 596.845 889.538 596.056C888.749 595.256 888.354 594.259 888.354 593.064C888.354 591.859 888.743 590.861 889.522 590.072C890.311 589.283 891.282 588.888 892.434 588.888C893.437 588.888 894.258 589.149 894.898 589.672C895.538 590.184 895.949 590.808 896.13 591.544L894.226 592.184C893.97 591.299 893.389 590.856 892.482 590.856Z" fill="#F8F9EE"/>
<g id="icon_4">
<path id="Vector_4" d="M917.326 594.333V591M917.326 587.667H917.334M925.659 591C925.659 595.602 921.928 599.333 917.326 599.333C912.723 599.333 908.992 595.602 908.992 591C908.992 586.398 912.723 582.667 917.326 582.667C921.928 582.667 925.659 586.398 925.659 591Z" stroke="#F8F9EE" stroke-width="1.35366" stroke-linecap="round" stroke-linejoin="round"/>
</g>
</g>
</g>
</g>
<g id="Group 1054">
<path id="Vector 136" d="M549.5 699V699C549.5 679.118 533.382 663 513.5 663H33C15.3269 663 1 648.673 1 631V631" stroke="#515679" stroke-width="2" stroke-linecap="round"/>
<path id="Vector 137" d="M549.5 699V699C549.5 679.118 565.618 663 585.5 663H1072.5C1090.17 663 1104.5 648.673 1104.5 631V631" stroke="#515679" stroke-width="2" stroke-linecap="round"/>
</g>
</g>
</g>
</g>
<defs>
<linearGradient id="paint0_linear_884_1590" x1="244.093" y1="201.28" x2="244.093" y2="417.28" gradientUnits="userSpaceOnUse">
<stop stop-color="#515679"/>
<stop offset="1" stop-color="#515679"/>
</linearGradient>
<linearGradient id="paint1_linear_884_1590" x1="282.343" y1="201.28" x2="282.343" y2="417.28" gradientUnits="userSpaceOnUse">
<stop stop-color="#515679"/>
<stop offset="1" stop-color="#515679"/>
</linearGradient>
<linearGradient id="paint2_linear_884_1590" x1="539.843" y1="201.28" x2="539.843" y2="417.78" gradientUnits="userSpaceOnUse">
<stop stop-color="#515679"/>
<stop offset="1" stop-color="#515679"/>
</linearGradient>
<linearGradient id="paint3_linear_884_1590" x1="615.75" y1="201.5" x2="615.75" y2="419.5" gradientUnits="userSpaceOnUse">
<stop stop-color="#515679"/>
<stop offset="1" stop-color="#515679"/>
</linearGradient>
<linearGradient id="paint4_linear_884_1590" x1="614.75" y1="202.5" x2="614.75" y2="419" gradientUnits="userSpaceOnUse">
<stop stop-color="#515679"/>
<stop offset="1" stop-color="#515679"/>
</linearGradient>
<clipPath id="clip0_884_1590">
<rect width="20" height="20" fill="white" transform="translate(237 91)"/>
</clipPath>
<clipPath id="clip1_884_1590">
<rect width="20" height="20" fill="white" transform="translate(799 91)"/>
</clipPath>
</defs>
</svg>
