<?xml version="1.0" encoding="UTF-8"?>
<svg width="148" height="35" fill="none" viewBox="0 0 148 35" xmlns="http://www.w3.org/2000/svg">
 <g clip-path="url(#clip0_1204_8391)">
  <path d="m21.744 5.5178c-1.4054 0-2.5443-1.0706-2.5443-2.3846 0-1.3262 1.1389-2.3968 2.5443-2.3968 1.3933 0 2.5322 1.0707 2.5322 2.3968 0 1.314-1.1389 2.3846-2.5322 2.3846zm-10.195 21.339 6.6273-18.688h-4.6645l-4.289 13.882h-0.19385l-4.2768-13.882h-4.6766l6.6273 18.688h4.8462zm7.9902-18.688v18.688h4.3859v-18.688h-4.3859zm6.9849 15.889v2.7983h15.278v-3.6499h-9.4502v-0.1582l9.1352-11.874v-3.0051h-14.648v3.6499h9.2806v0.1582l-9.5956 12.081zm17.501 2.7983v-2.7983l9.5956-12.081v-0.1582h-9.2806v-3.6499h14.648v3.0051l-9.1352 11.874v0.1582h9.4502v3.6499h-15.278zm29.605-18.688v10.828c0 2.8469-2.0233 4.2582-3.9618 4.2582-2.1081 0-3.5135-1.4964-3.5135-3.8689v-11.217h-4.3859v11.899c0 4.4895 2.5443 7.0323 6.2032 7.0323 2.7866 0 4.7494-1.4722 5.5975-3.5648h0.1938v3.3214h4.2526v-18.688h-4.3859zm12.582 19.065c-3.5499 0-6.2275-1.9467-6.2275-5.621 0-4.2096 3.453-5.2924 7.0634-5.6817 0.1932-0.0208 0.3796-0.0405 0.5593-0.0596 2.8749-0.3046 4.0447-0.4285 4.0447-1.6194v-0.073c0-1.8371-1.1147-2.8835-3.1501-2.8835-2.1445 0-3.3803 1.095-3.8164 2.3725l-4.0951-0.584c0.9692-3.4066 3.9739-5.1586 7.8873-5.1586 3.5499 0 7.5602 1.4843 7.5602 6.4238v12.507h-4.2163v-2.5671h-0.1454c-0.7996 1.5695-2.5443 2.9443-5.4641 2.9443zm5.4521-7.0792c0 2.0805-1.672 3.8447-4.3132 3.8447-1.8294 0-3.1379-0.8395-3.1379-2.4577 0-1.6911 1.466-2.3968 3.4287-2.6766l0.1951-0.0267c1.1983-0.1634 3.2885-0.4483 3.8273-0.8858v2.2021zm11.515-18.214v24.917h-4.3853v-24.917h4.3853zm2.842 6.2285v18.688h4.385v-18.688h-4.385zm2.204-2.6515c-1.405 0-2.544-1.0706-2.544-2.3846 0-1.3262 1.139-2.3968 2.544-2.3968 1.394 0 2.533 1.0707 2.533 2.3968 0 1.314-1.139 2.3846-2.533 2.3846zm14.315 6.0584v-3.4066h-3.671v-4.4773h-4.386v4.4773h-2.641v3.4066h2.641v10.39c-0.024 3.5161 2.52 5.2437 5.816 5.1464 1.248-0.0365 2.108-0.2798 2.58-0.438l-0.739-3.4431c-0.242 0.0608-0.739 0.1703-1.284 0.1703-1.103 0-1.987-0.3893-1.987-2.1656v-9.6602h3.671zm4.731 22.252c-1.199 0-2.265-0.219-2.859-0.4744l1.018-3.4188c1.914 0.5475 3.174 0.3893 4.01-1.679l0.376-1.0098-6.749-19.077h4.653l4.289 14.113h0.193l4.301-14.113 4.689 0.02433-7.475 20.926c-1.054 2.9321-3.029 4.7084-6.446 4.7084zm14.158-9.3796c-0.013 1.4844 1.187 2.6767 2.665 2.6767 1.43 0 2.653-1.1923 2.665-2.6767-0.012-1.4599-1.235-2.6523-2.665-2.6523-1.478 0-2.678 1.1924-2.665 2.6523z" clip-rule="evenodd" fill="currentColor" fill-rule="evenodd"/>
 </g>
 <defs>
  <clipPath id="clip0_1204_8391">
   <rect transform="translate(.075195 .73633)" width="147" height="34" fill="currentColor"/>
  </clipPath>
 </defs>
</svg>
