<svg width="29" height="29" viewBox="0 0 29 29" fill="none" xmlns="http://www.w3.org/2000/svg">
<path d="M1.77577 18.6521C0.795543 18.6521 0 17.8749 0 16.9174V1.73534C0 0.777784 0.795543 0.000642776 1.77577 0.000642776H6.91838C7.85244 0.000642776 8.63022 0.704927 8.69415 1.61391L9.79512 0.968601C10.8428 0.354521 12.0432 0.0283985 13.265 0.0283985H20.7694C21.6785 0.0179901 22.5771 0.194927 23.4117 0.541866C25.809 1.58268 26.1854 3.41105 26.0079 4.62534C27.2687 5.65921 27.7304 7.35574 27.1621 8.86493C27.7552 9.56574 28.0713 10.4539 28.05 11.3664C28.0109 12.081 27.7588 12.768 27.3219 13.3404C27.8795 14.5964 27.5528 16.0604 26.5086 16.9764C26.434 17.0423 26.3595 17.1082 26.2778 17.1672C25.8729 17.4621 25.4077 17.6633 24.914 17.757H24.8749C22.5203 18.2462 20.9363 18.2774 18.6065 18.2774C18.5177 18.8013 18.5212 19.901 19.2244 21.9723C19.8744 23.8908 19.8175 25.4764 19.054 26.6872C18.4147 27.6655 17.367 28.3213 16.1879 28.4704H16.0778C15.2396 28.4843 14.4938 27.957 14.2487 27.1729C14.2345 27.1313 14.2274 27.0896 14.2203 27.048L13.954 25.1745C13.8723 24.6125 13.7054 24.0643 13.4568 23.5508L10.8677 18.2392C10.4735 17.351 9.66372 16.7023 8.69415 16.5045V16.9174C8.69415 17.8749 7.89861 18.6521 6.91838 18.6521H1.77577ZM1.77577 1.73534V16.9174H6.91838V1.73534H1.77577ZM8.87883 14.7594C10.477 15.0335 11.8266 16.0778 12.4659 17.5349L15.0336 22.8327C15.3604 23.5057 15.5806 24.2239 15.6836 24.9629L15.957 26.7149C15.957 26.7149 15.9854 26.7357 16.0032 26.7392C16.6283 26.6421 17.1859 26.2917 17.5339 25.7747C18.0027 25.0323 18.0027 23.9047 17.5339 22.517C16.8449 20.4908 16.6318 18.8915 16.8946 17.7604C17.0616 17.0423 17.7186 16.5323 18.4715 16.5392C20.8191 16.5392 22.2681 16.5184 24.5091 16.057H24.5446C24.7826 16.0153 25.0063 15.9217 25.2017 15.7864L25.3153 15.6927C26.2245 14.8913 25.6492 13.8643 25.5284 13.6735C25.294 13.3162 25.3615 12.8443 25.6847 12.5598C26.0292 12.2164 26.2423 11.7688 26.2849 11.29C26.2636 10.6447 25.9759 10.0341 25.4858 9.60044C25.2123 9.31942 25.1662 8.89268 25.3686 8.55962C25.4077 8.4937 26.3204 6.94289 24.5127 5.64533C24.2037 5.41636 24.0758 5.02085 24.2001 4.66003C24.296 4.38248 24.6725 2.96003 22.7227 2.12391C22.1047 1.87064 21.4406 1.74921 20.7694 1.76309H13.2508C12.3522 1.76309 11.4679 2.00595 10.6972 2.45697L8.69415 3.62962V14.7317L8.87883 14.7594Z" fill="#FF2149"/>
</svg>
